<?xml version="1.0" encoding="utf-8"?>
<svg version="1.1" id="svg2" width="666.66669" height="666.66669" viewBox="0 0 666.66669 666.66669" xmlns="http://www.w3.org/2000/svg">
  <g id="g8" transform="matrix(1.3333333,0,0,-1.3333333,0,666.66667)">
    <g id="g10" transform="scale(0.1)">
      <path d="M 0,0 H 5000 V 5000 H 0 Z" style="fill-opacity: 1; fill-rule: nonzero; stroke: none; fill: rgb(253, 255, 233);" id="path12"/>
      <path d="M 4281.97,723.711 C 4054.76,896.352 3666.15,1324.72 4177.9,1997.18 4810.74,2828.76 4052.85,3169.93 3326.4,3134.32 2741.96,3105.67 2084.22,3840.42 1428.09,3709.1 557.211,3534.79 1122.68,2784.84 532.195,2380.79 28.6133,2036.2 244.82,986.262 900.227,723.711 H 4281.97" style="fill:#cfe6f4;fill-opacity:1;fill-rule:nonzero;stroke:none" id="path14"/>
      <path d="m 4692.08,2248.68 c -3.51,123.31 -118.38,171.14 -195.05,81.87 -43.99,-51.21 -85.92,-124.67 -93.77,-222.91 -17.55,-219.86 174.8,-156.16 246.67,-38.44 30.66,50.2 43.93,117.15 42.15,179.48" style="fill:#cfe6f4;fill-opacity:1;fill-rule:nonzero;stroke:none" id="path16"/>
      <path d="m 2575.5,3752.64 c -121.21,22.93 -192.5,-79.06 -121.68,-173.05 40.62,-53.92 103.43,-110.58 197.72,-139.25 211.02,-64.15 189.91,137.37 90.28,232.75 -42.49,40.68 -105.05,67.95 -166.32,79.55" style="fill:#cfe6f4;fill-opacity:1;fill-rule:nonzero;stroke:none" id="path18"/>
      <path d="m 572.125,2622.8 c 48.5,113.44 -35.746,205.01 -142.777,156.09 -61.403,-28.06 -130.262,-77.18 -178.563,-163.09 -108.086,-192.26 93.254,-215.03 207.844,-138.28 48.883,32.73 88.984,87.95 113.496,145.28" style="fill:#cfe6f4;fill-opacity:1;fill-rule:nonzero;stroke:none" id="path20"/>
      <path d="m 4581.27,690.109 c 0,-75.539 -930.18,-136.777 -2077.6,-136.777 -1147.43,0 -2077.607,61.238 -2077.607,136.777 0,75.52 930.177,136.762 2077.607,136.762 1147.42,0 2077.6,-61.242 2077.6,-136.762" style="fill:#cfe6f4;fill-opacity:1;fill-rule:nonzero;stroke:none" id="path22"/>
      <path d="m 4525.28,1812.18 c -127.2,-127.16 14.69,-137.94 -78.65,-233.98 -85.07,-87.53 -210.61,-2.33 -202.25,-216.11 1.82,-46.77 -32.21,-81.47 -79.96,-99.24 -78.57,-29.24 -155.44,-2.2 -202.77,51.55 -3.86,4.33 -7.51,8.87 -10.94,13.58 -35.92,49.03 -49.03,115.48 -22.41,181.34 21.6,53.43 59.85,106 127.65,126.96 159.04,49.16 70.76,259.8 205.19,269.04 162.11,11.16 167.93,70.62 282.98,150.78 121.96,84.97 153.57,-71.61 -18.84,-243.92" style="fill:#3a65b9;fill-opacity:1;fill-rule:nonzero;stroke:none" id="path24"/>
      <path d="m 4468.25,1881.65 c -3.55,-3.66 -298.5,-307.76 -506.6,-567.25 -3.86,4.33 -7.51,8.87 -10.94,13.58 208.67,259.64 501.77,561.87 505.34,565.54 3.29,3.36 8.67,3.44 12.04,0.16 3.37,-3.27 3.44,-8.66 0.16,-12.03" style="fill:#3751ab;fill-opacity:1;fill-rule:nonzero;stroke:none" id="path26"/>
      <path d="m 4557.94,1387.68 c -199.29,-117.32 -26.14,-176.43 -173.24,-265.91 -134.09,-81.56 -262.92,64.91 -321.37,-203.891 -12.78,-58.797 -66.33,-91.027 -131.47,-97.777 -107.22,-11.09 -194.19,47.32 -235.82,129.468 -3.39,6.629 -6.48,13.461 -9.23,20.418 -28.94,72.612 -23.85,159.532 30.49,232.952 44.1,59.56 108.65,112.68 199.78,116.92 213.8,9.97 171.75,300.61 342.06,268.83 205.39,-38.32 231.77,33.82 400.8,96.54 179.18,66.52 168.09,-138.57 -102,-297.55" style="fill:#3f77c4;fill-opacity:1;fill-rule:nonzero;stroke:none" id="path28"/>
      <path d="m 4509.33,1492.52 c -5.61,-3.41 -470.68,-286.96 -813.29,-542.95 -3.39,6.629 -6.48,13.461 -9.23,20.418 343.36,256.002 805.52,537.822 811.15,541.232 5.17,3.15 11.89,1.49 15.04,-3.66 3.13,-5.17 1.48,-11.9 -3.67,-15.04" style="fill:#3a65b9;fill-opacity:1;fill-rule:nonzero;stroke:none" id="path30"/>
      <path d="m 671.25,3264.84 c 68.379,-166.35 -66.703,-121.63 -17.59,-246.21 44.778,-113.55 193.449,-83.31 103.356,-277.37 -19.707,-42.45 -1.672,-87.58 35.539,-122.38 61.234,-57.25 142.582,-61.92 206.976,-30.57 5.229,2.51 10.349,5.29 15.329,8.32 52.04,31.39 89.74,87.66 90.56,158.69 0.66,57.63 -14.38,120.89 -68.86,166.35 -127.822,106.65 34.82,267 -85.669,327.33 -145.293,72.78 -127.75,129.88 -203.032,248.19 -79.793,125.41 -169.289,-6.9 -76.609,-232.35" style="fill:#3a65b9;fill-opacity:1;fill-rule:nonzero;stroke:none" id="path32"/>
      <path d="m 750.648,3306.98 c 1.868,-4.75 156.848,-399.03 248.883,-718.67 5.229,2.51 10.349,5.29 15.329,8.32 -92.501,320 -246.501,711.84 -248.383,716.6 -1.727,4.37 -6.668,6.51 -11.043,4.78 -4.371,-1.72 -6.508,-6.66 -4.786,-11.03" style="fill:#3751ab;fill-opacity:1;fill-rule:nonzero;stroke:none" id="path34"/>
      <path d="m 476.527,2830.3 c 144.215,-180.78 -38.621,-174.12 66.793,-310.26 96.09,-124.08 268.758,-33.31 227.289,-305.25 -9.07,-59.5 29.418,-108.73 87.864,-138.32 96.172,-48.66 198.277,-25.18 266.507,36.66 5.54,4.99 10.86,10.27 15.92,15.79 52.97,57.47 79.28,140.47 54.75,228.45 -19.9,71.39 -61.21,144.07 -144.8,180.6 -196.123,85.71 -52.995,342.13 -223.416,373.3 -205.524,37.61 -204.387,114.41 -339.844,233.4 -143.586,126.14 -206.512,-69.37 -11.063,-314.37" style="fill:#3f77c4;fill-opacity:1;fill-rule:nonzero;stroke:none" id="path36"/>
      <path d="m 559.398,2910.85 c 4.016,-5.19 337.063,-436.2 565.582,-797.72 5.54,4.99 10.86,10.27 15.92,15.79 -229.216,361.78 -560.173,790.15 -564.205,795.34 -3.703,4.78 -10.574,5.65 -15.351,1.95 -4.778,-3.71 -5.641,-10.58 -1.946,-15.36" style="fill:#3a65b9;fill-opacity:1;fill-rule:nonzero;stroke:none" id="path38"/>
      <path d="m 1449.21,2987.68 c 58.09,39.78 203.6,-58.35 279.68,-177.5 l -67.49,189.08 c -24.43,21.19 -67.2,50.92 -134.03,74.61 -103.94,36.83 -208.11,94.54 -149.9,134.39 54.54,37.36 186.11,-46.86 264.97,-155.9 l -86.68,242.82 c -16.12,12.4 -40.66,27.47 -75.74,39.89 -65.49,23.22 -131.15,59.59 -94.46,84.71 31.83,21.79 105.29,-22.1 155.46,-83.29 l -28.1,78.7 c -12.85,22.87 -31.12,55.54 -59.92,85.34 -66.73,69.04 -117.18,146.7 -65.72,157.96 51.51,11.26 135.82,-124.03 149.08,-246.26 l 14.46,-40.5 c -11.23,88.9 20.74,196.55 65.31,200.35 44.3,3.79 16.52,-65.92 -19.48,-125.37 -27.4,-45.25 -34.97,-81.16 -36.99,-99.74 l 68.28,-191.28 c -17.37,140.84 33.25,310.69 103.78,316.72 70.28,6.01 26.2,-104.61 -30.91,-198.94 -43.16,-71.28 -55.32,-127.98 -58.64,-157.64 l 81.88,-229.38 c -14.52,139.18 35.26,308.09 104.7,308.64 53.53,0.42 37.14,-75.16 -26.8,-181.86 -43.45,-72.51 -57.35,-137.62 -61.79,-171.92 l 38.57,-108.04 c -6.46,-4.57 -13.18,-6.96 -19.86,-7.08 l -15.34,42.99 c -21.68,20.97 -66.84,56.6 -144.42,84.1 -103.93,36.84 -208.1,94.54 -149.9,134.4" style="fill:#3f77c4;fill-opacity:1;fill-rule:nonzero;stroke:none" id="path40"/>
      <path d="m 938.027,1385.21 c -59.597,-37.5 -27.39,-210.01 51.696,-327.19 l -146.672,137.1 c -9.731,30.83 -20.008,81.89 -15.176,152.63 7.516,110.01 -4.023,228.54 -63.73,190.98 -55.957,-35.2 -30.993,-189.41 37.714,-305.12 l -188.347,176.07 c -4.973,19.72 -9.039,48.23 -6.504,85.35 4.734,69.34 -2.535,144.03 -40.16,120.36 -32.66,-20.55 -21.582,-105.41 14.617,-175.76 l -61.043,57.07 c -15.875,20.87 -38.59,50.63 -54.484,88.91 -36.829,88.67 -88.032,165.84 -118.821,123.09 -30.812,-42.79 59.821,-173.93 166.707,-234.7 l 31.41,-29.36 c -77.121,45.64 -188.593,59.11 -209.808,19.72 -21.086,-39.14 53.933,-41.36 122.789,-31.97 52.414,7.16 88.367,-0.17 106.223,-5.7 L 712.813,1288 c -122.329,71.93 -298.305,93 -331.875,30.67 -33.458,-62.1 85.578,-65.62 194.832,-50.71 82.566,11.26 139.421,-0.12 167.96,-8.87 l 177.926,-166.31 c -121.933,68.65 -296.718,90.11 -324.824,26.61 -21.664,-48.94 54.203,-63.95 177.523,-47.7 83.813,11.04 149.083,-2.09 182.317,-11.64 l 83.808,-78.339 c 6.76,4.109 11.62,9.328 14.39,15.398 l -33.35,31.181 c -10.62,28.22 -25.368,83.82 -19.76,165.95 7.51,110.01 -4.026,228.53 -63.733,190.97" style="fill:#3f77c4;fill-opacity:1;fill-rule:nonzero;stroke:none" id="path42"/>
      <path d="M 3945.86,2931.07 V 733.789 H 764.922 V 2931.07 H 3945.86" style="fill:#f7941d;fill-opacity:1;fill-rule:nonzero;stroke:none" id="path44"/>
      <path d="M 3945.76,2930.99 V 2790.13 L 2355.4,1380.53 764.926,2790.13 v 140.86 L 2355.29,1516.56 3945.76,2930.99" style="fill:#f36d21;fill-opacity:1;fill-rule:nonzero;stroke:none" id="path46"/>
      <path d="M 2048.95,1793.94 857.051,733.789 h -92.129 v 56.012 l 1215.508,1081.129 68.52,-76.99" style="fill:#f36d21;fill-opacity:1;fill-rule:nonzero;stroke:none" id="path48"/>
      <path d="m 3945.86,782.359 v -48.57 H 3845.39 L 2653.5,1793.94 l 68.51,76.99 1223.85,-1088.571" style="fill:#f36d21;fill-opacity:1;fill-rule:nonzero;stroke:none" id="path50"/>
      <path d="M 764.828,2931.08 2355.3,1516.55 3945.77,2931.08 Z" style="fill:#f0b93a;fill-opacity:1;fill-rule:nonzero;stroke:none" id="path52"/>
      <path d="m 3068.27,3128.97 40.59,-86.85 -85.8,-1.33 -33.11,79.03 78.32,9.15" style="fill:#f49477;fill-opacity:1;fill-rule:nonzero;stroke:none" id="path54"/>
      <path d="m 3081.85,3047.55 c 0,0 17.61,23.68 31.62,22.66 13.99,-1.01 121.96,-86.85 158.95,-93.94 36.99,-7.09 33.57,-44.77 18.08,-44.77 -44.58,0 -290.61,-0.42 -290.61,-0.42 0,0 -7.43,88.01 1.99,114.26 9.41,26.24 51.04,-4 79.97,2.21" style="fill:#3f77c4;fill-opacity:1;fill-rule:nonzero;stroke:none" id="path56"/>
      <path d="m 3141.52,2987.65 c -1.31,-0.39 -2.77,-0.27 -4.05,0.46 -2.48,1.42 -3.35,4.58 -1.93,7.07 0.47,0.83 11.76,20.45 26.97,28.11 20.22,10.22 36.01,-1.22 36.67,-1.71 2.29,-1.7 2.77,-4.95 1.06,-7.25 -1.7,-2.29 -4.95,-2.78 -7.24,-1.06 -0.43,0.3 -11.42,8.01 -25.82,0.77 -12.39,-6.25 -22.54,-23.82 -22.64,-24 -0.69,-1.2 -1.79,-2.02 -3.02,-2.39" style="fill:#ffffff;fill-opacity:1;fill-rule:nonzero;stroke:none" id="path58"/>
      <path d="m 3126.08,3002.24 c -1.3,-0.39 -2.77,-0.27 -4.05,0.46 -2.49,1.42 -3.36,4.58 -1.94,7.07 0.48,0.83 11.78,20.45 26.98,28.12 20.24,10.22 36,-1.22 36.66,-1.71 2.31,-1.71 2.78,-4.95 1.07,-7.25 -1.7,-2.3 -4.95,-2.78 -7.25,-1.07 -0.43,0.31 -11.42,8.02 -25.82,0.77 -12.44,-6.27 -22.53,-23.81 -22.63,-23.99 -0.69,-1.2 -1.79,-2.03 -3.02,-2.4" style="fill:#ffffff;fill-opacity:1;fill-rule:nonzero;stroke:none" id="path60"/>
      <path d="m 3162.46,2975.81 c -1.31,-0.39 -2.77,-0.27 -4.05,0.46 -2.48,1.42 -3.35,4.58 -1.95,7.06 0.48,0.84 11.78,20.46 26.99,28.12 20.24,10.23 36,-1.21 36.67,-1.71 2.29,-1.7 2.77,-4.95 1.06,-7.24 -1.7,-2.3 -4.95,-2.78 -7.24,-1.07 -0.43,0.3 -11.43,8.02 -25.82,0.77 -12.46,-6.27 -22.54,-23.82 -22.64,-23.99 -0.69,-1.21 -1.79,-2.03 -3.02,-2.4" style="fill:#ffffff;fill-opacity:1;fill-rule:nonzero;stroke:none" id="path62"/>
      <path d="m 3092.71,3100.66 -38,-12.4 -21.14,-1.25 -36.31,-2.13 c -47.99,37.96 -177.45,152.17 -202.67,219.51 0,0 -166.56,-387.32 -396.84,-387.32 -14.94,0 24.54,192.73 62.08,232.81 0,0 212.26,395.59 349.87,353.61 61.62,-18.82 123.95,-108.52 283.01,-402.83" style="fill:#343054;fill-opacity:1;fill-rule:nonzero;stroke:none" id="path64"/>
      <path d="m 3054.71,3088.26 -21.14,-1.25 c -141.26,106.96 -206.69,197.54 -236.82,255.56 -1.04,2.01 -2.73,2.67 -3.87,2.64 -0.99,-0.02 -1.7,-0.57 -2.16,-1.72 -67.64,-159.23 -148.82,-254.79 -205.01,-306.95 -61.23,-56.82 -106.03,-75.55 -107.88,-76.34 l -2.6,6.32 -2.58,6.3 c 0.43,0.19 44.88,18.87 104.45,74.33 55.02,51.2 134.58,145.1 201.08,301.69 2.53,6.02 7.86,9.76 14.18,10 6.81,0.28 13.2,-3.65 16.5,-9.98 30.37,-58.51 97.65,-150.96 245.85,-260.6" style="fill:#1e1d33;fill-opacity:1;fill-rule:nonzero;stroke:none" id="path66"/>
      <path d="m 2959.17,3110.78 c 6.04,-11.3 16.43,-27.27 26.36,-34.99 0,0 81.34,3.76 120.9,23.63 l -17.76,41.35 c 0,0 -64.74,-23.63 -129.5,-29.99" style="fill:#4c4685;fill-opacity:1;fill-rule:nonzero;stroke:none" id="path68"/>
      <path d="m 3065.63,3666.04 c -115.67,-47.11 -208.12,-70.8 -286.79,-80.55 l -0.16,0.03 c -1.01,-0.03 -19.53,-1.54 -26.65,-1.25 -21.19,0.73 -49.89,5.53 -78.95,19.11 -20.71,9.67 -50.29,34.66 -81.23,64.45 -38.32,36.97 -78.72,81.33 -106.67,113.02 -21.74,24.62 -35.96,41.6 -35.96,41.6 19.29,28.7 62.01,54.8 99.19,68.77 0,0 77.58,-129.19 195.12,-192.63 6.39,-3.49 12.93,-6.71 19.55,-9.7 26.78,4.34 99.23,7.64 130.65,9.88 85.15,6.05 154.67,20.82 154.67,20.82 l 17.23,-53.55" style="fill:#3a65b9;fill-opacity:1;fill-rule:nonzero;stroke:none" id="path70"/>
      <path d="m 3045.47,3723.85 c 0,0 16.1,40.69 38.02,52.3 21.9,11.61 84.27,52.49 97.58,40.26 13.32,-12.24 10.56,-70.98 -45.35,-120.08 -35.61,-31.28 -71.49,-29.95 -71.49,-29.95 l -18.76,57.47" style="fill:#f49477;fill-opacity:1;fill-rule:nonzero;stroke:none" id="path72"/>
      <path d="m 3185.06,3779.03 -92.05,-85.99 c -3.46,-3.25 -9.71,-4.19 -13.98,-2.12 l -56.41,27.28 c -1.75,0.86 -2.9,2.08 -3.39,3.46 l -0.13,0.45 -2.77,9.43 14.96,5.68 144.83,55.01 7.85,2.96 2.94,-9.97 0.23,-0.68 0.03,-0.25 c 0.33,-1.75 -0.37,-3.65 -2.11,-5.26" style="fill:#1e1d33;fill-opacity:1;fill-rule:nonzero;stroke:none" id="path74"/>
      <path d="m 3176.12,3792.23 -144.83,-55.01 81.91,76.53 c 3.45,3.23 9.71,4.19 13.95,2.13 l 48.97,-23.65" style="fill:#252334;fill-opacity:1;fill-rule:nonzero;stroke:none" id="path76"/>
      <path d="m 3076.23,3700.48 -56.45,27.29 c -4.25,2.06 -4.91,6.34 -1.45,9.56 l 92.05,86.01 c 3.46,3.22 9.7,4.16 13.96,2.1 l 56.44,-27.29 c 4.25,-2.06 4.9,-6.33 1.46,-9.56 l -92.06,-86 c -3.45,-3.22 -9.7,-4.16 -13.95,-2.11" style="fill:#343054;fill-opacity:1;fill-rule:nonzero;stroke:none" id="path78"/>
      <path d="m 3088.19,3714.81 c -1.81,0 -3.59,0.35 -5.11,1.08 l -43.73,21.15 c -4.26,2.06 -4.91,6.33 -1.46,9.56 l 71.59,66.88 c 2.22,2.07 5.59,3.2 8.84,3.2 1.81,0 3.59,-0.35 5.12,-1.09 l 43.72,-21.14 c 4.26,-2.06 4.91,-6.34 1.45,-9.56 L 3097.02,3718 c -2.21,-2.07 -5.58,-3.19 -8.83,-3.19" style="fill:#4e4e8a;fill-opacity:1;fill-rule:nonzero;stroke:none" id="path80"/>
      <path d="m 3187.21,3784.31 -0.04,-0.02 -0.03,0.25 z" style="fill:#252334;fill-opacity:1;fill-rule:nonzero;stroke:none" id="path82"/>
      <path d="m 3081.91,3796.73 c 0,0 13.11,-2.04 14.45,-13.32 1.34,-11.27 -10.86,-6.78 -18.7,-4.31 -7.86,2.48 -14.92,0 -15.99,-1.28 -3.43,-4.04 -2.84,22.25 20.24,18.91" style="fill:#f49477;fill-opacity:1;fill-rule:nonzero;stroke:none" id="path84"/>
      <path d="m 3140.53,3735.51 c 0,0 20.57,33.82 36.35,52.29 10.5,12.3 15.86,-5.55 8.68,-18 -7.2,-12.44 -21.38,-37.79 -45.03,-34.29" style="fill:#f49477;fill-opacity:1;fill-rule:nonzero;stroke:none" id="path86"/>
      <path d="m 2181.89,3125.85 -45.6,293.97 -2.7,17.43 0.31,13.12 10.17,416.46 115.54,39.05 6.19,2.1 25.94,8.79 20.57,6.94 121.99,-16.79 19.86,-2.73 6.99,-0.96 87.28,-12.01 c 0.81,-276.09 -25.69,-335.73 25.32,-560.31 25.69,-84.71 -68.53,-384.71 -391.86,-205.06" style="fill:#3f77c4;fill-opacity:1;fill-rule:nonzero;stroke:none" id="path88"/>
      <path d="m 2246.85,3201.06 0.02,0.01 c 91.35,25.51 158,88.56 197.82,136.96 43.07,52.35 64.96,99.42 65.18,99.89 1.05,2.29 0.05,5 -2.24,6.05 -2.29,1.05 -5,0.05 -6.06,-2.23 -0.21,-0.46 -21.71,-46.65 -64.08,-98.1 -38.97,-47.32 -104.1,-108.94 -193.08,-133.78 -2.42,-0.68 -3.84,-3.19 -3.16,-5.62 0.67,-2.42 3.18,-3.84 5.6,-3.18" style="fill:#3a65b9;fill-opacity:1;fill-rule:nonzero;stroke:none" id="path90"/>
      <path d="m 2350.7,3196.15 c 79.37,21.79 146.11,88.74 149.13,91.81 1.77,1.8 1.75,4.69 -0.04,6.46 -1.8,1.77 -4.69,1.74 -6.46,-0.05 -0.78,-0.79 -79.31,-79.54 -164.23,-93.66 -2.53,-0.4 -4.17,-2.77 -3.75,-5.25 0.41,-2.49 2.76,-4.17 5.25,-3.76 6.77,1.13 13.48,2.63 20.1,4.45" style="fill:#3a65b9;fill-opacity:1;fill-rule:nonzero;stroke:none" id="path92"/>
      <path d="m 2294.53,3783.38 c 79.32,21.99 145.88,89.11 148.9,92.19 1.77,1.8 1.74,4.69 -0.06,6.45 -1.8,1.77 -4.69,1.73 -6.46,-0.06 -0.78,-0.79 -79.11,-79.74 -163.99,-94.07 -2.53,-0.41 -4.17,-2.78 -3.75,-5.26 0.42,-2.49 2.78,-4.17 5.26,-3.75 6.77,1.14 13.48,2.67 20.1,4.5" style="fill:#3a65b9;fill-opacity:1;fill-rule:nonzero;stroke:none" id="path94"/>
      <path d="m 2990.55,2365.02 31.94,-71.1 -65.5,-28.18 -38.1,73.44 71.66,25.84" style="fill:#f49477;fill-opacity:1;fill-rule:nonzero;stroke:none" id="path96"/>
      <path d="m 3008.18,2295.42 c 0,0 6.71,28.74 19.95,33.41 13.23,4.66 146.5,-30.92 183.25,-22.65 36.75,8.27 41.03,-19.56 40.38,-35.03 -0.67,-15.47 -272.63,-113.03 -272.63,-113.03 0,0 -41.52,75.51 -43.38,103.34 -1.84,27.82 48.4,16.71 72.43,33.96" style="fill:#3f77c4;fill-opacity:1;fill-rule:nonzero;stroke:none" id="path98"/>
      <path d="m 3086.83,2264.35 c -1.05,-0.89 -2.44,-1.36 -3.9,-1.21 -2.85,0.32 -4.9,2.87 -4.6,5.71 0.1,0.94 2.62,23.44 13.51,36.54 14.46,17.45 33.48,13.26 34.29,13.08 2.79,-0.65 4.52,-3.43 3.88,-6.21 -0.64,-2.8 -3.44,-4.54 -6.22,-3.88 -0.52,0.11 -13.67,2.79 -23.99,-9.61 -8.86,-10.67 -11.15,-30.83 -11.17,-31.04 -0.14,-1.37 -0.83,-2.56 -1.8,-3.38" style="fill:#ffffff;fill-opacity:1;fill-rule:nonzero;stroke:none" id="path100"/>
      <path d="m 3066.84,2271.54 c -1.04,-0.88 -2.44,-1.34 -3.9,-1.19 -2.84,0.3 -4.9,2.86 -4.6,5.7 0.1,0.96 2.63,23.46 13.51,36.56 14.47,17.46 33.48,13.26 34.29,13.07 2.79,-0.64 4.52,-3.42 3.87,-6.22 -0.63,-2.78 -3.43,-4.52 -6.21,-3.86 -0.53,0.1 -13.68,2.79 -23.99,-9.61 -8.9,-10.73 -11.15,-30.83 -11.17,-31.04 -0.14,-1.38 -0.82,-2.57 -1.8,-3.41" style="fill:#ffffff;fill-opacity:1;fill-rule:nonzero;stroke:none" id="path102"/>
      <path d="m 3110.74,2261.85 c -1.03,-0.89 -2.42,-1.36 -3.89,-1.21 -2.85,0.32 -4.91,2.87 -4.6,5.71 0.1,0.95 2.62,23.45 13.5,36.55 14.47,17.46 33.5,13.27 34.3,13.08 2.79,-0.65 4.52,-3.43 3.88,-6.21 -0.65,-2.79 -3.43,-4.54 -6.22,-3.88 -0.52,0.11 -13.69,2.79 -23.99,-9.61 -8.9,-10.71 -11.14,-30.83 -11.16,-31.04 -0.16,-1.37 -0.83,-2.56 -1.82,-3.39" style="fill:#ffffff;fill-opacity:1;fill-rule:nonzero;stroke:none" id="path104"/>
      <path d="m 3007.04,2351.23 c -6.79,-7.71 -27.75,-19.41 -50.6,-29.64 -4.15,-1.87 -8.39,-3.68 -12.59,-5.42 -7.42,-3.05 -14.79,-5.84 -21.71,-8.21 0,0 -155.38,286.4 -215.01,494.08 0,0 -525.95,64.94 -544.16,249.14 -0.63,6.16 -0.66,12.46 -0.08,18.93 1.55,17.56 7.63,36.1 19,55.72 12,20.67 192,0.52 289.26,-26.77 0,0 263.65,-102.71 361.13,-208.52 49.34,-53.55 174.76,-539.31 174.76,-539.31" style="fill:#343054;fill-opacity:1;fill-rule:nonzero;stroke:none" id="path106"/>
      <path d="m 2956.44,2321.59 c -4.15,-1.87 -8.39,-3.68 -12.59,-5.42 -78.59,130.05 -187.7,433.9 -212.02,506.83 -1.63,4.93 -5.86,8.62 -11.04,9.6 -255.53,48.04 -402.76,115.06 -481.29,162.82 -34.6,21.05 -59.3,40.25 -76.53,55.76 -0.63,6.16 -0.66,12.46 -0.08,18.93 16.71,-16.34 43.7,-38.86 85.25,-63.97 77.52,-46.87 222.87,-112.71 475.18,-160.15 10.04,-1.89 18.24,-9.06 21.46,-18.68 24.32,-72.99 133.87,-378.2 211.66,-505.72" style="fill:#1e1d33;fill-opacity:1;fill-rule:nonzero;stroke:none" id="path108"/>
      <path d="m 2894.08,2337.97 24.81,-39.68 c 0,0 61.79,10.67 103.6,52.94 l -15.45,35.45 c 0,0 -75.16,-37.05 -112.96,-48.71" style="fill:#4c4685;fill-opacity:1;fill-rule:nonzero;stroke:none" id="path110"/>
      <path d="m 2057,3017.12 c 0,0 35.8,-48.53 32.84,-73.64 -2.95,-25.12 -35.36,-72.44 -61.27,-74.72 -25.9,-2.28 29.77,60.81 16.63,58.77 -15.9,-2.46 -123.25,-90.53 -145.9,-90.53 -22.65,0 26.65,40.93 45.86,51.28 0,0 -50.78,-22.72 -62.61,-34.54 -11.81,-11.82 -20.4,13.53 38.7,49.48 0,0 -54.21,-30.76 -57.9,-31.26 -12.06,-1.6 22.34,38.72 51.96,53.31 0,0 -43.45,-21.16 -47.87,-21.25 -6.11,-0.13 7,14.09 39.24,31.96 29.02,16.08 76.55,89.92 76.55,89.92 l 73.77,-8.78" style="fill:#f49477;fill-opacity:1;fill-rule:nonzero;stroke:none" id="path112"/>
      <path d="m 2144.06,3866.82 c 0,0 -120.47,-231.39 -147.9,-473.42 l -12.93,-367.5 c 0,0 12.39,-26.19 73.77,-8.78 l 59.38,367.46 45.5,168.13 c 0,0 20.68,206.91 -17.82,314.11" style="fill:#3a65b9;fill-opacity:1;fill-rule:nonzero;stroke:none" id="path114"/>
      <path d="m 2514.06,4117.01 c -12.79,-72.4 -81.85,-120.71 -154.25,-107.91 -72.39,12.79 -120.7,81.86 -107.91,154.25 12.8,72.39 81.86,120.71 154.26,107.91 72.39,-12.8 120.71,-81.86 107.9,-154.25" style="fill:#343054;fill-opacity:1;fill-rule:nonzero;stroke:none" id="path116"/>
      <path d="m 2516.07,4140.89 c 0,0 38.94,3.68 40.41,40.58 1.25,31.4 -38.28,17.89 -30.87,41.29 7.4,23.41 18.29,43.95 -11.65,55.42 -26.2,10.04 -29.94,-8.47 -60.78,24.79 -36.44,39.29 -81.79,-28.76 -119.73,-24.34 -55.95,6.53 -68.48,-23.56 -78.36,-47.65 -9.87,-24.09 8.34,-45.43 8.34,-45.43 l 252.64,-44.66" style="fill:#343054;fill-opacity:1;fill-rule:nonzero;stroke:none" id="path118"/>
      <path d="m 2485.56,4084.22 c 0,0 25.66,24.01 37.05,-1.61 11.39,-25.62 -22.39,-89.38 -57.27,-66.19 l 20.22,67.8" style="fill:#f36156;fill-opacity:1;fill-rule:nonzero;stroke:none" id="path120"/>
      <path d="m 2477.29,4035.86 c 1.39,-0.25 2.84,0.44 3.48,1.78 9.55,19.84 32.68,24.49 32.9,24.53 1.76,0.33 2.92,2.03 2.58,3.79 -0.33,1.76 -2.02,2.92 -3.78,2.59 -1.08,-0.21 -26.55,-5.25 -37.54,-28.09 -0.78,-1.62 -0.1,-3.56 1.52,-4.33 l 0.84,-0.27" style="fill:#f04147;fill-opacity:1;fill-rule:nonzero;stroke:none" id="path122"/>
      <path d="m 2500.98,4042.52 1.81,0.19 c 1.65,0.7 2.43,2.6 1.74,4.25 -0.12,0.27 -2.91,6.79 -10.28,11.79 -1.48,1 -3.5,0.61 -4.51,-0.87 -1,-1.49 -0.61,-3.49 0.87,-4.5 5.7,-3.87 7.92,-8.88 7.93,-8.93 0.45,-1.05 1.39,-1.75 2.44,-1.93" style="fill:#f04147;fill-opacity:1;fill-rule:nonzero;stroke:none" id="path124"/>
      <path d="m 2312.59,3984.28 -11.88,-67.24 c 0,0 22.41,-34.52 49.11,-41.64 26.67,-7.16 48.84,22.11 48.84,22.11 l 11.43,64.66 -97.5,22.11" style="fill:#f49477;fill-opacity:1;fill-rule:nonzero;stroke:none" id="path126"/>
      <path d="m 2312.59,3984.28 -5.27,-29.83 c 14.62,-23.41 46.05,-34.17 95.12,-35.56 l 7.65,43.28 -97.5,22.11" style="fill:#f36156;fill-opacity:1;fill-rule:nonzero;stroke:none" id="path128"/>
      <path d="m 2272.23,4169.5 c -3.38,-26.35 -6.66,-59.47 -6.3,-86.48 0.1,-6.73 0.42,-13.12 1.01,-18.89 5.39,-52.04 25.77,-143.27 131.11,-125.39 46.53,7.88 75.43,53.04 93.23,101.02 12.08,32.58 19.02,66.44 22.88,90.83 3.91,24.9 -5.63,49.98 -25.06,66.03 -52.63,43.49 -116.53,42.04 -159.92,33.61 -30.12,-5.85 -53.07,-30.35 -56.95,-60.73" style="fill:#f49477;fill-opacity:1;fill-rule:nonzero;stroke:none" id="path130"/>
      <path d="m 2434.2,4084.25 c -1.27,-7.18 1.4,-13.65 5.96,-14.46 4.57,-0.81 9.29,4.36 10.56,11.54 1.27,7.18 -1.4,13.65 -5.96,14.46 -4.56,0.8 -9.3,-4.36 -10.56,-11.54" style="fill:#343054;fill-opacity:1;fill-rule:nonzero;stroke:none" id="path132"/>
      <path d="m 2337.44,4101.35 c -1.27,-7.17 1.4,-13.64 5.97,-14.46 4.56,-0.8 9.29,4.36 10.55,11.54 1.27,7.18 -1.4,13.65 -5.96,14.46 -4.56,0.81 -9.29,-4.36 -10.56,-11.54" style="fill:#343054;fill-opacity:1;fill-rule:nonzero;stroke:none" id="path134"/>
      <path d="m 2476.39,4117.95 c 0,0 -31.99,19.67 -60.5,12.91 l 0.04,-12.68 c 0,0 29.82,1.33 56.05,-14.11 2.75,5.36 5.62,7.65 4.41,13.88" style="fill:#343054;fill-opacity:1;fill-rule:nonzero;stroke:none" id="path136"/>
      <path d="m 2319,4145.77 c 0,0 36.8,7.51 61.26,-8.61 l -4.39,-11.9 c 0,0 -27.54,11.47 -57.48,5.96 -0.75,5.98 -2.65,9.12 0.61,14.55" style="fill:#343054;fill-opacity:1;fill-rule:nonzero;stroke:none" id="path138"/>
      <path d="m 2379.38,4041.2 c -5.39,0.95 -10.36,4 -11.13,4.48 -1.51,0.96 -1.97,2.96 -1.01,4.47 0.95,1.52 2.96,1.98 4.47,1.02 2.68,-1.68 9.28,-4.74 12.6,-3.48 0.64,0.25 1.55,0.79 2.1,2.7 3.12,10.95 6.68,48.88 6.72,49.26 0.16,1.79 1.74,3.1 3.52,2.93 1.79,-0.16 3.1,-1.74 2.93,-3.53 -0.15,-1.59 -3.65,-38.92 -6.93,-50.44 -1.24,-4.34 -3.96,-6.19 -6.03,-6.98 -2.26,-0.86 -4.79,-0.86 -7.24,-0.43" style="fill:#f36156;fill-opacity:1;fill-rule:nonzero;stroke:none" id="path140"/>
      <path d="m 2416.11,4014.55 c -4.93,-12.67 -17.88,-35.3 -47.11,-30.14 -29.3,5.18 -33.61,28.72 -33.75,44.44 l 80.86,-14.3" style="fill:#ffffff;fill-opacity:1;fill-rule:nonzero;stroke:none" id="path142"/>
      <path d="m 2366.45,3967.67 c -8.27,1.46 -14.54,6.89 -14.8,7.12 -1.35,1.18 -1.49,3.23 -0.31,4.58 1.18,1.34 3.24,1.48 4.58,0.3 0.05,-0.05 5.21,-4.47 11.66,-5.61 5.91,-1.05 12.17,1.35 12.22,1.36 1.67,0.67 3.55,-0.14 4.22,-1.81 0.66,-1.66 -0.15,-3.55 -1.82,-4.21 -0.32,-0.13 -7.95,-3.11 -15.75,-1.73" style="fill:#f36156;fill-opacity:1;fill-rule:nonzero;stroke:none" id="path144"/>
      <path d="m 2485.08,4062.33 c 4.74,12.74 10.13,29.33 9.93,38.35 -0.38,15.97 -11.55,27.3 -4.66,41.41 6.9,14.18 -6,32.95 -17.12,37.64 -11.09,4.73 -39.15,3.75 -63.54,21.09 -23.28,16.58 -68.98,15.75 -79.06,0.72 -12.21,-18.22 -0.68,-22.17 -28.23,-39.32 -10.97,-6.84 -3.65,-30.93 -4.58,-45.59 -0.45,-6.75 -0.92,-9.99 -2.43,-17.05 l -0.74,-3.59 -28.45,5.03 c 0.81,22.85 3.36,47.75 6.02,68.49 3.88,30.38 26.85,54.86 56.96,60.71 43.4,8.44 107.28,9.91 159.93,-33.6 19.42,-16.07 28.97,-41.13 25.04,-66.03 -3.05,-19.34 -8.05,-44.65 -16.03,-70.57 l -13.04,2.31" style="fill:#343054;fill-opacity:1;fill-rule:nonzero;stroke:none" id="path146"/>
      <path d="m 2276.64,4086.5 c 1.4,7.42 2.19,14.96 2.19,22.52 -0.01,10.33 -1.31,19.94 -10.83,25.93 -7.65,4.82 -16.45,6.44 -24.37,-1.75 -19.48,-20.16 -14.88,-94.44 25.84,-84.61 l 7.17,37.91" style="fill:#f49477;fill-opacity:1;fill-rule:nonzero;stroke:none" id="path148"/>
      <path d="m 2265.83,4070.62 c -1.32,0.52 -2.19,1.86 -2.05,3.34 2.16,21.92 -15.17,37.9 -15.35,38.06 -1.32,1.2 -1.43,3.25 -0.23,4.58 1.2,1.33 3.26,1.44 4.58,0.24 0.81,-0.73 19.95,-18.28 17.46,-43.52 -0.18,-1.78 -1.76,-3.07 -3.55,-2.9 l -0.86,0.2" style="fill:#f36156;fill-opacity:1;fill-rule:nonzero;stroke:none" id="path150"/>
      <path d="m 2249.06,4088.63 -1.45,1.12 c -1.05,1.45 -0.72,3.48 0.73,4.53 0.24,0.17 6.02,4.28 14.91,4.72 1.78,0.09 3.31,-1.29 3.4,-3.09 0.08,-1.78 -1.3,-3.31 -3.09,-3.39 -6.88,-0.34 -11.38,-3.47 -11.42,-3.5 -0.92,-0.67 -2.09,-0.78 -3.08,-0.39" style="fill:#f36156;fill-opacity:1;fill-rule:nonzero;stroke:none" id="path152"/>
      <path d="m 3779.18,2549.43 c 0,0 -43.82,-83.11 -95.4,-148.95 -15.23,-19.42 -31.1,-37.34 -46.77,-51.16 -25.36,-22.44 -50.1,-34.17 -70.24,-24.22 -74.72,36.9 -241.28,330.59 -241.28,330.59 l 41.01,47.67 c 0,0 74.14,-83.87 128.35,-134.07 50.01,-46.29 88.45,-80.89 88.45,-80.89 6.92,10.33 14.3,21.63 21.96,33.6 8.16,12.71 16.62,26.15 25.23,39.99 62.43,100.42 137.61,210.26 137.61,210.26 l 11.08,-222.82" style="fill:#f49477;fill-opacity:1;fill-rule:nonzero;stroke:none" id="path154"/>
      <path d="m 3377.38,2674.52 c 0,0 16.91,27.77 10.37,52.63 -6.53,24.86 -12.89,81.06 -40.05,79.53 -9.92,-0.55 4.57,-24.03 -2.08,-45.78 0,0 -29.09,14.01 -48.56,28.4 -17.12,12.65 -52.58,33.2 -69.07,42.59 -4.52,2.57 -9.75,-2.36 -7.13,-6.79 4.23,-7.17 14.58,-17.87 38.49,-32.84 0,0 -59.41,33.27 -69.36,25.96 -9.96,-7.31 65.1,-47.57 65.1,-47.57 0,0 -60.61,24.5 -65.57,15.53 -3.02,-5.46 56.42,-40.37 56.42,-40.37 0,0 -59.04,18.22 -48.08,4.4 3.19,-4.03 115.34,-54.78 138.71,-113.71 0,0 32.68,17.9 40.81,38.02" style="fill:#f49477;fill-opacity:1;fill-rule:nonzero;stroke:none" id="path156"/>
      <path d="m 3683.78,2400.48 c -15.23,-19.42 -31.1,-37.34 -46.77,-51.16 L 3605.26,2522 c 8.16,12.71 16.62,26.15 25.23,39.99 l 53.29,-161.51" style="fill:#f36156;fill-opacity:1;fill-rule:nonzero;stroke:none" id="path158"/>
      <path d="m 3770.36,2779.99 -157.91,-227.75 50.26,-202.92 123.9,197.66 c 0,0 23.2,132.25 -16.25,233.01" style="fill:#3f77c4;fill-opacity:1;fill-rule:nonzero;stroke:none" id="path160"/>
      <path d="m 3851.4,831.27 v -71.899 l 67.12,1.059 4.38,76.191 -71.5,-5.351" style="fill:#f49477;fill-opacity:1;fill-rule:nonzero;stroke:none" id="path162"/>
      <path d="m 4021.81,1881.76 c -0.47,-8.54 -2.79,-49.57 -6.31,-106.78 -9.46,-157.17 -27.15,-436.45 -37.53,-499.2 -10.66,-64.37 -5.84,-275.47 -2.41,-385.971 0.55,-18.789 -6.77,-35.86 -19,-48.387 -4.54,-4.633 -9.82,-8.633 -15.57,-11.902 -10,-5.54 -21.5,-8.719 -33.73,-8.719 h -51.16 c -38.55,0 -69.51,31.238 -68.3,69.008 2.87,93.429 6.39,263.851 -0.28,395.511 -6.4,125.3 2.87,347.02 10.01,485.22 h 0.09 c 2.88,55.2 5.38,96.97 6.39,114.03 l 217.8,-2.81" style="fill:#343054;fill-opacity:1;fill-rule:nonzero;stroke:none" id="path164"/>
      <path d="m 3804.01,1884.57 217.8,-2.81 c -0.47,-8.54 -2.79,-49.57 -6.31,-106.78 -73.96,-8.9 -150.97,-12.62 -217.88,-4.44 2.88,55.2 5.38,96.97 6.39,114.03" style="fill:#1e1d33;fill-opacity:1;fill-rule:nonzero;stroke:none" id="path166"/>
      <path d="m 3955.72,1086.88 c 1.91,-70.67 3.89,-143.732 2.59,-202.63 -0.36,-16.531 -0.95,-30.668 -1.73,-42.789 -4.55,-4.691 -9.82,-8.723 -15.63,-11.922 1.25,14.063 2.22,32.063 2.73,55.02 1.27,58.562 -0.7,131.441 -2.61,201.941 -2.34,86.15 -4.54,167.53 0.25,202.18 10.45,75.81 33.82,486.79 39.95,596.51 l 14.65,-0.65 c -6.13,-109.65 -29.57,-521.46 -40.1,-597.77 -4.62,-33.5 -2.41,-114.34 -0.1,-199.89" style="fill:#1e1d33;fill-opacity:1;fill-rule:nonzero;stroke:none" id="path168"/>
      <path d="m 3868.6,762.059 c 0,0 -13.89,19.152 -25.29,18.589 -11.39,-0.546 -100.65,-67.007 -130.84,-72 -30.18,-5 -24.83,-26.796 -19.58,-38.007 5.26,-11.2 239.87,-0.981 239.87,-0.981 0,0 7.97,68.172 0.78,89.242 -7.17,21.047 -41.54,-2.293 -64.94,3.157" style="fill:#3f77c4;fill-opacity:1;fill-rule:nonzero;stroke:none" id="path170"/>
      <path d="m 3819.04,715.422 c 1.06,-0.34 2.25,-0.262 3.29,0.289 2.05,1.09 2.82,3.59 1.71,5.59 -0.37,0.668 -9.2,16.488 -21.42,22.859 -16.25,8.492 -29.28,-0.34 -29.83,-0.719 -1.89,-1.32 -2.34,-3.902 -0.99,-5.75 1.33,-1.859 3.97,-2.3 5.87,-0.98 0.36,0.23 9.42,6.18 20.99,0.16 9.96,-5.191 17.89,-19.351 17.97,-19.5 0.54,-0.961 1.42,-1.641 2.41,-1.949" style="fill:#ffffff;fill-opacity:1;fill-rule:nonzero;stroke:none" id="path172"/>
      <path d="m 3831.85,726.762 c 1.05,-0.332 2.24,-0.274 3.3,0.297 2.05,1.082 2.81,3.582 1.71,5.593 -0.38,0.668 -9.2,16.489 -21.43,22.86 -16.26,8.476 -29.28,-0.34 -29.82,-0.723 -1.9,-1.32 -2.35,-3.898 -1,-5.758 1.35,-1.851 3.97,-2.289 5.87,-0.972 0.36,0.23 9.42,6.191 20.99,0.16 10,-5.207 17.9,-19.348 17.97,-19.5 0.54,-0.969 1.42,-1.637 2.41,-1.957" style="fill:#ffffff;fill-opacity:1;fill-rule:nonzero;stroke:none" id="path174"/>
      <path d="m 3801.82,706.359 c 1.05,-0.339 2.24,-0.269 3.3,0.289 2.04,1.082 2.8,3.582 1.7,5.602 -0.37,0.66 -9.2,16.48 -21.42,22.852 -16.27,8.488 -29.28,-0.332 -29.82,-0.723 -1.91,-1.309 -2.35,-3.887 -1.01,-5.75 1.35,-1.859 3.97,-2.297 5.88,-0.969 0.35,0.231 9.42,6.18 21,0.149 10,-5.2 17.88,-19.348 17.95,-19.489 0.54,-0.98 1.42,-1.648 2.42,-1.961" style="fill:#ffffff;fill-opacity:1;fill-rule:nonzero;stroke:none" id="path176"/>
      <path d="m 4178.29,831.27 7.23,-71.778 59.89,0.938 4.38,76.191 -71.5,-5.351" style="fill:#f49477;fill-opacity:1;fill-rule:nonzero;stroke:none" id="path178"/>
      <path d="m 4301.59,1285.32 c -6.67,-131.66 -3.15,-302.082 -0.28,-395.511 1.11,-37.77 -29.75,-69.008 -68.3,-69.008 h -51.15 c -11.31,0 -22.07,2.73 -31.42,7.449 -5.65,2.898 -10.94,6.539 -15.48,10.898 -13.72,12.622 -22.06,30.684 -21.41,50.661 3.43,110.501 8.25,321.601 -2.41,385.971 -10.56,63.84 -28.73,351.66 -38.08,507.2 -3.07,51.93 -5.2,89.06 -5.76,98.23 l 218.17,-2.81 c 0.64,-11.08 1.66,-28.15 2.87,-49.76 7.04,-124.38 20.66,-398.32 13.25,-543.32" style="fill:#343054;fill-opacity:1;fill-rule:nonzero;stroke:none" id="path180"/>
      <path d="m 4288.34,1828.64 c -41.05,-10.98 -122.52,-31.14 -215.28,-45.66 -3.07,51.93 -5.2,89.06 -5.76,98.23 l 218.17,-2.81 c 0.64,-11.08 1.66,-28.15 2.87,-49.76" style="fill:#1e1d33;fill-opacity:1;fill-rule:nonzero;stroke:none" id="path182"/>
      <path d="m 4147.66,884.559 c 0.5,-23.661 1.53,-42.028 2.8,-56.27 -5.68,2.871 -10.92,6.512 -15.53,10.82 -0.88,12.633 -1.54,27.532 -1.93,45.141 -1.27,58.898 0.71,131.96 2.62,202.63 2.31,85.55 4.49,166.39 -0.13,199.89 -10.52,76.34 -33.97,488.37 -40.07,597.86 l 14.63,0.65 c 6.12,-109.57 29.49,-520.77 39.97,-596.6 4.78,-34.65 2.57,-116.03 0.24,-202.18 -1.9,-70.5 -3.87,-143.379 -2.6,-201.941" style="fill:#1e1d33;fill-opacity:1;fill-rule:nonzero;stroke:none" id="path184"/>
      <path d="m 4208.87,770.531 c 0,0 30.54,7.981 38.98,7.821 8.45,-0.172 65.02,-62.141 84.07,-65.793 34.54,-6.618 34.59,-59.457 13.57,-62.09 -60.8,-7.598 -164.82,17.57 -164.82,17.57 0,0 -9.58,67.813 -5.42,89.09 4.16,21.281 16.63,7.141 33.62,13.402" style="fill:#3f77c4;fill-opacity:1;fill-rule:nonzero;stroke:none" id="path186"/>
      <path d="m 4259.22,712.652 c -1.09,-0.242 -2.27,-0.05 -3.26,0.59 -1.94,1.278 -2.44,3.84 -1.16,5.727 0.44,0.633 10.78,15.551 23.56,20.75 17,6.922 29.11,-3.078 29.62,-3.508 1.76,-1.492 1.95,-4.102 0.43,-5.82 -1.52,-1.731 -4.18,-1.911 -5.94,-0.422 -0.33,0.261 -8.77,7.031 -20.89,2.121 -10.41,-4.231 -19.69,-17.59 -19.78,-17.719 -0.63,-0.922 -1.57,-1.512 -2.58,-1.719" style="fill:#ffffff;fill-opacity:1;fill-rule:nonzero;stroke:none" id="path188"/>
      <path d="m 4247.57,725.141 c -1.09,-0.243 -2.26,-0.051 -3.25,0.601 -1.94,1.27 -2.45,3.828 -1.16,5.719 0.43,0.641 10.77,15.559 23.55,20.75 17.02,6.93 29.11,-3.07 29.62,-3.512 1.76,-1.48 1.95,-4.09 0.43,-5.808 -1.52,-1.731 -4.18,-1.922 -5.94,-0.43 -0.33,0.269 -8.78,7.039 -20.88,2.129 -10.46,-4.25 -19.69,-17.59 -19.78,-17.719 -0.63,-0.922 -1.58,-1.519 -2.59,-1.73" style="fill:#ffffff;fill-opacity:1;fill-rule:nonzero;stroke:none" id="path190"/>
      <path d="m 4275.48,702.012 c -1.09,-0.231 -2.27,-0.051 -3.26,0.609 -1.93,1.27 -2.44,3.828 -1.15,5.719 0.43,0.629 10.77,15.562 23.55,20.75 17.02,6.941 29.11,-3.07 29.62,-3.5 1.76,-1.5 1.95,-4.11 0.43,-5.82 -1.52,-1.731 -4.18,-1.918 -5.94,-0.43 -0.33,0.269 -8.78,7.039 -20.89,2.121 -10.46,-4.242 -19.69,-17.582 -19.77,-17.723 -0.64,-0.918 -1.58,-1.496 -2.59,-1.726" style="fill:#ffffff;fill-opacity:1;fill-rule:nonzero;stroke:none" id="path192"/>
      <path d="m 4334.98,1859.72 c -197.04,-48.59 -393.85,-48.72 -590.45,0 -1.03,71.96 -2.07,359.72 3.6,595.9 0.1,4.65 0.23,9.27 0.35,13.87 0.04,2.29 0.11,4.57 0.17,6.81 v 0.37 c 0.08,2.95 0.14,5.85 0.25,8.76 4.2,155.76 11.54,282.96 24.1,299.95 l 0.02,0.02 c 29.34,39.49 176.77,102.56 217.57,130.73 3.4,-5.36 23.46,-35.15 49.76,-37.35 28.87,-2.5 54.53,30.78 54.53,30.78 v 6.29 c 40.97,-28.14 174.54,-86.51 203.85,-125.89 32.05,-43.16 37.61,-807.63 36.25,-930.24" style="fill:#3f77c4;fill-opacity:1;fill-rule:nonzero;stroke:none" id="path194"/>
      <path d="m 3808.19,2566.51 c -16.91,-22.41 -41.62,-73.18 -52.71,-96.65 -1.52,-3.21 -2.77,-5.92 -3.72,-7.98 -1.25,-2.68 -1.96,-4.24 -2.01,-4.36 l -1.62,-1.9 c 0.1,4.65 0.23,9.27 0.35,13.87 0.04,2.29 0.11,4.57 0.17,6.81 v 0.37 c 2.27,4.79 4.96,10.4 7.96,16.56 12.61,25.76 30.61,60.5 44.24,78.58 1.49,1.99 4.36,2.4 6.39,0.94 2.03,-1.47 2.43,-4.27 0.95,-6.24" style="fill:#3a65b9;fill-opacity:1;fill-rule:nonzero;stroke:none" id="path196"/>
      <path d="m 4185.49,2740.34 h -0.15 c -78.29,2.44 -138.7,34.36 -175.59,60.7 -39.96,28.53 -61.16,56.12 -62.04,57.29 -1.5,1.97 -1.08,4.78 0.93,6.25 2.03,1.47 4.89,1.06 6.39,-0.91 0.84,-1.1 85.32,-109.86 230.6,-114.39 2.52,-0.08 4.5,-2.15 4.42,-4.61 -0.08,-2.42 -2.11,-4.33 -4.56,-4.33" style="fill:#3a65b9;fill-opacity:1;fill-rule:nonzero;stroke:none" id="path198"/>
      <path d="m 3921.72,2009.86 c -2.38,0 -4.4,1.82 -4.55,4.18 -0.17,2.47 1.74,4.59 4.26,4.76 128.45,8.25 205.08,72.03 246.74,124.07 45.3,56.59 60.33,112.01 60.47,112.57 0.64,2.38 3.12,3.83 5.56,3.2 2.44,-0.61 3.91,-3.05 3.28,-5.45 -0.61,-2.31 -15.54,-57.51 -61.89,-115.54 -42.83,-53.61 -121.57,-119.3 -253.57,-127.78 l -0.3,-0.01" style="fill:#3a65b9;fill-opacity:1;fill-rule:nonzero;stroke:none" id="path200"/>
      <path d="m 3990.69,2089.79 c -2.01,0 -3.85,1.3 -4.4,3.31 -0.66,2.37 0.78,4.83 3.21,5.47 111.63,29.56 133.18,120.9 133.38,121.82 0.53,2.41 2.97,3.96 5.42,3.42 2.46,-0.52 4.02,-2.89 3.5,-5.3 -0.22,-1.01 -5.63,-24.84 -25.61,-52.72 -18.39,-25.66 -53.15,-59.65 -114.31,-75.85 l -1.19,-0.15" style="fill:#3a65b9;fill-opacity:1;fill-rule:nonzero;stroke:none" id="path202"/>
      <path d="m 4479.57,1867.63 c -2.8,-39.14 -26.79,-68.22 -26.9,-93.98 -0.13,-25.79 -30.5,-8.92 -16.44,41.98 14.04,50.89 -6.79,100.15 -17.92,99.69 -11.14,-0.48 3.54,-57.36 -8.16,-76.26 -11.69,-18.87 -20.53,20.78 -30.79,45.33 -10.65,25.48 -4.69,78.32 4.96,115.55 9.64,37.2 -37.71,273.25 -31.51,339.77 l -17.09,86.29 -9.99,50.33 -1.86,52.54 91.27,35.43 c 3.43,-16.87 6.95,-34.36 10.45,-51.94 1.53,-7.76 3.04,-15.53 4.54,-23.28 12.2,-62.92 23.17,-124.85 27.63,-164.59 12.34,-109.91 -7.91,-334.07 -7.91,-334.07 0,0 32.36,-86.1 29.72,-122.79" style="fill:#f49477;fill-opacity:1;fill-rule:nonzero;stroke:none" id="path204"/>
      <path d="m 4430.13,2489.08 c -20.59,-23.04 -53.48,-52.37 -94.41,-63.08 l -9.99,50.33 -1.86,52.54 91.27,35.43 c 3.43,-16.87 6.95,-34.36 10.45,-51.94 1.53,-7.76 3.04,-15.53 4.54,-23.28" style="fill:#f36156;fill-opacity:1;fill-rule:nonzero;stroke:none" id="path206"/>
      <path d="m 4455.47,2538.9 c 0,0 -10.89,-12.65 -29.89,-26.53 -23,-16.9 -57.94,-35.68 -99.74,-36.04 -5.05,145.62 -12.48,268.67 -23.3,304.79 19.26,-23.29 111.74,-137.98 152.93,-242.22" style="fill:#3f77c4;fill-opacity:1;fill-rule:nonzero;stroke:none" id="path208"/>
      <path d="m 4263.2,2581.13 c 16.91,-22.4 41.62,-73.17 52.71,-96.64 1.51,-3.22 2.76,-5.93 3.72,-7.98 1.26,-2.68 1.96,-4.24 2.01,-4.36 0.75,-1.68 2.42,-2.66 4.18,-2.66 h 0.09 c -0.05,2.28 -0.12,4.56 -0.19,6.82 1.35,0 2.7,0 4,0.05 -0.62,1.32 -2.1,4.53 -4.22,9.07 -2.68,5.7 -6.37,13.53 -10.72,22.42 -12.6,25.78 -30.61,60.52 -44.23,78.58 -1.51,1.99 -4.36,2.41 -6.39,0.94 -2.03,-1.45 -2.44,-4.27 -0.96,-6.24" style="fill:#3a65b9;fill-opacity:1;fill-rule:nonzero;stroke:none" id="path210"/>
      <path d="m 4180.69,3150 c 0,-78.87 -49.56,-133.23 -130.06,-133.23 -80.52,0 -136.63,58.44 -136.63,137.32 0,78.88 47.67,138.64 128.19,138.64 96.55,0 138.5,-63.85 138.5,-142.73" style="fill:#343054;fill-opacity:1;fill-rule:nonzero;stroke:none" id="path212"/>
      <path d="m 4162.61,3116.04 c 0,0 22.37,29.22 39,5.06 16.63,-24.16 -6.88,-95.53 -47.61,-78.11 l 8.61,73.05" style="fill:#f36156;fill-opacity:1;fill-rule:nonzero;stroke:none" id="path214"/>
      <path d="m 4162.9,3065.05 c 1.5,0 2.88,0.97 3.31,2.46 6.31,22.03 29.61,30.96 29.84,31.05 1.77,0.66 2.67,2.61 2,4.35 -0.68,1.74 -2.66,2.62 -4.44,1.96 -1.08,-0.41 -26.75,-10.17 -34.03,-35.54 -0.51,-1.79 0.56,-3.65 2.38,-4.15 l 0.94,-0.13" style="fill:#f04147;fill-opacity:1;fill-rule:nonzero;stroke:none" id="path216"/>
      <path d="m 4186.42,3076.15 1.85,0.53 c 1.6,1.01 2.06,3.1 1.04,4.66 -0.18,0.26 -4.3,6.42 -12.92,10.2 -1.72,0.77 -3.77,0 -4.54,-1.7 -0.79,-1.7 0,-3.69 1.73,-4.45 6.66,-2.92 9.91,-7.65 9.94,-7.7 0.66,-1 1.76,-1.54 2.9,-1.54" style="fill:#f04147;fill-opacity:1;fill-rule:nonzero;stroke:none" id="path218"/>
      <path d="m 3932.09,3116.04 c 0,0 -22.37,29.22 -39,5.06 -16.63,-24.16 6.88,-95.53 47.6,-78.11 l -8.6,73.05" style="fill:#f36156;fill-opacity:1;fill-rule:nonzero;stroke:none" id="path220"/>
      <path d="m 3931.8,3065.05 c -1.51,0 -2.88,0.97 -3.31,2.46 -6.31,22.03 -29.61,30.96 -29.85,31.05 -1.76,0.66 -2.66,2.61 -1.99,4.35 0.67,1.74 2.66,2.62 4.43,1.96 1.09,-0.41 26.76,-10.17 34.04,-35.54 0.51,-1.79 -0.56,-3.65 -2.39,-4.15 l -0.93,-0.13" style="fill:#f04147;fill-opacity:1;fill-rule:nonzero;stroke:none" id="path222"/>
      <path d="m 3908.28,3076.15 -1.85,0.53 c -1.61,1.01 -2.06,3.1 -1.04,4.66 0.18,0.26 4.3,6.42 12.92,10.2 1.73,0.77 3.77,0 4.54,-1.7 0.78,-1.7 0,-3.69 -1.73,-4.45 -6.67,-2.92 -9.91,-7.65 -9.94,-7.7 -0.66,-1 -1.77,-1.54 -2.9,-1.54" style="fill:#f04147;fill-opacity:1;fill-rule:nonzero;stroke:none" id="path224"/>
      <path d="m 3992.29,2982.46 v -70.97 c 0,0 21.6,-36.14 50.82,-38.6 29.18,-2.49 55.11,31.12 55.11,31.12 v 73.47 l -105.93,4.98" style="fill:#f49477;fill-opacity:1;fill-rule:nonzero;stroke:none" id="path226"/>
      <path d="m 3992.29,2982.46 v -31.49 c 19.6,-21.31 54.42,-26.63 105.93,-19.18 v 45.69 l -105.93,4.98" style="fill:#f36156;fill-opacity:1;fill-rule:nonzero;stroke:none" id="path228"/>
      <path d="m 4174.57,3118.3 c -1.09,-15.04 -2.9,-30.92 -5.88,-46.73 -9.71,-52.31 -31.58,-103.76 -78.73,-120.27 -106.73,-37.34 -144.87,52.35 -160.13,104.63 -1.67,5.8 -3.17,12.26 -4.51,19.16 -2.42,12.46 -4.3,26.36 -5.77,40.36 -1.75,16.98 -2.91,34.16 -3.62,49.27 -1.57,31.82 17.87,61.02 48.26,72.48 43.76,16.48 110.25,29.5 173.26,-5.5 23.28,-12.89 37.87,-36.84 38.39,-63.03 0.27,-14.24 0.07,-31.62 -1.27,-50.37" style="fill:#f49477;fill-opacity:1;fill-rule:nonzero;stroke:none" id="path230"/>
      <path d="m 4103.95,3004.89 v -0.03 h -0.03 c -4.72,-4.43 -9.54,-8.14 -14.33,-10.66 -27.04,-14.33 -29.98,-12.15 -40.64,-12.62 -10.88,-0.5 -25.85,2.64 -41.07,10.95 -4.72,2.62 -11.79,7.64 -19.52,14.57 0,0 -10.97,36.74 58.7,27.53 69.84,11.76 58.05,-22.57 56.89,-29.74 z m 57.4,110.56 c -3.6,-6.43 -23.6,-66.89 -29.16,-75.36 -12.62,27.2 -73.51,7.43 -73.51,7.43 -3.83,-1.2 -7.79,-1.84 -11.79,-1.84 -3.86,0 -7.73,0.61 -11.45,1.75 l -0.31,0.09 c 0,0 -61.6,18.93 -73.74,-9.57 -5.64,8.44 -23.01,67.75 -26.25,77.5 h -15.59 c 1.47,-14 3.35,-27.9 5.77,-40.36 1.34,-6.9 2.84,-13.36 4.51,-19.16 15.26,-52.28 53.4,-141.97 160.13,-104.63 47.15,16.51 69.02,67.96 78.73,120.27 2.98,15.81 4.79,31.69 5.88,46.73 l -13.22,-2.85" style="fill:#343054;fill-opacity:1;fill-rule:nonzero;stroke:none" id="path232"/>
      <path d="m 4093.13,3106.78 c 0,-7.58 3.98,-13.72 8.89,-13.72 4.92,0 8.91,6.14 8.91,13.72 0,7.58 -3.99,13.72 -8.91,13.72 -4.91,0 -8.89,-6.14 -8.89,-13.72" style="fill:#343054;fill-opacity:1;fill-rule:nonzero;stroke:none" id="path234"/>
      <path d="m 3988.2,3107.06 c 0,-7.57 3.99,-13.72 8.91,-13.72 4.91,0 8.9,6.15 8.9,13.72 0,7.58 -3.99,13.72 -8.9,13.72 -4.92,0 -8.91,-6.14 -8.91,-13.72" style="fill:#343054;fill-opacity:1;fill-rule:nonzero;stroke:none" id="path236"/>
      <path d="m 4137.32,3145.52 c 0,0 -34.1,13.2 -60.36,2.09 l 2.63,-14.31 c 0,0 38.54,3.19 57.96,-4.52 1.74,5.51 1.99,11.08 -0.23,16.74" style="fill:#343054;fill-opacity:1;fill-rule:nonzero;stroke:none" id="path238"/>
      <path d="m 3967.72,3145.52 c 0,0 34.11,13.2 60.37,2.09 l -2.63,-14.31 c 0,0 -38.55,3.19 -57.96,-4.52 -1.74,5.51 -1.99,11.08 0.22,16.74" style="fill:#343054;fill-opacity:1;fill-rule:nonzero;stroke:none" id="path240"/>
      <path d="m 4046.15,3053.69 c -5.8,0 -11.56,2.21 -12.45,2.57 -1.76,0.7 -2.61,2.67 -1.88,4.39 0.71,1.73 2.72,2.55 4.48,1.85 3.1,-1.24 10.57,-3.17 13.8,-1.27 0.62,0.36 1.48,1.08 1.7,3.14 1.24,11.77 -2.05,51.23 -2.08,51.63 -0.16,1.85 1.25,3.48 3.14,3.63 1.91,0.16 3.56,-1.22 3.71,-3.08 0.14,-1.65 3.38,-40.49 2.07,-52.88 -0.5,-4.67 -3,-7.05 -5.01,-8.24 -2.19,-1.28 -4.84,-1.74 -7.48,-1.74" style="fill:#f36156;fill-opacity:1;fill-rule:nonzero;stroke:none" id="path242"/>
      <path d="m 4093.13,3028.98 c -2.82,-13.86 -12.16,-39.37 -43.66,-39.37 -31.57,0 -40.42,23.31 -43.46,39.37 h 87.12" style="fill:#ffffff;fill-opacity:1;fill-rule:nonzero;stroke:none" id="path244"/>
      <path d="m 3919.55,3115.44 h 15.6 c -1.72,15.35 -4.19,42.37 8.67,46.23 40.63,12.23 -12.03,40.37 6.32,54.39 18.34,14.06 63.99,8.04 95.74,9.05 31.94,1.01 83.29,0.57 95.75,-2.26 12.49,-2.8 5.65,-23.12 1.07,-38.87 -4.61,-15.71 15.31,-33.11 18.65,-49.4 0.95,-4.67 0.76,-11.61 -0.01,-19.14 h 13.01 c 1.54,19.82 1.76,38.28 1.48,53.23 -0.51,26.2 -15.1,50.14 -38.37,63.05 -63.01,34.99 -129.49,21.95 -173.26,5.46 -30.39,-11.43 -49.83,-40.66 -48.28,-72.45 0.73,-15.12 1.87,-32.3 3.63,-49.29" style="fill:#343054;fill-opacity:1;fill-rule:nonzero;stroke:none" id="path246"/>
      <path d="M 1632.8,1388.37 H 841.152 c 13.082,79.41 76.078,137.12 149.5,136.88 l 246.318,-0.72 246.33,0.72 c 73.42,0.24 136.42,-57.47 149.5,-136.88" style="fill:#ffffff;fill-opacity:1;fill-rule:nonzero;stroke:none" id="path248"/>
      <path d="m 946.555,661.641 h -43.137 v 738.099 h 43.137 V 661.641" style="fill:#ffffff;fill-opacity:1;fill-rule:nonzero;stroke:none" id="path250"/>
      <path d="m 1570.53,661.641 h -43.13 v 738.099 h 43.13 V 661.641" style="fill:#ffffff;fill-opacity:1;fill-rule:nonzero;stroke:none" id="path252"/>
      <path d="M 1527.4,1151.33 H 946.555 v 41.59 H 1527.4 v -41.59" style="fill:#cfe6f4;fill-opacity:1;fill-rule:nonzero;stroke:none" id="path254"/>
      <path d="m 1043.16,2381.96 c 0,0 -132.215,-176.33 -149.805,-330.09 -12.421,-108.61 149.805,-270.9 149.805,-270.9 l 55.88,27.81 -55.71,125.6 c -19.82,61.18 -44.225,85.36 -26.2,147.08 l 40.35,87 -14.32,213.5" style="fill:#3a65b9;fill-opacity:1;fill-rule:nonzero;stroke:none" id="path256"/>
      <path d="m 1459.79,2384.62 c 0,0 130.49,-188.01 141.3,-342.41 9.32,-133.12 -150.43,-261.24 -150.43,-261.24 l -46.14,22.97 63.9,126.9 c 19.82,61.17 29.24,98.06 2.21,164.62 l -34.29,73 23.45,216.16" style="fill:#3a65b9;fill-opacity:1;fill-rule:nonzero;stroke:none" id="path258"/>
      <path d="m 1070.09,1980.4 -87.633,-278.79 c 0,0 379.423,-48.4 495.463,-17.08 l -58.94,303.64 40.81,396.45 c -56.79,23.93 -116.99,39.22 -178.46,43.65 -89.73,6.49 -146.41,-8.32 -238.17,-46.31 l 26.93,-401.56" style="fill:#3f77c4;fill-opacity:1;fill-rule:nonzero;stroke:none" id="path260"/>
      <path d="m 1164.95,2297.9 c 83.7,9.81 161.58,67.31 165.12,69.95 2.07,1.54 2.49,4.47 0.95,6.53 -1.54,2.08 -4.47,2.49 -6.54,0.96 -0.92,-0.68 -92.56,-68.29 -180.71,-69.49 -2.61,-0.01 -4.64,-2.16 -4.6,-4.74 0.03,-2.57 2.15,-4.65 4.73,-4.61 7.03,0.1 14.06,0.59 21.05,1.4" style="fill:#3a65b9;fill-opacity:1;fill-rule:nonzero;stroke:none" id="path262"/>
      <path d="m 1232.39,804.25 6.84,-61.551 65.47,-1.5 5.49,51.082 -77.8,11.969" style="fill:#f49477;fill-opacity:1;fill-rule:nonzero;stroke:none" id="path264"/>
      <path d="m 1222.12,1780.21 c 0,0 -169.54,9.32 -226.964,-37.66 -57.422,-46.98 -45.879,-181.81 12.624,-218.62 58.5,-36.81 158.22,-109.14 158.22,-109.14 l 63.43,-630.61 83.82,-2.84 c 0,0 77.23,633.45 38.07,756.13 -39.15,122.68 -129.2,242.74 -129.2,242.74" style="fill:#1e1d33;fill-opacity:1;fill-rule:nonzero;stroke:none" id="path266"/>
      <path d="m 1320.98,812.621 c 4.56,-14.73 2.39,-29.012 -2.16,-43.191 l -96.44,2.14 c -3.4,14.051 -3.91,28.16 -1.87,42.309 l 100.47,-1.258" style="fill:#343054;fill-opacity:1;fill-rule:nonzero;stroke:none" id="path268"/>
      <path d="m 1462.04,1784.98 h -444.91 l -41.11,240.44 c -3.559,20.82 12.48,39.83 33.6,39.83 h 459.93 c 21.12,0 37.16,-19.01 33.6,-39.83 l -41.11,-240.44" style="fill:#ffffff;fill-opacity:1;fill-rule:nonzero;stroke:none" id="path270"/>
      <path d="m 1426.26,1732.7 h -372.91 c -20,0 -36.22,16.21 -36.22,36.21 v 16.07 h 445.35 v -16.07 c 0,-20 -16.22,-36.21 -36.22,-36.21" style="fill:#cfe6f4;fill-opacity:1;fill-rule:nonzero;stroke:none" id="path272"/>
      <path d="m 1279.22,1915.21 c 0,-21.35 -17.3,-38.65 -38.64,-38.65 -21.34,0 -38.64,17.3 -38.64,38.65 0,21.33 17.3,38.64 38.64,38.64 21.34,0 38.64,-17.31 38.64,-38.64" style="fill:#cfe6f4;fill-opacity:1;fill-rule:nonzero;stroke:none" id="path274"/>
      <path d="m 954.313,977.379 -14.508,-60.918 58.746,-11.609 23.939,54.398 -68.177,18.129" style="fill:#f49477;fill-opacity:1;fill-rule:nonzero;stroke:none" id="path276"/>
      <path d="m 1308.25,1790.65 c 0,0 -113.54,39.16 -180.1,-43.06 -66.56,-82.22 -178.017,-776.289 -178.017,-776.289 l 76.407,-31.531 245.62,616.4 c 0,0 200.02,-114.15 224.25,48.13 19.17,128.4 -188.16,186.35 -188.16,186.35" style="fill:#343054;fill-opacity:1;fill-rule:nonzero;stroke:none" id="path278"/>
      <path d="m 1043.85,971.578 c -0.28,-15.918 -7.01,-29.219 -16.05,-41.668 l -93.913,33.211 c 1.195,14.879 5.238,28.867 11.804,42.089 l 98.159,-33.632" style="fill:#4c4685;fill-opacity:1;fill-rule:nonzero;stroke:none" id="path280"/>
      <path d="m 984.633,926.48 c 0,0 -35.61,18.071 -46.094,20.129 -10.48,2.071 -97.047,-59.339 -121.57,-58.75 -44.481,1.09 -58.715,-64.218 -33.438,-73.097 73.114,-25.711 208.438,-22.52 208.438,-22.52 0,0 30.051,81.238 30.611,108.656 0.57,27.411 -18.63,13.293 -37.947,25.582" style="fill:#3f77c4;fill-opacity:1;fill-rule:nonzero;stroke:none" id="path282"/>
      <path d="m 906.863,868.449 c 1.278,-0.578 2.785,-0.668 4.188,-0.129 2.726,1.051 4.047,4.078 2.957,6.77 -0.363,0.902 -9.129,22.121 -23.539,31.961 -19.16,13.14 -36.809,4.008 -37.555,3.609 -2.57,-1.351 -3.512,-4.531 -2.094,-7.07 1.41,-2.539 4.649,-3.481 7.227,-2.121 0.484,0.25 12.734,6.351 26.387,-2.969 11.738,-8.031 19.621,-27.039 19.691,-27.219 0.539,-1.301 1.539,-2.293 2.738,-2.832" style="fill:#ffffff;fill-opacity:1;fill-rule:nonzero;stroke:none" id="path284"/>
      <path d="m 924.613,880.762 c 1.278,-0.571 2.782,-0.66 4.188,-0.133 2.722,1.062 4.051,4.09 2.957,6.769 -0.367,0.903 -9.129,22.122 -23.535,31.973 -19.18,13.141 -36.813,4.02 -37.555,3.621 -2.578,-1.371 -3.516,-4.531 -2.098,-7.082 1.414,-2.539 4.653,-3.488 7.231,-2.109 0.484,0.238 12.738,6.34 26.383,-2.981 11.793,-8.07 19.613,-27.031 19.691,-27.23 0.531,-1.301 1.539,-2.281 2.738,-2.828" style="fill:#ffffff;fill-opacity:1;fill-rule:nonzero;stroke:none" id="path286"/>
      <path d="m 883.91,859.68 c 1.281,-0.59 2.778,-0.68 4.188,-0.141 2.726,1.063 4.05,4.082 2.957,6.781 -0.367,0.899 -9.129,22.11 -23.539,31.961 -19.176,13.149 -36.809,4.008 -37.551,3.61 -2.578,-1.36 -3.516,-4.532 -2.098,-7.071 1.41,-2.531 4.653,-3.488 7.231,-2.109 0.476,0.238 12.738,6.34 26.386,-2.981 11.786,-8.07 19.614,-27.031 19.688,-27.218 0.531,-1.313 1.539,-2.293 2.738,-2.832" style="fill:#ffffff;fill-opacity:1;fill-rule:nonzero;stroke:none" id="path288"/>
      <path d="m 1264.48,745.27 c 0,0 36.45,11.062 46.64,11.261 10.18,0.199 81.3,-71.851 104.43,-75.359 41.96,-6.371 44.49,-70.07 19.27,-74.223 -72.94,-12.008 -199.51,13.449 -199.51,13.449 0,0 -14.74,81.293 -10.72,107.141 4.02,25.852 19.71,9.391 39.89,17.731" style="fill:#3f77c4;fill-opacity:1;fill-rule:nonzero;stroke:none" id="path290"/>
      <path d="m 1327.9,677.859 c -1.3,-0.328 -2.73,-0.16 -3.96,0.571 -2.38,1.441 -3.12,4.511 -1.65,6.851 0.49,0.778 12.25,19.25 27.41,26.121 20.18,9.149 35.24,-2.351 35.87,-2.851 2.2,-1.699 2.55,-4.84 0.8,-6.992 -1.75,-2.149 -4.95,-2.5 -7.14,-0.789 -0.41,0.312 -10.9,8.082 -25.28,1.582 -12.36,-5.582 -22.91,-22.133 -23.01,-22.293 -0.72,-1.129 -1.82,-1.887 -3.04,-2.2" style="fill:#ffffff;fill-opacity:1;fill-rule:nonzero;stroke:none" id="path292"/>
      <path d="m 1313.27,692.371 c -1.29,-0.332 -2.72,-0.172 -3.95,0.57 -2.39,1.438 -3.13,4.508 -1.66,6.848 0.49,0.793 12.25,19.262 27.41,26.121 20.2,9.16 35.24,-2.34 35.88,-2.828 2.19,-1.711 2.55,-4.852 0.79,-7 -1.75,-2.152 -4.95,-2.512 -7.14,-0.793 -0.41,0.313 -10.91,8.082 -25.28,1.582 -12.41,-5.609 -22.9,-22.121 -23.01,-22.289 -0.71,-1.141 -1.82,-1.891 -3.04,-2.211" style="fill:#ffffff;fill-opacity:1;fill-rule:nonzero;stroke:none" id="path294"/>
      <path d="m 1348,665.801 c -1.3,-0.332 -2.72,-0.172 -3.95,0.578 -2.39,1.441 -3.13,4.512 -1.66,6.851 0.5,0.782 12.25,19.25 27.41,26.122 20.2,9.16 35.24,-2.352 35.88,-2.84 2.19,-1.723 2.54,-4.852 0.79,-7 -1.74,-2.153 -4.95,-2.5 -7.14,-0.782 -0.41,0.301 -10.91,8.071 -25.28,1.579 -12.41,-5.618 -22.91,-22.137 -23.01,-22.297 -0.72,-1.141 -1.82,-1.891 -3.04,-2.211" style="fill:#ffffff;fill-opacity:1;fill-rule:nonzero;stroke:none" id="path296"/>
      <path d="m 1363.46,2779.6 c 0,0 53.96,-83.56 48.04,-170.62 -5.91,-87.05 7.96,-187.53 -69.94,-183.12 -77.89,4.42 -216.82,-31.23 -260.99,36.57 -44.15,67.8 282.89,317.17 282.89,317.17" style="fill:#343054;fill-opacity:1;fill-rule:nonzero;stroke:none" id="path298"/>
      <path d="m 1383.46,2625.94 c 0,0 14,-126.18 -45.87,-160.92 -59.88,-34.74 -103.21,4.04 -103.21,4.04 0,0 126.21,175.88 149.08,156.88" style="fill:#1c1a2c;fill-opacity:1;fill-rule:nonzero;stroke:none" id="path300"/>
      <path d="m 1134.75,2626.53 c 0,0 -21.5,28.66 -37.48,4.96 -15.99,-23.71 6.61,-93.72 45.75,-76.63 l -8.27,71.67" style="fill:#f36156;fill-opacity:1;fill-rule:nonzero;stroke:none" id="path302"/>
      <path d="m 1134.48,2576.5 c -1.45,0 -2.78,0.96 -3.19,2.42 -6.07,21.61 -28.46,30.37 -28.68,30.46 -1.71,0.65 -2.57,2.56 -1.92,4.26 0.65,1.71 2.56,2.57 4.26,1.92 1.05,-0.39 25.72,-9.97 32.71,-34.86 0.49,-1.76 -0.53,-3.58 -2.29,-4.08 l -0.89,-0.12" style="fill:#f04147;fill-opacity:1;fill-rule:nonzero;stroke:none" id="path304"/>
      <path d="m 1111.87,2587.39 -1.79,0.53 c -1.53,0.99 -1.97,3.03 -0.99,4.57 0.17,0.25 4.13,6.29 12.42,10 1.66,0.75 3.62,0 4.37,-1.66 0.74,-1.67 0,-3.63 -1.67,-4.37 -6.41,-2.87 -9.53,-7.51 -9.56,-7.55 -0.63,-0.99 -1.69,-1.52 -2.78,-1.52" style="fill:#f04147;fill-opacity:1;fill-rule:nonzero;stroke:none" id="path306"/>
      <path d="m 1356.31,2626.53 c 0,0 21.5,28.66 37.49,4.96 15.99,-23.71 -6.62,-93.72 -45.76,-76.63 l 8.27,71.67" style="fill:#f36156;fill-opacity:1;fill-rule:nonzero;stroke:none" id="path308"/>
      <path d="m 1356.59,2576.5 c 1.45,0 2.78,0.96 3.18,2.42 6.07,21.61 28.46,30.37 28.69,30.46 1.7,0.65 2.56,2.56 1.91,4.26 -0.64,1.71 -2.55,2.57 -4.26,1.92 -1.04,-0.39 -25.72,-9.97 -32.71,-34.86 -0.49,-1.76 0.54,-3.58 2.29,-4.08 l 0.9,-0.12" style="fill:#f04147;fill-opacity:1;fill-rule:nonzero;stroke:none" id="path310"/>
      <path d="m 1379.19,2587.39 1.79,0.53 c 1.54,0.99 1.98,3.03 0.99,4.57 -0.16,0.25 -4.12,6.29 -12.41,10 -1.66,0.75 -3.63,0 -4.37,-1.66 -0.75,-1.67 0,-3.63 1.67,-4.37 6.41,-2.87 9.52,-7.51 9.55,-7.55 0.63,-0.99 1.7,-1.52 2.78,-1.52" style="fill:#f04147;fill-opacity:1;fill-rule:nonzero;stroke:none" id="path312"/>
      <path d="m 1298.45,2495.48 v -69.62 c 0,0 -20.76,-35.46 -48.84,-37.87 -28.05,-2.45 -52.97,30.53 -52.97,30.53 v 72.07 l 101.81,4.89" style="fill:#f49477;fill-opacity:1;fill-rule:nonzero;stroke:none" id="path314"/>
      <path d="m 1298.45,2495.48 v -30.89 c -18.84,-20.91 -52.29,-28.31 -101.8,-21.01 l -0.01,47.01 101.81,4.89" style="fill:#f36156;fill-opacity:1;fill-rule:nonzero;stroke:none" id="path316"/>
      <path d="m 1371.86,2674.29 c -1.29,-27.06 -3.87,-60.89 -9.03,-87.95 -1.29,-6.75 -2.75,-13.1 -4.37,-18.79 -14.65,-51.3 -51.3,-139.28 -153.89,-102.63 -45.32,16.17 -66.32,66.65 -75.68,117.98 -6.36,34.86 -7.31,70.09 -6.85,95.26 0.49,25.7 14.52,49.18 36.88,61.85 60.56,34.33 124.46,21.53 166.53,5.36 29.21,-11.21 47.89,-39.89 46.41,-71.08" style="fill:#f49477;fill-opacity:1;fill-rule:nonzero;stroke:none" id="path318"/>
      <path d="m 1200.35,2615.78 c 0,-7.44 -3.83,-13.46 -8.56,-13.46 -4.72,0 -8.55,6.02 -8.55,13.46 0,7.43 3.83,13.45 8.55,13.45 4.73,0 8.56,-6.02 8.56,-13.45" style="fill:#343054;fill-opacity:1;fill-rule:nonzero;stroke:none" id="path320"/>
      <path d="m 1306,2615.78 c 0,-7.44 -3.83,-13.46 -8.56,-13.46 -4.72,0 -8.55,6.02 -8.55,13.46 0,7.43 3.83,13.45 8.55,13.45 4.73,0 8.56,-6.02 8.56,-13.45" style="fill:#343054;fill-opacity:1;fill-rule:nonzero;stroke:none" id="path322"/>
      <path d="m 1174.85,2660.55 c 7.11,2.01 21.46,5.44 36.6,5.49 3.98,0 7.03,-3.54 6.33,-7.46 l -0.02,-0.09 c -0.56,-3.13 -3.37,-5.35 -6.54,-5.2 -10.3,0.48 -37.35,-0.97 -50.12,-6.15 -0.26,2.23 1.06,4.65 2.91,6.81 2.82,3.27 6.68,5.43 10.84,6.6" style="fill:#343054;fill-opacity:1;fill-rule:nonzero;stroke:none" id="path324"/>
      <path d="m 1313.08,2660.28 c -7.11,2.01 -21.46,5.44 -36.6,5.48 -3.98,0.01 -7.03,-3.53 -6.33,-7.45 l 0.02,-0.1 c 0.56,-3.13 3.37,-5.35 6.54,-5.2 10.3,0.48 37.35,-0.97 50.12,-6.14 0.25,2.22 -1.06,4.65 -2.92,6.81 -2.81,3.26 -6.68,5.43 -10.83,6.6" style="fill:#343054;fill-opacity:1;fill-rule:nonzero;stroke:none" id="path326"/>
      <path d="m 1246.68,2561.04 c -2.53,0 -5.07,0.45 -7.19,1.72 -1.93,1.16 -4.34,3.5 -4.81,8.07 -1.26,12.16 1.85,50.26 1.99,51.88 0.15,1.82 1.74,3.18 3.56,3.03 1.83,-0.15 3.18,-1.75 3.03,-3.57 -0.03,-0.39 -3.2,-39.11 -2,-50.66 0.21,-2 1.03,-2.72 1.63,-3.07 3.1,-1.86 10.27,0.04 13.26,1.25 1.7,0.69 3.63,-0.12 4.31,-1.81 0.69,-1.69 -0.12,-3.62 -1.81,-4.32 -0.85,-0.35 -6.39,-2.52 -11.97,-2.52" style="fill:#f36156;fill-opacity:1;fill-rule:nonzero;stroke:none" id="path328"/>
      <path d="m 1204.68,2540.16 c 2.5,-12.58 10.81,-35.73 38.81,-35.73 28.06,0 35.93,21.15 38.64,35.73 h -77.45" style="fill:#ffffff;fill-opacity:1;fill-rule:nonzero;stroke:none" id="path330"/>
      <path d="m 1243.09,2485.13 c -8.09,0 -15.22,4.35 -15.52,4.54 -1.55,0.96 -2.03,3 -1.07,4.55 0.96,1.55 2.99,2.03 4.54,1.08 0.06,-0.04 5.88,-3.56 12.05,-3.56 6.67,0 12.64,3.54 12.7,3.57 1.57,0.94 3.59,0.44 4.54,-1.13 0.93,-1.56 0.44,-3.58 -1.12,-4.53 -0.3,-0.19 -7.56,-4.52 -16.12,-4.52" style="fill:#f36156;fill-opacity:1;fill-rule:nonzero;stroke:none" id="path332"/>
      <path d="m 1385.18,2679.68 c -1.07,-3.01 -4.02,-4.94 -7.97,-6.1 0.29,-7.3 -0.48,-16.07 -1.19,-24.48 -4.09,-47.81 -16.14,-56.2 -18.87,-44.38 -1.8,7.85 -1.69,52.87 -0.83,67.55 -9.44,0.63 -17.51,2.2 -17.51,2.2 l -11.09,46.41 -3.88,-45.84 c -16.63,-5.78 -55.44,3.49 -55.44,3.49 l -13.01,45.74 -8.06,-44.02 c -24.94,-12.14 -56.12,-4.05 -56.12,-4.05 l -7.16,47.47 -16.55,-47.47 c 0,0 -53.21,-19.1 -53.79,0 -0.36,11.11 7.78,42.39 14.66,66.63 7.49,26.44 24.86,48.77 48.34,61.36 66.01,35.43 135.82,16.59 159.77,2.28 50.78,-30.31 48.7,-126.79 48.7,-126.79" style="fill:#343054;fill-opacity:1;fill-rule:nonzero;stroke:none" id="path334"/>
      <path d="m 1143.02,2776.07 c 0,0 -43.81,-52.11 -58.23,-145.17 -14.41,-93.07 -34.37,-161.84 21.71,-192.57 60.7,-33.25 55.45,34.96 54.57,53.5 -0.87,18.54 -52.51,69.21 -18.05,211.94 11.13,46.08 0,72.3 0,72.3" style="fill:#343054;fill-opacity:1;fill-rule:nonzero;stroke:none" id="path336"/>
      <path d="m 1132.78,2583.75 v -0.11 c 0.02,-0.69 0.07,-4.39 0.34,-10.18 0.13,-3.59 0.35,-7.96 0.68,-12.93 2.06,-31.35 8.16,-85.5 26.08,-104.28 7.07,-7.43 20.71,-11.16 36.77,-12.67 v 24.64 c -16.92,8.03 -30.12,21.22 -40.34,37.45 -6.32,13.69 -17.21,35.11 -22.31,68.79 l -1.22,9.29" style="fill:#1c1a2c;fill-opacity:1;fill-rule:nonzero;stroke:none" id="path338"/>
      <path d="m 1372.65,2553.3 c 0,-4.29 -3.47,-7.76 -7.75,-7.76 -4.28,0 -7.75,3.47 -7.75,7.76 0,4.27 3.47,7.74 7.75,7.74 4.28,0 7.75,-3.47 7.75,-7.74" style="fill:#ffffff;fill-opacity:1;fill-rule:nonzero;stroke:none" id="path340"/>
      <path d="m 3707.49,3220.62 h -190.08 c -14.59,0 -26.41,11.84 -26.41,26.43 v 190.07 c 0,14.59 11.82,26.42 26.41,26.42 h 190.08 c 14.6,0 26.43,-11.83 26.43,-26.42 v -190.07 c 0,-14.59 -11.83,-26.43 -26.43,-26.43" style="fill:#f7941d;fill-opacity:1;fill-rule:nonzero;stroke:none" id="path342"/>
      <path d="m 3695.17,3342.08 c 0,-20.01 -7.11,-38.35 -18.94,-52.66 -15.17,-18.35 -38.1,-30.05 -63.78,-30.05 -25.66,0 -48.59,11.69 -63.77,30.04 -11.82,14.31 -18.93,32.66 -18.93,52.67 0,45.69 37.03,82.71 82.7,82.71 45.68,0 82.72,-37.02 82.72,-82.71" style="fill:#f0b93a;fill-opacity:1;fill-rule:nonzero;stroke:none" id="path344"/>
      <path d="m 3676.23,3289.42 c -15.17,-18.35 -38.1,-30.05 -63.78,-30.05 -25.66,0 -48.59,11.69 -63.77,30.04 l 1.11,2.2 c 1.79,3.54 4.27,6.64 7.25,9.14 2.97,2.51 6.45,4.42 10.25,5.57 13.46,4.11 25.96,8.27 32.96,20.3 -8.52,4.01 -14.21,12.04 -16.59,17.7 -9.36,-2 -16.08,15.32 -11.08,19.91 1.9,1.74 3.84,2.23 5.53,2.13 1.54,17.61 16.32,33.35 34.34,33.35 18.02,0 32.81,-15.74 34.36,-33.35 1.69,0.1 3.62,-0.39 5.51,-2.13 5.01,-4.59 -1.71,-21.91 -11.07,-19.91 -2.04,-6.32 -9.06,-13.94 -15.39,-16.61 7.01,-12.03 18.29,-17.28 31.77,-21.39 3.8,-1.15 7.27,-3.06 10.24,-5.57 2.98,-2.5 5.46,-5.6 7.25,-9.14 l 1.11,-2.19" style="fill:#ffffff;fill-opacity:1;fill-rule:nonzero;stroke:none" id="path346"/>
      <path d="M 551.25,1928.93 H 361.172 c -14.59,0 -26.422,11.82 -26.422,26.41 v 190.08 c 0,14.59 11.832,26.42 26.422,26.42 H 551.25 c 14.59,0 26.418,-11.83 26.418,-26.42 v -190.08 c 0,-14.59 -11.828,-26.41 -26.418,-26.41" style="fill:#f7941d;fill-opacity:1;fill-rule:nonzero;stroke:none" id="path348"/>
      <path d="m 456.199,2061.79 c -12.386,0 -22.445,10.04 -22.445,22.45 0,12.4 10.059,22.44 22.445,22.44 12.41,0 22.449,-10.04 22.449,-22.44 0,-12.41 -10.039,-22.45 -22.449,-22.45 z m 3.649,69.13 c -31.02,2.07 -56.821,-22.5 -56.821,-53.04 0,-9.9 2.711,-19.17 7.442,-27.12 7.035,-11.85 14.293,-23.58 20.976,-35.64 l 25.196,-45.4 38.422,69.31 c 2.257,4.06 4.695,7.99 7.039,11.99 4.855,8.22 7.531,17.88 7.273,28.16 -0.641,27.23 -22.355,49.95 -49.527,51.74" style="fill:#ffffff;fill-opacity:1;fill-rule:nonzero;stroke:none" id="path350"/>
      <path d="m 4542.65,3049.18 c 20.51,0 37.21,16.69 37.21,37.22 0,20.52 -16.7,37.21 -37.21,37.21 -20.52,0 -37.22,-16.69 -37.22,-37.21 0,-20.53 16.7,-37.22 37.22,-37.22 z m 0,91.44 c 29.9,0 54.23,-24.32 54.23,-54.22 0,-29.91 -24.33,-54.23 -54.23,-54.23 -29.91,0 -54.23,24.32 -54.23,54.23 0,29.9 24.32,54.22 54.23,54.22" style="fill:#3f77c4;fill-opacity:1;fill-rule:nonzero;stroke:none" id="path352"/>
      <path d="m 4347.44,3239.42 c 20.52,0 37.21,16.69 37.21,37.22 0,20.51 -16.69,37.21 -37.21,37.21 -20.53,0 -37.22,-16.7 -37.22,-37.21 0,-20.53 16.69,-37.22 37.22,-37.22 z m 0,91.44 c 29.89,0 54.22,-24.33 54.22,-54.22 0,-29.91 -24.33,-54.23 -54.22,-54.23 -29.9,0 -54.23,24.32 -54.23,54.23 0,29.89 24.33,54.22 54.23,54.22" style="fill:#f7941d;fill-opacity:1;fill-rule:nonzero;stroke:none" id="path354"/>
      <path d="m 4280.44,3507.07 c 4.7,0 8.51,-3.81 8.51,-8.51 v -37.51 c 0,-4.7 -3.81,-8.51 -8.51,-8.51 -4.7,0 -8.51,3.81 -8.51,8.51 v 37.51 c 0,4.7 3.81,8.51 8.51,8.51" style="fill:#3f77c4;fill-opacity:1;fill-rule:nonzero;stroke:none" id="path356"/>
      <path d="m 4280.44,3572.71 c 4.7,0 8.51,-3.81 8.51,-8.51 v -37.51 c 0,-4.69 -3.81,-8.5 -8.51,-8.5 -4.7,0 -8.51,3.81 -8.51,8.5 v 37.51 c 0,4.7 3.81,8.51 8.51,8.51" style="fill:#3f77c4;fill-opacity:1;fill-rule:nonzero;stroke:none" id="path358"/>
      <path d="m 4227.79,3521.13 h 33.69 c 4.7,0 8.51,-3.8 8.51,-8.5 0,-4.7 -3.81,-8.51 -8.51,-8.51 h -33.69 c -4.69,0 -8.5,3.81 -8.5,8.51 0,4.7 3.81,8.5 8.5,8.5" style="fill:#3f77c4;fill-opacity:1;fill-rule:nonzero;stroke:none" id="path360"/>
      <path d="m 4299.39,3521.13 h 33.71 c 4.69,0 8.5,-3.8 8.5,-8.5 0,-4.7 -3.81,-8.51 -8.5,-8.51 h -33.71 c -4.69,0 -8.5,3.81 -8.5,8.51 0,4.7 3.81,8.5 8.5,8.5" style="fill:#3f77c4;fill-opacity:1;fill-rule:nonzero;stroke:none" id="path362"/>
      <path d="m 4579.86,3296.88 c 4.7,0 8.51,-3.81 8.51,-8.51 v -37.51 c 0,-4.69 -3.81,-8.5 -8.51,-8.5 -4.69,0 -8.5,3.81 -8.5,8.5 v 37.51 c 0,4.7 3.81,8.51 8.5,8.51" style="fill:#f7941d;fill-opacity:1;fill-rule:nonzero;stroke:none" id="path364"/>
      <path d="m 4579.86,3362.52 c 4.7,0 8.51,-3.8 8.51,-8.5 v -37.51 c 0,-4.7 -3.81,-8.51 -8.51,-8.51 -4.69,0 -8.5,3.81 -8.5,8.51 v 37.51 c 0,4.7 3.81,8.5 8.5,8.5" style="fill:#f7941d;fill-opacity:1;fill-rule:nonzero;stroke:none" id="path366"/>
      <path d="m 4527.21,3310.95 h 33.7 c 4.7,0 8.5,-3.81 8.5,-8.51 0,-4.7 -3.8,-8.5 -8.5,-8.5 h -33.7 c -4.7,0 -8.51,3.8 -8.51,8.5 0,4.7 3.81,8.51 8.51,8.51" style="fill:#f7941d;fill-opacity:1;fill-rule:nonzero;stroke:none" id="path368"/>
      <path d="m 4598.82,3310.95 h 33.69 c 4.7,0 8.51,-3.81 8.51,-8.51 0,-4.7 -3.81,-8.5 -8.51,-8.5 h -33.69 c -4.7,0 -8.51,3.8 -8.51,8.5 0,4.7 3.81,8.51 8.51,8.51" style="fill:#f7941d;fill-opacity:1;fill-rule:nonzero;stroke:none" id="path370"/>
      <path d="m 1184.55,3816.03 c -20.53,0 -37.22,-16.7 -37.22,-37.22 0,-20.52 16.69,-37.21 37.22,-37.21 20.51,0 37.21,16.69 37.21,37.21 0,20.52 -16.7,37.22 -37.21,37.22 z m 0,17.01 c 29.89,0 54.22,-24.33 54.22,-54.23 0,-29.9 -24.33,-54.23 -54.22,-54.23 -29.91,0 -54.23,24.33 -54.23,54.23 0,29.9 24.32,54.23 54.23,54.23" style="fill:#3f77c4;fill-opacity:1;fill-rule:nonzero;stroke:none" id="path372"/>
      <path d="m 987.055,3995.14 c -20.524,0 -37.215,-16.69 -37.215,-37.21 0,-20.52 16.691,-37.22 37.215,-37.22 20.515,0 37.215,16.7 37.215,37.22 0,20.52 -16.7,37.21 -37.215,37.21 z m 0,17.01 c 29.895,0 54.225,-24.32 54.225,-54.22 0,-29.9 -24.33,-54.23 -54.225,-54.23 -29.903,0 -54.227,24.33 -54.227,54.23 0,29.9 24.324,54.22 54.227,54.22" style="fill:#f7941d;fill-opacity:1;fill-rule:nonzero;stroke:none" id="path374"/>
      <path d="m 915.523,3702.19 c 0,-4.69 3.801,-8.5 8.504,-8.5 h 37.512 c 4.695,0 8.504,3.81 8.504,8.5 0,4.7 -3.809,8.51 -8.504,8.51 h -37.512 c -4.703,0 -8.504,-3.81 -8.504,-8.51" style="fill:#3f77c4;fill-opacity:1;fill-rule:nonzero;stroke:none" id="path376"/>
      <path d="m 849.879,3702.19 c 0,-4.69 3.809,-8.5 8.504,-8.5 h 37.512 c 4.695,0 8.503,3.81 8.503,8.5 0,4.7 -3.808,8.51 -8.503,8.51 h -37.512 c -4.695,0 -8.504,-3.81 -8.504,-8.51" style="fill:#3f77c4;fill-opacity:1;fill-rule:nonzero;stroke:none" id="path378"/>
      <path d="m 901.453,3754.85 v -33.7 c 0,-4.69 3.805,-8.5 8.508,-8.5 4.695,0 8.508,3.81 8.508,8.5 v 33.7 c 0,4.69 -3.813,8.5 -8.508,8.5 -4.703,0 -8.508,-3.81 -8.508,-8.5" style="fill:#3f77c4;fill-opacity:1;fill-rule:nonzero;stroke:none" id="path380"/>
      <path d="m 901.453,3683.24 v -33.7 c 0,-4.69 3.805,-8.5 8.508,-8.5 4.695,0 8.508,3.81 8.508,8.5 v 33.7 c 0,4.69 -3.813,8.5 -8.508,8.5 -4.703,0 -8.508,-3.81 -8.508,-8.5" style="fill:#3f77c4;fill-opacity:1;fill-rule:nonzero;stroke:none" id="path382"/>
      <path d="m 1312.73,3995.14 c 0,-4.7 3.81,-8.5 8.51,-8.5 h 37.51 c 4.7,0 8.51,3.8 8.51,8.5 0,4.7 -3.81,8.51 -8.51,8.51 h -37.51 c -4.7,0 -8.51,-3.81 -8.51,-8.51" style="fill:#f7941d;fill-opacity:1;fill-rule:nonzero;stroke:none" id="path384"/>
      <path d="m 1247.09,3995.14 c 0,-4.7 3.81,-8.5 8.51,-8.5 h 37.51 c 4.69,0 8.5,3.8 8.5,8.5 0,4.7 -3.81,8.51 -8.5,8.51 h -37.51 c -4.7,0 -8.51,-3.81 -8.51,-8.51" style="fill:#f7941d;fill-opacity:1;fill-rule:nonzero;stroke:none" id="path386"/>
      <path d="m 1298.67,4047.79 v -33.69 c 0,-4.7 3.81,-8.51 8.5,-8.51 4.7,0 8.51,3.81 8.51,8.51 v 33.69 c 0,4.7 -3.81,8.51 -8.51,8.51 -4.69,0 -8.5,-3.81 -8.5,-8.51" style="fill:#f7941d;fill-opacity:1;fill-rule:nonzero;stroke:none" id="path388"/>
      <path d="m 1298.67,3976.19 v -33.7 c 0,-4.7 3.81,-8.51 8.5,-8.51 4.7,0 8.51,3.81 8.51,8.51 v 33.7 c 0,4.69 -3.81,8.5 -8.51,8.5 -4.69,0 -8.5,-3.81 -8.5,-8.5" style="fill:#f7941d;fill-opacity:1;fill-rule:nonzero;stroke:none" id="path390"/>
      <path d="m 3573.83,3733.36 c 1.14,-0.27 2.36,-0.28 3.57,0.01 12.88,3.17 20.34,4.45 20.41,4.47 3.91,0.66 6.49,4.16 5.78,7.82 -0.7,3.66 -4.43,6.09 -8.33,5.43 -0.32,-0.05 -8.01,-1.37 -21.49,-4.68 -3.84,-0.95 -6.13,-4.63 -5.13,-8.23 0.7,-2.46 2.74,-4.24 5.19,-4.82" style="fill:#cfe6f4;fill-opacity:1;fill-rule:nonzero;stroke:none" id="path392"/>
      <path d="m 3157.05,3424.68 c -6.68,-11.44 -13.12,-23.3 -19.13,-35.26 -1.49,-2.96 -4.99,-4.43 -8.25,-3.65 l -1.31,0.44 c -3.57,1.59 -5.11,5.6 -3.42,8.97 6.13,12.2 12.71,24.3 19.53,35.98 1.9,3.26 6.24,4.46 9.74,2.67 3.48,-1.79 4.75,-5.89 2.84,-9.15" style="fill:#cfe6f4;fill-opacity:1;fill-rule:nonzero;stroke:none" id="path394"/>
      <path d="m 3121.05,3353.14 c -5.17,-12.08 -10.09,-24.58 -14.61,-37.14 -1.22,-3.35 -4.96,-5.23 -8.56,-4.37 l -0.55,0.15 c -3.75,1.19 -5.76,5.01 -4.49,8.54 4.61,12.8 9.63,25.53 14.9,37.85 1.48,3.45 5.67,5.12 9.34,3.73 3.67,-1.38 5.45,-5.3 3.97,-8.76" style="fill:#cfe6f4;fill-opacity:1;fill-rule:nonzero;stroke:none" id="path396"/>
      <path d="m 3060.22,3155.86 c -3.47,0.82 -5.81,3.97 -5.35,7.39 1.84,13.4 4,26.81 6.43,39.85 0.68,3.66 4.4,6.11 8.31,5.47 3.95,-0.66 6.51,-4.13 5.83,-7.79 -2.39,-12.84 -4.52,-26.05 -6.33,-39.25 -0.51,-3.69 -4.1,-6.3 -8.03,-5.82 l -0.86,0.15" style="fill:#cfe6f4;fill-opacity:1;fill-rule:nonzero;stroke:none" id="path398"/>
      <path d="m 3089.03,3286.45 c 3.82,-1.01 6.05,-4.72 4.98,-8.31 -1.75,-5.91 -3.45,-11.89 -5.04,-17.79 -1.83,-6.8 -3.61,-13.75 -5.26,-20.66 -0.87,-3.63 -4.71,-5.91 -8.57,-5.1 l -0.2,0.05 c -3.75,0.89 -6.08,4.44 -5.23,8.01 1.69,7.02 3.48,14.1 5.35,21.01 1.62,5.99 3.34,12.09 5.14,18.11 1.04,3.53 4.9,5.61 8.66,4.71 l 0.17,-0.03" style="fill:#cfe6f4;fill-opacity:1;fill-rule:nonzero;stroke:none" id="path400"/>
      <path d="m 3178.45,3458.76 c -1.7,-2.52 -4.9,-3.62 -7.82,-2.93 l -2.08,0.84 c -3.34,1.99 -4.35,6.15 -2.23,9.3 7.65,11.35 15.77,22.61 24.14,33.45 2.32,3.02 6.81,3.69 10.02,1.5 3.21,-2.18 3.92,-6.39 1.6,-9.4 -8.19,-10.61 -16.14,-21.63 -23.63,-32.76" style="fill:#cfe6f4;fill-opacity:1;fill-rule:nonzero;stroke:none" id="path402"/>
      <path d="m 3537.14,3721.9 c -13.09,-4.19 -26.38,-8.9 -39.48,-13.98 -1.49,-0.58 -3.05,-0.65 -4.5,-0.31 -2.12,0.51 -3.97,1.92 -4.87,3.96 -1.51,3.44 0.23,7.38 3.89,8.8 13.38,5.19 26.95,9.99 40.32,14.28 3.75,1.2 7.83,-0.68 9.11,-4.19 1.28,-3.52 -0.71,-7.35 -4.47,-8.56" style="fill:#cfe6f4;fill-opacity:1;fill-rule:nonzero;stroke:none" id="path404"/>
      <path d="m 3421.68,3673.43 c -1.67,-0.87 -3.55,-1.05 -5.26,-0.65 -1.84,0.44 -3.5,1.57 -4.51,3.25 -1.92,3.25 -0.69,7.35 2.78,9.17 12.48,6.53 25.33,12.81 38.19,18.65 3.57,1.61 7.85,0.22 9.58,-3.13 1.73,-3.35 0.23,-7.38 -3.34,-9 -12.61,-5.72 -25.2,-11.88 -37.44,-18.29" style="fill:#cfe6f4;fill-opacity:1;fill-rule:nonzero;stroke:none" id="path406"/>
      <path d="m 3285.61,3580.41 c -1.86,-1.63 -4.39,-2.16 -6.67,-1.62 -1.29,0.31 -2.5,0.95 -3.47,1.93 -2.72,2.71 -2.57,6.98 0.33,9.52 10.41,9.15 21.29,18.13 32.33,26.69 3.05,2.37 7.57,1.97 10.1,-0.9 2.52,-2.87 2.09,-7.12 -0.96,-9.49 -10.81,-8.38 -21.47,-17.17 -31.66,-26.13" style="fill:#cfe6f4;fill-opacity:1;fill-rule:nonzero;stroke:none" id="path408"/>
      <path d="m 3350.6,3630.8 c -1.79,-1.23 -4,-1.56 -5.99,-1.09 -1.56,0.38 -3.01,1.24 -4.03,2.57 -2.34,3.01 -1.62,7.22 1.58,9.41 11.51,7.86 23.47,15.52 35.57,22.77 3.34,2 7.78,1.08 9.91,-2.05 2.14,-3.14 1.16,-7.3 -2.18,-9.3 -11.86,-7.11 -23.58,-14.61 -34.86,-22.31" style="fill:#cfe6f4;fill-opacity:1;fill-rule:nonzero;stroke:none" id="path410"/>
      <path d="m 3227.88,3522.79 c -1.83,-2.07 -4.7,-2.85 -7.29,-2.23 -1,0.23 -1.97,0.68 -2.82,1.33 -3.04,2.38 -3.47,6.63 -0.94,9.49 9.1,10.34 18.69,20.53 28.47,30.31 2.72,2.71 7.26,2.84 10.15,0.29 2.89,-2.55 3.03,-6.81 0.31,-9.52 -9.58,-9.57 -18.96,-19.55 -27.88,-29.67" style="fill:#cfe6f4;fill-opacity:1;fill-rule:nonzero;stroke:none" id="path412"/>
      <path d="m 3580.97,3778.95 -14.51,112.27 380.35,-54.55 z" style="fill:#3f77c4;fill-opacity:1;fill-rule:nonzero;stroke:none" id="path414"/>
      <path d="m 3946.81,3836.68 -351.36,-86.31 -0.93,-0.24 -17.65,-20.23 4.1,49.05 365.84,57.73" style="fill:#3a65b9;fill-opacity:1;fill-rule:nonzero;stroke:none" id="path416"/>
      <path d="m 3576.87,3729.9 31.58,0.39 -13.93,19.84 z" style="fill:#3751ab;fill-opacity:1;fill-rule:nonzero;stroke:none" id="path418"/>
      <path d="m 3638.73,3761 -44.22,-10.87 71.93,-102.41 280.37,188.95 -308.08,-75.67" style="fill:#3f77c4;fill-opacity:1;fill-rule:nonzero;stroke:none" id="path420"/>
    </g>
  </g>
</svg>