<?xml version="1.0" encoding="utf-8"?>
<svg version="1.1" id="svg2" width="666.66669" height="666.66669" viewBox="34.128 101.894 187.255 212.238" xmlns="http://www.w3.org/2000/svg">
  <defs id="defs6">
    <clipPath clipPathUnits="userSpaceOnUse" id="clipPath284">
      <path d="m 2271.03,1506.57 c -43.18,0 -78.18,15.37 -78.18,34.33 0,18.96 35,34.32 78.18,34.32 43.16,0 78.16,-15.36 78.16,-34.32 0,-18.96 -35,-34.33 -78.16,-34.33" id="path282"/>
    </clipPath>
  </defs>
  <g id="g8" transform="matrix(1.3333333,0,0,-1.3333333,0,666.66667)">
    <g id="g10" transform="scale(0.1)">
      <path d="M 0,0 H 5000 V 5000 H 0 Z" style="fill-opacity: 1; fill-rule: nonzero; stroke: none; fill: rgb(253, 255, 233);" id="path12"/>
      <path d="m 584.828,2925.76 c 0,0 -101.805,85.66 -41.582,225.5 60.227,139.83 236.192,160.49 405.609,160.54 258.445,0.07 567.175,-88.88 361.205,-386.04 0,0 -256.42,-169.59 -725.232,0" style="fill:#f57f36;fill-opacity:1;fill-rule:nonzero;stroke:none" id="path14"/>
      <path d="m 839.758,3093.23 c -3.27,0 -6.301,2.09 -7.36,5.36 -18.89,58.49 -71.019,95.28 -71.546,95.65 -3.504,2.43 -4.372,7.25 -1.942,10.76 2.434,3.5 7.242,4.37 10.754,1.94 2.313,-1.6 56.906,-40.01 77.445,-103.6 1.313,-4.06 -0.918,-8.42 -4.98,-9.73 l -2.371,-0.38" style="fill:#e15128;fill-opacity:1;fill-rule:nonzero;stroke:none" id="path16"/>
      <path d="m 949.379,2989.28 c -2.543,0 -5.031,1.25 -6.508,3.55 -67.402,104.97 -267.965,135.4 -269.98,135.69 -4.223,0.62 -7.149,4.54 -6.536,8.77 0.622,4.22 4.54,7.15 8.766,6.53 8.524,-1.25 209.535,-31.72 280.758,-142.64 2.305,-3.59 1.266,-8.37 -2.328,-10.68 -1.293,-0.83 -2.738,-1.22 -4.172,-1.22" style="fill:#e15128;fill-opacity:1;fill-rule:nonzero;stroke:none" id="path18"/>
      <path d="M 1644.74,2658.72 H 272.738 c 0,0 13.785,171.15 96.617,204.29 33.465,13.39 110.165,51.55 189.754,92.31 111.2,56.94 227.961,118.9 239.891,125.24 l 1.004,0.54 10.488,-2.37 c 13.117,-2.94 26.281,-5.46 39.496,-7.55 13.063,-2.11 26.18,-3.81 39.289,-5.1 72.426,-7.11 145.703,-2.14 216.803,14.95 l 0.34,0.07 c 0,0 89.74,-46.25 189.81,-96.62 12.8,-6.44 25.79,-12.98 38.77,-19.48 88.45,-44.26 177.03,-87.54 213.13,-101.99 82.8,-33.14 96.61,-204.29 96.61,-204.29" style="fill:#f57f36;fill-opacity:1;fill-rule:nonzero;stroke:none" id="path20"/>
      <path d="m 1022.41,2876.58 c -75.476,0 -138.129,19.87 -182.57,40.29 -70.367,32.31 -110.465,71.88 -112.137,73.55 -2.824,2.81 -2.824,7.38 -0.012,10.2 2.813,2.84 7.383,2.84 10.207,0.03 0.399,-0.4 40.301,-39.69 108.489,-70.9 62.695,-28.7 162.933,-56.26 284.423,-24.62 3.87,1.01 7.8,-1.31 8.81,-5.17 1,-3.86 -1.31,-7.81 -5.17,-8.81 -39.71,-10.34 -77.24,-14.57 -112.04,-14.57" style="fill:#e15128;fill-opacity:1;fill-rule:nonzero;stroke:none" id="path22"/>
      <path d="m 986.832,2806.99 c -24.344,0 -51.062,2.44 -79.937,8.47 -3.911,0.81 -6.415,4.64 -5.602,8.54 0.816,3.91 4.66,6.41 8.547,5.6 142.62,-29.78 231.79,32.76 232.67,33.39 3.24,2.34 7.75,1.59 10.08,-1.65 2.32,-3.23 1.58,-7.75 -1.65,-10.08 -3.08,-2.21 -63.08,-44.27 -164.108,-44.27" style="fill:#e15128;fill-opacity:1;fill-rule:nonzero;stroke:none" id="path24"/>
      <path d="m 1113.4,3046.15 c 0,0 -26.91,-84.58 -150.545,-84.58 -144.203,0 -178.152,76.89 -178.152,76.89 12.531,33.22 21.141,63.97 26.953,91.46 h 0.032 c 10.691,50.36 12.191,89.92 11.535,114.18 l 253.357,10.04 c 2.34,-21.45 6.14,-46.71 10.45,-72.12 11.46,-67.47 26.37,-135.87 26.37,-135.87" style="fill:#f89c8f;fill-opacity:1;fill-rule:nonzero;stroke:none" id="path26"/>
      <path d="m 1087.03,3182.02 c -39.25,-27.3 -125.057,-67.94 -275.342,-52.1 10.691,50.36 12.191,89.92 11.535,114.18 l 253.357,10.04 c 2.34,-21.45 6.14,-46.71 10.45,-72.12" style="fill:#392139;fill-opacity:1;fill-rule:nonzero;stroke:none" id="path28"/>
      <path d="m 726.516,3574.5 c 0,0 -78.411,106.73 -139.391,43.56 -60.988,-63.16 56.625,-283.14 163.348,-235.22 l -23.957,191.66" style="fill:#f89c8f;fill-opacity:1;fill-rule:nonzero;stroke:none" id="path30"/>
      <path d="m 689.121,3448.39 c -2.66,0 -4.98,1.96 -5.355,4.67 -10.313,74.15 -69.25,119.66 -69.844,120.11 -2.379,1.81 -2.848,5.2 -1.035,7.59 1.804,2.38 5.203,2.84 7.586,1.03 2.57,-1.95 63.101,-48.7 74.015,-127.24 0.414,-2.97 -1.652,-5.7 -4.617,-6.11 l -0.75,-0.05" style="fill:#f3617c;fill-opacity:1;fill-rule:nonzero;stroke:none" id="path32"/>
      <path d="m 672.695,3501.64 c -1.734,0 -3.441,0.84 -4.488,2.38 -7.871,11.64 -31.406,12.83 -39.777,12.31 -3.008,-0.22 -5.559,2.08 -5.742,5.07 -0.188,2.98 2.082,5.55 5.066,5.74 1.488,0.1 36.508,2.05 49.426,-17.05 1.675,-2.47 1.023,-5.84 -1.453,-7.52 -0.926,-0.63 -1.989,-0.93 -3.032,-0.93" style="fill:#f3617c;fill-opacity:1;fill-rule:nonzero;stroke:none" id="path34"/>
      <path d="m 1204.16,3574.5 c 0,0 78.41,106.73 139.39,43.56 60.99,-63.16 -56.62,-283.14 -163.35,-235.22 l 23.96,191.66" style="fill:#f89c8f;fill-opacity:1;fill-rule:nonzero;stroke:none" id="path36"/>
      <path d="m 1241.56,3448.39 -0.75,0.05 c -2.96,0.41 -5.03,3.14 -4.62,6.11 10.91,78.54 71.44,125.29 74.01,127.24 2.39,1.82 5.78,1.35 7.59,-1.03 1.81,-2.38 1.35,-5.78 -1.03,-7.59 -0.6,-0.45 -59.56,-46.12 -69.84,-120.11 -0.38,-2.71 -2.7,-4.67 -5.36,-4.67" style="fill:#f3617c;fill-opacity:1;fill-rule:nonzero;stroke:none" id="path38"/>
      <path d="m 1257.98,3501.64 c -1.05,0 -2.1,0.3 -3.03,0.93 -2.48,1.68 -3.13,5.05 -1.45,7.52 12.92,19.1 47.94,17.14 49.43,17.05 2.98,-0.19 5.24,-2.75 5.06,-5.73 -0.18,-2.99 -2.78,-5.29 -5.73,-5.08 -8.42,0.5 -31.95,-0.71 -39.79,-12.31 -1.05,-1.54 -2.75,-2.38 -4.49,-2.38" style="fill:#f3617c;fill-opacity:1;fill-rule:nonzero;stroke:none" id="path40"/>
      <path d="m 1031.46,3885.6 c -219.331,53.52 -417.851,-144.76 -368.378,-365.03 34.914,-155.48 111.523,-351.55 299.754,-355.98 196.174,-4.61 274.904,208.99 302.924,371.06 25.64,148.33 -60.84,294.36 -203.88,341.25 -9.92,3.25 -20.06,6.17 -30.42,8.7" style="fill:#f89c8f;fill-opacity:1;fill-rule:nonzero;stroke:none" id="path42"/>
      <path d="m 978.5,3386.46 c -9.32,0 -19.547,2.44 -30.797,7.32 -3.156,1.38 -5.031,4.68 -4.59,8.09 l 15.688,120.45 c 0.554,4.24 4.453,7.22 8.664,6.67 4.234,-0.55 7.219,-4.43 6.668,-8.66 l -14.914,-114.51 c 15.386,-5.64 27.258,-5.15 37.066,1.47 3.539,2.38 8.345,1.45 10.725,-2.09 2.39,-3.54 1.45,-8.35 -2.09,-10.73 -7.912,-5.34 -16.674,-8.01 -26.42,-8.01" style="fill:#f3617c;fill-opacity:1;fill-rule:nonzero;stroke:none" id="path44"/>
      <path d="m 964.176,3307.06 c -44.278,0 -77.875,18.28 -78.449,18.59 -3.723,2.08 -5.063,6.8 -2.977,10.52 2.078,3.73 6.785,5.06 10.512,2.98 3.75,-2.07 89.32,-48.18 163.378,20.33 3.14,2.9 8.02,2.71 10.92,-0.42 2.9,-3.14 2.71,-8.03 -0.42,-10.93 -34.35,-31.77 -71.374,-41.07 -102.964,-41.07" style="fill:#f3617c;fill-opacity:1;fill-rule:nonzero;stroke:none" id="path46"/>
      <path d="m 976.711,3262.86 c -17.488,0 -31.508,4.27 -32.481,4.57 -4.074,1.27 -6.343,5.61 -5.074,9.68 1.274,4.07 5.602,6.34 9.672,5.08 0.344,-0.11 34.617,-10.45 58.732,3.18 3.71,2.11 8.43,0.79 10.53,-2.92 2.11,-3.72 0.8,-8.43 -2.92,-10.54 -12.34,-6.97 -26.244,-9.05 -38.459,-9.05" style="fill:#f3617c;fill-opacity:1;fill-rule:nonzero;stroke:none" id="path48"/>
      <path d="m 813.496,3606.3 c 16.641,8.94 40.938,19.98 64.563,23.43 12.687,1.85 20.668,14.62 16.339,26.69 l -0.875,2.44 c -3.125,8.72 -11.785,14.2 -21,13.22 -21.078,-2.24 -58.425,-9.62 -82.793,-33.91 -5.273,-5.25 -7.109,-13.07 -4.867,-20.18 3.782,-12.01 17.543,-17.65 28.633,-11.69" style="fill:#392139;fill-opacity:1;fill-rule:nonzero;stroke:none" id="path50"/>
      <path d="m 1133.38,3606.3 c -16.64,8.94 -40.94,19.98 -64.56,23.43 -12.69,1.85 -20.67,14.62 -16.34,26.69 l 0.87,2.44 c 3.12,8.72 11.79,14.2 21,13.22 21.08,-2.24 58.43,-9.62 82.79,-33.91 5.28,-5.25 7.11,-13.07 4.87,-20.18 -3.78,-12.01 -17.54,-17.65 -28.63,-11.69" style="fill:#392139;fill-opacity:1;fill-rule:nonzero;stroke:none" id="path52"/>
      <path d="m 791.941,3432.99 c -43.171,0 -78.171,15.37 -78.171,34.33 0,18.95 35,34.32 78.171,34.32 43.176,0 78.176,-15.37 78.176,-34.32 0,-18.96 -35,-34.33 -78.176,-34.33" style="fill:#f57f86;fill-opacity:1;fill-rule:nonzero;stroke:none" id="path54"/>
      <path d="m 1159.73,3432.99 c -43.17,0 -78.17,15.37 -78.17,34.33 0,18.95 35,34.32 78.17,34.32 43.18,0 78.17,-15.37 78.17,-34.32 0,-18.96 -34.99,-34.33 -78.17,-34.33" style="fill:#f57f86;fill-opacity:1;fill-rule:nonzero;stroke:none" id="path56"/>
      <path d="m 671.234,3486.72 c 0,0 -41.199,226.96 -28.464,278.86 12.734,51.9 39.324,42.39 39.324,42.39 0,0 -222.196,182.1 -111.688,285.32 79.985,74.72 172.004,-85.16 172.004,-85.16 0,0 -45.531,157.18 19.227,178.76 80.73,26.92 117.254,-161.46 117.254,-161.46 0,0 -6.661,140.53 58.953,137.76 90.986,-3.84 39.722,-108.93 138.406,-149.93 98.67,-41.01 247.73,-61.83 193.99,-227.15 0,0 72.39,3.16 -17.67,-291.84 -23.25,32.34 -34.91,71.57 -32.99,111.35 1.48,30.51 1.32,65.87 -4.94,87.6 0,0 -56.38,39.39 -53.82,97.05 0,0 -198.632,-117.89 -381.882,-12.81 0,0 11.531,-67.92 -46.133,-78.17 0,0 -18.84,-44.18 -25.055,-107.04 -3.605,-36.44 -15.234,-71.63 -34.707,-102.65 l -1.809,-2.88" style="fill:#392139;fill-opacity:1;fill-rule:nonzero;stroke:none" id="path58"/>
      <path d="m 1251.84,3889.8 c 0,0 31.38,107.13 82.07,79.72 36.18,-19.56 -48.11,-101.07 -48.11,-101.07 0,0 70.91,38.33 105.89,11.32 34.98,-27.02 -57.85,-58.93 -111.35,-49.79 -53.49,9.13 -28.5,59.82 -28.5,59.82" style="fill:#392139;fill-opacity:1;fill-rule:nonzero;stroke:none" id="path60"/>
      <path d="m 875.574,3547.27 c 0.367,-20.95 -7.351,-38.06 -17.238,-38.23 -9.891,-0.17 -18.203,16.66 -18.57,37.6 -0.364,20.94 7.359,38.06 17.246,38.23 9.89,0.17 18.199,-16.67 18.562,-37.6" style="fill:#392139;fill-opacity:1;fill-rule:nonzero;stroke:none" id="path62"/>
      <path d="m 1062.74,3547.27 c -0.37,-20.95 7.35,-38.06 17.24,-38.23 9.89,-0.17 18.2,16.66 18.57,37.6 0.36,20.94 -7.36,38.06 -17.25,38.23 -9.88,0.17 -18.19,-16.67 -18.56,-37.6" style="fill:#392139;fill-opacity:1;fill-rule:nonzero;stroke:none" id="path64"/>
      <path d="M 758.188,2873.9 V 2658.72 H 742.73 v 215.18 c 0,1.73 0.571,3.3 1.524,4.59 1.414,1.91 3.68,3.14 6.207,3.14 3.738,0 6.852,-2.65 7.574,-6.18 l 0.153,-1.55" style="fill:#ffffff;fill-opacity:1;fill-rule:nonzero;stroke:none" id="path66"/>
      <path d="m 1187.94,2873.9 v -215.18 h -15.46 v 215.18 c 0,4.25 3.45,7.73 7.73,7.73 3.4,0 6.31,-2.24 7.32,-5.31 l 0.41,-2.42" style="fill:#ffffff;fill-opacity:1;fill-rule:nonzero;stroke:none" id="path68"/>
      <path d="m 2659.85,3957.71 c 0,0 151.15,-130.95 157.38,-346.79 6.24,-215.84 -111.12,-308.59 -2.2,-401.34 108.92,-92.76 351.1,-193.24 204.25,-443.15 h -598.42 v 1146.51 l 238.99,44.77" style="fill:#392139;fill-opacity:1;fill-rule:nonzero;stroke:none" id="path72"/>
      <path d="m 2770.56,2658.71 h 36.61 c 28.36,62.45 80.46,179.43 102.82,250.54 -4.77,2.35 -8.32,4 -13.3,6.47 -16.46,-42.07 -76.41,-183.79 -126.13,-257.01" style="fill:#bc2739;fill-opacity:1;fill-rule:nonzero;stroke:none" id="path78"/>
      <path d="m 2470.75,2658.71 h 299.66 c 50.45,75.07 97.24,183.96 122.98,248.65 13.04,32.77 20.68,54.21 20.68,54.21 -77.29,61.16 -258.98,75.23 -258.98,75.23 -62.97,-84.4 -139.44,-273.49 -184.34,-378.09" style="fill:#ef2f4b;fill-opacity:1;fill-rule:nonzero;stroke:none" id="path82"/>
      <path d="m 2655.09,3036.8 c -3.66,-32.34 -11.42,-88.37 -25.92,-148.09 -22.6,-92.93 -61.63,-194.81 -127.28,-230 h -108.21 c -90.38,37.51 -152.19,145.25 -190.06,237.03 -23.4,56.71 -37.62,107.28 -43.83,131.4 59.34,31.1 102.34,53.95 102.34,53.95 l 10.49,-2.34 c 97.54,-21.86 198.77,-21.05 295.92,2.34 0,0 35.41,-18.24 86.55,-44.29" style="fill:#f89c8f;fill-opacity:1;fill-rule:nonzero;stroke:none" id="path84"/>
      <path d="m 2629.17,2888.71 c -22.6,-92.93 -61.63,-194.81 -127.28,-230 h -108.21 c -90.38,37.51 -152.19,145.25 -190.06,237.03 47.43,-19.58 118.1,-37.41 218.09,-37.41 87.84,0 156.52,13.76 207.46,30.38" style="fill:#feefe7;fill-opacity:1;fill-rule:nonzero;stroke:none" id="path86"/>
      <path d="m 2575.53,3046.15 c 0,0 -26.91,-84.58 -150.55,-84.58 -144.2,0 -178.15,76.89 -178.15,76.89 12.53,33.22 21.14,63.97 26.95,91.46 h 0.04 c 10.68,50.36 12.18,89.92 11.53,114.18 l 253.35,10.04 c 2.34,-21.45 6.15,-46.71 10.46,-72.12 11.46,-67.47 26.37,-135.87 26.37,-135.87" style="fill:#f89c8f;fill-opacity:1;fill-rule:nonzero;stroke:none" id="path88"/>
      <path d="m 2426.7,2922.46 c -75.65,0 -125.12,38.77 -153.3,71.29 -30.41,35.09 -42.85,69.72 -43.37,71.17 -0.91,2.6 0.45,5.46 3.05,6.38 2.6,0.93 5.46,-0.44 6.38,-3.04 0.12,-0.34 12.46,-34.55 41.73,-68.23 38.97,-44.84 87.93,-67.57 145.51,-67.57 57.42,0 103.51,22.63 137,67.26 25.19,33.56 33.42,67.67 33.51,68.01 0.63,2.69 3.33,4.35 6,3.73 2.69,-0.64 4.36,-3.33 3.73,-6.01 -0.34,-1.47 -8.69,-36.21 -35.01,-71.42 -24.4,-32.65 -69.41,-71.57 -145.23,-71.57" style="fill:#feefe7;fill-opacity:1;fill-rule:nonzero;stroke:none" id="path90"/>
      <path d="m 2549.16,3182.02 c -39.25,-27.3 -125.06,-67.94 -275.34,-52.1 10.68,50.36 12.18,89.92 11.53,114.18 l 253.35,10.04 c 2.34,-21.45 6.15,-46.71 10.46,-72.12" style="fill:#392139;fill-opacity:1;fill-rule:nonzero;stroke:none" id="path92"/>
      <path d="m 2188.64,3574.5 c 0,0 -78.41,106.73 -139.39,43.56 -60.98,-63.16 56.63,-283.14 163.35,-235.22 l -23.96,191.66" style="fill:#f89c8f;fill-opacity:1;fill-rule:nonzero;stroke:none" id="path94"/>
      <path d="m 2156.07,3448.39 c -2.65,0 -4.97,1.96 -5.35,4.67 -10.31,74.15 -69.25,119.66 -69.84,120.11 -2.38,1.81 -2.85,5.2 -1.04,7.59 1.81,2.38 5.21,2.84 7.59,1.03 2.57,-1.95 63.1,-48.7 74.02,-127.24 0.41,-2.97 -1.66,-5.7 -4.62,-6.11 l -0.76,-0.05" style="fill:#f3617c;fill-opacity:1;fill-rule:nonzero;stroke:none" id="path96"/>
      <path d="m 2139.65,3501.64 c -1.73,0 -3.44,0.84 -4.48,2.38 -7.88,11.64 -31.41,12.83 -39.78,12.31 -3.01,-0.22 -5.56,2.08 -5.75,5.07 -0.19,2.98 2.08,5.55 5.07,5.74 1.49,0.1 36.51,2.05 49.43,-17.05 1.68,-2.47 1.02,-5.84 -1.45,-7.52 -0.94,-0.63 -1.99,-0.93 -3.04,-0.93" style="fill:#f3617c;fill-opacity:1;fill-rule:nonzero;stroke:none" id="path98"/>
      <path d="m 2164.14,3378 c -1.52,0.23 -3.02,0.73 -4.61,1.15 -7.16,-2.95 -15.54,-2.48 -21.4,1.64 -18.07,12.71 -2.33,43.35 -2.12,43.75 1.48,2.81 0.4,6.3 -2.42,7.78 -2.81,1.49 -6.3,0.41 -7.78,-2.4 -0.86,-1.63 -20.71,-40.01 5.69,-58.57 5.35,-3.75 11.94,-5.63 18.67,-5.63 6.59,0 13.29,1.8 19.05,5.42 2.31,1.45 4.31,3.18 6.11,5.05 -3.8,0.56 -7.4,1.25 -11.19,1.81" style="fill:#feefe7;fill-opacity:1;fill-rule:nonzero;stroke:none" id="path100"/>
      <path d="m 2666.29,3574.5 c 0,0 78.41,106.73 139.39,43.56 60.99,-63.16 -56.63,-283.14 -163.35,-235.22 l 23.96,191.66" style="fill:#f89c8f;fill-opacity:1;fill-rule:nonzero;stroke:none" id="path102"/>
      <path d="m 2697.83,3448.39 -0.75,0.05 c -2.96,0.41 -5.03,3.14 -4.62,6.11 10.92,78.54 71.45,125.29 74.01,127.24 2.4,1.82 5.79,1.35 7.59,-1.03 1.81,-2.38 1.35,-5.78 -1.03,-7.59 -0.6,-0.45 -59.55,-46.12 -69.84,-120.11 -0.37,-2.71 -2.69,-4.67 -5.36,-4.67" style="fill:#f3617c;fill-opacity:1;fill-rule:nonzero;stroke:none" id="path104"/>
      <path d="m 2714.26,3501.64 c -1.06,0 -2.11,0.3 -3.04,0.93 -2.47,1.68 -3.12,5.05 -1.44,7.52 12.91,19.1 47.93,17.14 49.42,17.05 2.99,-0.19 5.24,-2.75 5.07,-5.73 -0.19,-2.99 -2.79,-5.29 -5.73,-5.08 -8.42,0.5 -31.96,-0.71 -39.8,-12.31 -1.04,-1.54 -2.75,-2.38 -4.48,-2.38" style="fill:#f3617c;fill-opacity:1;fill-rule:nonzero;stroke:none" id="path106"/>
      <path d="m 2690.79,3378 c 1.52,0.23 3.02,0.73 4.61,1.15 7.16,-2.95 15.54,-2.48 21.4,1.64 18.07,12.71 2.33,43.35 2.13,43.75 -1.49,2.81 -0.41,6.3 2.41,7.78 2.81,1.49 6.3,0.41 7.79,-2.4 0.85,-1.63 20.7,-40.01 -5.7,-58.57 -5.34,-3.75 -11.95,-5.63 -18.66,-5.63 -6.6,0 -13.31,1.8 -19.07,5.42 -2.3,1.45 -4.3,3.18 -6.1,5.05 3.8,0.56 7.39,1.25 11.19,1.81" style="fill:#feefe7;fill-opacity:1;fill-rule:nonzero;stroke:none" id="path108"/>
      <path d="m 2462.73,3894.43 c -231.67,6.76 -340.17,-117.18 -322.5,-373.11 10.98,-158.97 96.5,-352.3 284.74,-356.73 196.17,-4.61 285.46,217.95 289.73,382.36 4.48,172.9 -36.57,288.54 -179.61,335.43 -9.91,3.25 -61.7,11.74 -72.36,12.05" style="fill:#f89c8f;fill-opacity:1;fill-rule:nonzero;stroke:none" id="path110"/>
      <path d="m 2258.59,3471.64 c 0,-3.73 -3.02,-6.75 -6.74,-6.75 -3.73,0 -6.75,3.02 -6.75,6.75 0,3.72 3.02,6.74 6.75,6.74 3.72,0 6.74,-3.02 6.74,-6.74" style="fill:#f3617c;fill-opacity:1;fill-rule:nonzero;stroke:none" id="path112"/>
      <path d="m 2291.54,3455.35 c 0,-3.73 -3.02,-6.75 -6.75,-6.75 -3.72,0 -6.74,3.02 -6.74,6.75 0,3.73 3.02,6.74 6.74,6.74 3.73,0 6.75,-3.01 6.75,-6.74" style="fill:#f3617c;fill-opacity:1;fill-rule:nonzero;stroke:none" id="path114"/>
      <path d="m 2258.59,3431.88 c 0,-3.72 -3.02,-6.74 -6.74,-6.74 -3.73,0 -6.75,3.02 -6.75,6.74 0,3.73 3.02,6.75 6.75,6.75 3.72,0 6.74,-3.02 6.74,-6.75" style="fill:#f3617c;fill-opacity:1;fill-rule:nonzero;stroke:none" id="path116"/>
      <path d="m 2310.39,3425.14 c 0,-3.73 -3.02,-6.75 -6.75,-6.75 -3.72,0 -6.75,3.02 -6.75,6.75 0,3.72 3.03,6.74 6.75,6.74 3.73,0 6.75,-3.02 6.75,-6.74" style="fill:#f3617c;fill-opacity:1;fill-rule:nonzero;stroke:none" id="path118"/>
      <path d="m 2344.91,3431.88 c 0,-3.72 -3.02,-6.74 -6.75,-6.74 -3.72,0 -6.74,3.02 -6.74,6.74 0,3.73 3.02,6.75 6.74,6.75 3.73,0 6.75,-3.02 6.75,-6.75" style="fill:#f3617c;fill-opacity:1;fill-rule:nonzero;stroke:none" id="path120"/>
      <path d="m 2329.22,3464.89 c 0,-3.73 -3.02,-6.75 -6.75,-6.75 -3.73,0 -6.75,3.02 -6.75,6.75 0,3.72 3.02,6.75 6.75,6.75 3.73,0 6.75,-3.03 6.75,-6.75" style="fill:#f3617c;fill-opacity:1;fill-rule:nonzero;stroke:none" id="path122"/>
      <path d="m 2602.07,3471.64 c 0,-3.73 3.03,-6.75 6.75,-6.75 3.73,0 6.75,3.02 6.75,6.75 0,3.72 -3.02,6.74 -6.75,6.74 -3.72,0 -6.75,-3.02 -6.75,-6.74" style="fill:#f3617c;fill-opacity:1;fill-rule:nonzero;stroke:none" id="path124"/>
      <path d="m 2569.12,3455.35 c 0,-3.73 3.03,-6.75 6.75,-6.75 3.73,0 6.75,3.02 6.75,6.75 0,3.73 -3.02,6.74 -6.75,6.74 -3.72,0 -6.75,-3.01 -6.75,-6.74" style="fill:#f3617c;fill-opacity:1;fill-rule:nonzero;stroke:none" id="path126"/>
      <path d="m 2602.07,3431.88 c 0,-3.72 3.03,-6.74 6.75,-6.74 3.73,0 6.75,3.02 6.75,6.74 0,3.73 -3.02,6.75 -6.75,6.75 -3.72,0 -6.75,-3.02 -6.75,-6.75" style="fill:#f3617c;fill-opacity:1;fill-rule:nonzero;stroke:none" id="path128"/>
      <path d="m 2550.27,3425.14 c 0,-3.73 3.03,-6.75 6.75,-6.75 3.73,0 6.75,3.02 6.75,6.75 0,3.72 -3.02,6.74 -6.75,6.74 -3.72,0 -6.75,-3.02 -6.75,-6.74" style="fill:#f3617c;fill-opacity:1;fill-rule:nonzero;stroke:none" id="path130"/>
      <path d="m 2515.75,3431.88 c 0,-3.72 3.03,-6.74 6.75,-6.74 3.73,0 6.75,3.02 6.75,6.74 0,3.73 -3.02,6.75 -6.75,6.75 -3.72,0 -6.75,-3.02 -6.75,-6.75" style="fill:#f3617c;fill-opacity:1;fill-rule:nonzero;stroke:none" id="path132"/>
      <path d="m 2531.46,3464.89 c 0,-3.73 3.01,-6.75 6.74,-6.75 3.72,0 6.75,3.02 6.75,6.75 0,3.72 -3.03,6.75 -6.75,6.75 -3.73,0 -6.74,-3.03 -6.74,-6.75" style="fill:#f3617c;fill-opacity:1;fill-rule:nonzero;stroke:none" id="path134"/>
      <path d="m 2149.48,3475.81 c 0,0 46.37,97.9 30.92,170.04 l -50.67,14.76 c 0,0 -7.73,-123.83 19.75,-184.8" style="fill:#392139;fill-opacity:1;fill-rule:nonzero;stroke:none" id="path136"/>
      <path d="m 2704.92,3475.81 c 0,0 -46.38,97.9 -30.92,170.04 l 50.68,14.76 c 0,0 7.72,-123.83 -19.76,-184.8" style="fill:#392139;fill-opacity:1;fill-rule:nonzero;stroke:none" id="path138"/>
      <path d="m 2187.71,3957.71 c -56.18,-55.49 -99.96,-146.42 -102.91,-201.93 -2.99,-56.2 11.43,-112.07 53.58,-133.52 131.76,-67.04 404.39,185.05 404.39,185.05 0,0 96.16,-195.51 171.93,-186.28 75.76,9.23 108.01,229.66 -72.37,352.98 -180.07,123.1 -368.51,68.74 -454.62,-16.3" style="fill:#392139;fill-opacity:1;fill-rule:nonzero;stroke:none" id="path140"/>
      <path d="m 2235.02,3592.6 c 0,0 12.54,31.04 55.05,57.55 53.71,33.49 92.42,-24.12 92.42,-24.12 0,0 -42.14,14.67 -74.5,4.36 -31.66,-10.08 -72.97,-37.79 -72.97,-37.79" style="fill:#392139;fill-opacity:1;fill-rule:nonzero;stroke:none" id="path142"/>
      <path d="m 2630.81,3592.6 c 0,0 -12.54,31.04 -55.05,57.55 -53.71,33.49 -92.42,-24.12 -92.42,-24.12 0,0 42.15,14.67 74.5,4.36 31.66,-10.08 72.97,-37.79 72.97,-37.79" style="fill:#392139;fill-opacity:1;fill-rule:nonzero;stroke:none" id="path144"/>
      <path d="m 2440.63,3386.69 c -9.3,0 -19.49,2.44 -30.71,7.3 -3.06,1.34 -4.88,4.54 -4.45,7.86 l 15.68,120.44 c 0.54,4.11 4.32,7.01 8.41,6.47 4.11,-0.53 7,-4.3 6.47,-8.4 l -14.94,-114.7 c 15.55,-5.73 27.54,-5.24 37.45,1.43 3.44,2.32 8.1,1.41 10.41,-2.02 2.31,-3.43 1.41,-8.1 -2.03,-10.41 -7.87,-5.31 -16.59,-7.97 -26.29,-7.97" style="fill:#f3617c;fill-opacity:1;fill-rule:nonzero;stroke:none" id="path146"/>
      <path d="m 2425.75,3307.07 c -6.59,0 -12.81,0.41 -18.53,1.06 -34.29,3.95 -58.25,17.16 -59.26,17.72 -3.61,2.02 -4.91,6.59 -2.89,10.21 2.02,3.61 6.59,4.91 10.2,2.9 3.61,-2.01 89.4,-48.34 163.66,20.35 3.03,2.82 7.78,2.63 10.59,-0.41 2.81,-3.04 2.63,-7.79 -0.41,-10.6 -35.32,-32.67 -73.28,-41.23 -103.36,-41.23" style="fill:#f3617c;fill-opacity:1;fill-rule:nonzero;stroke:none" id="path148"/>
      <path d="m 2438.84,3263.09 c -17.45,0 -31.44,4.26 -32.41,4.56 -3.96,1.24 -6.17,5.44 -4.93,9.4 1.23,3.95 5.44,6.15 9.39,4.92 0.51,-0.15 34.77,-10.45 58.91,3.2 3.6,2.04 8.18,0.77 10.22,-2.84 2.04,-3.6 0.77,-8.17 -2.84,-10.22 -12.29,-6.95 -26.16,-9.02 -38.34,-9.02" style="fill:#f3617c;fill-opacity:1;fill-rule:nonzero;stroke:none" id="path150"/>
      <path d="m 2337.71,3547.27 c 0.36,-20.95 -7.36,-38.06 -17.25,-38.23 -9.89,-0.17 -18.2,16.66 -18.57,37.6 -0.36,20.94 7.36,38.06 17.25,38.23 9.89,0.17 18.2,-16.67 18.57,-37.6" style="fill:#392139;fill-opacity:1;fill-rule:nonzero;stroke:none" id="path152"/>
      <path d="m 2524.86,3547.27 c -0.36,-20.95 7.36,-38.06 17.25,-38.23 9.88,-0.17 18.2,16.66 18.56,37.6 0.37,20.94 -7.35,38.06 -17.24,38.23 -9.89,0.17 -18.2,-16.67 -18.57,-37.6" style="fill:#392139;fill-opacity:1;fill-rule:nonzero;stroke:none" id="path154"/>
      <path d="m 3625.74,2847.15 c 0,0 -239.68,-48.19 -249.8,153.64 -4.39,87.35 -16.16,73.69 -92.55,147.34 -76.38,73.66 -76.38,103.67 -60.01,171.87 16.37,68.19 85.15,91.63 51.15,154.65 -44.77,83.01 -31.04,224.89 66.26,280.2 94.06,53.47 104.65,52.75 104.65,107.59 0,71.6 74.36,186.99 227.75,175.01 131.95,-10.31 111.45,53.89 204.97,82.49 174.17,53.27 258.58,-97.59 318.59,-103.05 60.02,-5.45 163.86,-6.47 216.57,-86.23 65.37,-98.92 7.62,-179.65 89.46,-187.83 81.84,-8.19 163.68,-79.11 160.95,-152.77 -2.73,-73.65 -46.38,-136.39 -16.37,-169.13 30,-32.74 41.63,-226.61 -79.45,-263.71 -165.48,-50.71 0,-295.68 -304.34,-291.14 -273.53,4.08 -637.83,-18.93 -637.83,-18.93" style="fill:#392139;fill-opacity:1;fill-rule:nonzero;stroke:none" id="path156"/>
      <path d="m 4610.03,2658.71 h -1372 c 0,0 13.79,171.18 96.62,204.28 17.13,6.86 45.62,20.23 80.05,37.1 4.76,2.35 9.66,4.74 14.63,7.22 l 0.1,0.05 c 8.79,4.35 17.88,8.89 27.21,13.58 66.73,33.46 145.21,74.2 206.32,106.2 7.14,3.73 14.02,7.34 20.61,10.79 48.44,25.46 81.73,43.16 81.73,43.16 l 10.48,-2.34 c 97.55,-21.86 198.78,-21.05 295.93,2.34 0,0 34.53,-17.78 84.64,-43.31 l 1.9,-0.98 c 30.26,-15.43 66.04,-33.6 103.27,-52.33 100.07,-50.39 210.49,-104.91 251.9,-121.48 82.83,-33.1 96.61,-204.28 96.61,-204.28" style="fill:#346abd;fill-opacity:1;fill-rule:nonzero;stroke:none" id="path158"/>
      <path d="m 3937.6,2750.07 c -34.05,0 -63.62,4.92 -87.29,11.05 -59.02,15.31 -94.2,40.72 -95.66,41.8 -3.35,2.44 -4.07,7.13 -1.63,10.48 2.45,3.34 7.14,4.07 10.48,1.62 0.54,-0.39 34.95,-25.06 91.23,-39.54 51.91,-13.36 133.73,-20.52 228.59,21.21 3.79,1.67 8.22,-0.05 9.88,-3.85 1.67,-3.79 -0.05,-8.22 -3.83,-9.88 -55.96,-24.61 -107.62,-32.89 -151.77,-32.89" style="fill:#3151a7;fill-opacity:1;fill-rule:nonzero;stroke:none" id="path160"/>
      <path d="m 4156.35,3037.78 c -16.18,-70.36 -68.38,-201.79 -232.32,-201.79 -174.58,0 -226.18,140.19 -240.46,201.94 48.44,25.46 81.73,43.16 81.73,43.16 l 10.48,-2.34 c 97.55,-21.86 198.78,-21.05 295.93,2.34 0,0 34.53,-17.78 84.64,-43.31" style="fill:#f89c8f;fill-opacity:1;fill-rule:nonzero;stroke:none" id="path162"/>
      <path d="m 3513.84,2658.71 h -275.81 c 0,0 13.79,171.18 96.62,204.28 17.13,6.86 45.62,20.23 80.05,37.1 4.76,2.35 9.66,4.74 14.63,7.22 l 0.1,0.05 c 8.79,4.35 17.88,8.89 27.21,13.58 20.62,-57.54 54.81,-166.41 57.2,-262.23" style="fill:#f89c8f;fill-opacity:1;fill-rule:nonzero;stroke:none" id="path164"/>
      <path d="m 4334.23,2658.71 h 275.8 c 0,0 -13.78,171.18 -96.61,204.28 -17.14,6.86 -45.63,20.23 -80.05,37.1 -4.77,2.35 -9.67,4.74 -14.64,7.22 l -0.1,0.05 c -8.79,4.35 -17.88,8.89 -27.2,13.58 -20.62,-57.54 -54.81,-166.41 -57.2,-262.23" style="fill:#f89c8f;fill-opacity:1;fill-rule:nonzero;stroke:none" id="path166"/>
      <path d="m 4078.71,3046.15 c 0,0 -26.91,-84.58 -150.55,-84.58 -144.2,0 -178.15,76.89 -178.15,76.89 12.53,33.22 21.14,63.97 26.94,91.46 h 0.04 c 10.7,50.36 12.19,89.92 11.54,114.18 l 253.35,10.04 c 2.35,-21.45 6.15,-46.71 10.45,-72.12 11.46,-67.47 26.38,-135.87 26.38,-135.87" style="fill:#f89c8f;fill-opacity:1;fill-rule:nonzero;stroke:none" id="path168"/>
      <path d="m 4052.33,3182.02 c -39.24,-27.3 -125.05,-67.94 -275.34,-52.1 10.7,50.36 12.19,89.92 11.54,114.18 l 253.35,10.04 c 2.35,-21.45 6.15,-46.71 10.45,-72.12" style="fill:#392139;fill-opacity:1;fill-rule:nonzero;stroke:none" id="path170"/>
      <path d="m 4187.8,3560.09 c 0,0 59.36,80.78 105.52,32.97 46.16,-47.81 -42.87,-214.33 -123.65,-178.06 l 18.13,145.09" style="fill:#f89c8f;fill-opacity:1;fill-rule:nonzero;stroke:none" id="path172"/>
      <path d="m 4163.27,3416.63 c -37.87,-18.4 -64.04,-57.25 -64.04,-102.08 0,-62.55 50.88,-113.47 113.44,-113.47 62.55,0 113.43,50.92 113.43,113.47 0,56.17 -41.04,102.91 -94.7,111.85 -5.11,0.87 -10.31,1.36 -15.59,1.52 0.36,4.42 1.31,8.65 2.71,12.8 8.75,-0.39 17.28,-1.7 25.47,-3.82 54.57,-13.96 94.99,-63.5 94.99,-122.35 0,-69.67 -56.65,-126.35 -126.31,-126.35 -69.67,0 -126.33,56.68 -126.33,126.35 0,52.84 32.62,98.21 78.79,117.02 l -1.86,-14.94" style="fill:#feefe7;fill-opacity:1;fill-rule:nonzero;stroke:none" id="path174"/>
      <path d="m 4211.68,3464.62 -0.57,0.04 c -2.24,0.31 -3.81,2.38 -3.49,4.62 8.26,59.46 54.07,94.85 56.02,96.33 1.81,1.37 4.37,1.02 5.74,-0.79 1.37,-1.8 1.02,-4.37 -0.78,-5.74 -0.45,-0.34 -45.07,-34.91 -52.87,-90.92 -0.28,-2.06 -2.04,-3.54 -4.05,-3.54" style="fill:#f3617c;fill-opacity:1;fill-rule:nonzero;stroke:none" id="path176"/>
      <path d="m 4224.11,3504.93 -2.29,0.71 c -1.88,1.26 -2.38,3.82 -1.11,5.69 9.79,14.46 36.29,12.97 37.42,12.91 2.26,-0.14 3.98,-2.09 3.83,-4.35 -0.13,-2.26 -2.11,-3.99 -4.33,-3.84 -6.38,0.38 -24.18,-0.54 -30.12,-9.32 -0.8,-1.16 -2.09,-1.8 -3.4,-1.8" style="fill:#f3617c;fill-opacity:1;fill-rule:nonzero;stroke:none" id="path178"/>
      <path d="m 3673.02,3560.09 c 0,0 -59.35,80.78 -105.52,32.97 -46.16,-47.81 42.87,-214.33 123.65,-178.06 l -18.13,145.09" style="fill:#f89c8f;fill-opacity:1;fill-rule:nonzero;stroke:none" id="path180"/>
      <path d="m 3689.09,3431.57 c 46.17,-18.81 78.79,-64.18 78.79,-117.02 0,-69.67 -56.66,-126.35 -126.33,-126.35 -69.67,0 -126.32,56.68 -126.32,126.35 0,58.85 40.42,108.39 94.99,122.35 8.2,2.12 16.72,3.43 25.48,3.82 1.4,-4.15 2.35,-8.38 2.71,-12.8 -5.27,-0.16 -10.48,-0.65 -15.59,-1.52 -53.66,-8.94 -94.7,-55.68 -94.7,-111.85 0,-62.55 50.88,-113.47 113.43,-113.47 62.56,0 113.45,50.92 113.45,113.47 0,44.83 -26.18,83.68 -64.05,102.08 l -1.86,14.94" style="fill:#feefe7;fill-opacity:1;fill-rule:nonzero;stroke:none" id="path182"/>
      <path d="m 3689.09,3431.57 c 46.17,-18.81 78.79,-64.18 78.79,-117.02 0,-69.67 -56.66,-126.35 -126.33,-126.35 -69.67,0 -126.32,56.68 -126.32,126.35 0,58.85 40.42,108.39 94.99,122.35 8.2,2.12 16.72,3.43 25.48,3.82 1.4,-4.15 2.35,-8.38 2.71,-12.8 -5.27,-0.16 -10.48,-0.65 -15.59,-1.52 -53.66,-8.94 -94.7,-55.68 -94.7,-111.85 0,-62.55 50.88,-113.47 113.43,-113.47 62.56,0 113.45,50.92 113.45,113.47 0,44.83 -26.18,83.68 -64.05,102.08 l -1.86,14.94" style="fill:#feefe7;fill-opacity:1;fill-rule:nonzero;stroke:none" id="path184"/>
      <path d="m 3649.14,3464.62 0.57,0.04 c 2.24,0.31 3.81,2.38 3.49,4.62 -8.26,59.46 -54.07,94.85 -56.02,96.33 -1.81,1.37 -4.37,1.02 -5.74,-0.79 -1.37,-1.8 -1.02,-4.37 0.78,-5.74 0.45,-0.34 45.08,-34.91 52.87,-90.92 0.28,-2.06 2.04,-3.54 4.05,-3.54" style="fill:#f3617c;fill-opacity:1;fill-rule:nonzero;stroke:none" id="path186"/>
      <path d="m 3636.71,3504.93 2.29,0.71 c 1.88,1.26 2.38,3.82 1.11,5.69 -9.78,14.46 -36.29,12.97 -37.42,12.91 -2.26,-0.14 -3.97,-2.09 -3.83,-4.35 0.13,-2.26 2.11,-3.99 4.33,-3.84 6.38,0.38 24.18,-0.54 30.12,-9.32 0.8,-1.16 2.09,-1.8 3.4,-1.8" style="fill:#f3617c;fill-opacity:1;fill-rule:nonzero;stroke:none" id="path188"/>
      <path d="m 4217.88,3546.94 c -4.28,-164.4 -93.55,-386.97 -289.74,-382.34 -173.61,4.07 -259.82,168.81 -280.82,319.1 -1.74,12.67 -3.06,25.27 -3.91,37.64 -16.72,242.28 79.64,366.29 286.55,373.06 11.62,0.39 23.6,0.39 35.94,0.03 10.67,-0.31 62.46,-8.81 72.37,-12.06 143.05,-46.89 184.09,-162.52 179.61,-335.43" style="fill:#f89c8f;fill-opacity:1;fill-rule:nonzero;stroke:none" id="path190"/>
      <path d="m 3752.13,3414.06 c -43.17,0 -78.17,15.37 -78.17,34.33 0,18.95 35,34.32 78.17,34.32 43.17,0 78.16,-15.37 78.16,-34.32 0,-18.96 -34.99,-34.33 -78.16,-34.33" style="fill:#f57f86;fill-opacity:1;fill-rule:nonzero;stroke:none" id="path192"/>
      <path d="m 4119.91,3414.06 c -43.17,0 -78.17,15.37 -78.17,34.33 0,18.95 35,34.32 78.17,34.32 43.18,0 78.18,-15.37 78.18,-34.32 0,-18.96 -35,-34.33 -78.18,-34.33" style="fill:#f57f86;fill-opacity:1;fill-rule:nonzero;stroke:none" id="path194"/>
      <path d="m 3815.52,3746.36 c -50.86,-3.86 -35.57,-62.78 -85.65,-91.58 -54.96,-31.63 -48.17,-50.56 -34.86,-94.88 19.78,-65.85 -45.23,-81.51 -45.23,-81.51 -0.83,1.72 -1.65,3.5 -2.46,5.31 -1.74,12.67 -3.06,25.27 -3.91,37.64 -16.72,242.28 60.7,383.47 286.55,373.06 28.01,-106.09 -46.4,-142.87 -114.44,-148.04" style="fill:#392139;fill-opacity:1;fill-rule:nonzero;stroke:none" id="path196"/>
      <path d="m 4040.14,3763.75 c 67.61,1.07 43.99,-68.92 83.93,-101.12 49.36,-39.81 65.55,-22.89 43.87,-88.12 -22.43,-67.45 42.04,-96.12 42.04,-96.12 0.83,1.72 1.65,3.5 2.45,5.31 1.75,12.67 3.07,25.27 3.92,37.64 16.72,242.28 -65.23,382.83 -286.56,373.06 -28,-106.09 42.1,-131.73 110.35,-130.65" style="fill:#392139;fill-opacity:1;fill-rule:nonzero;stroke:none" id="path198"/>
      <path d="m 3862.58,3662.52 c -26.54,-0.61 -84.38,-7.69 -110.4,-55.87 0,0 59.77,28.4 109.8,25.36 9.56,-0.58 17.28,7.69 16.05,17.18 -1,7.74 -7.65,13.51 -15.45,13.33" style="fill:#392139;fill-opacity:1;fill-rule:nonzero;stroke:none" id="path200"/>
      <path d="m 4009.46,3662.52 c 26.53,-0.61 84.38,-7.69 110.4,-55.87 0,0 -59.77,28.4 -109.8,25.36 -9.56,-0.58 -17.28,7.69 -16.06,17.18 1,7.74 7.66,13.51 15.46,13.33" style="fill:#392139;fill-opacity:1;fill-rule:nonzero;stroke:none" id="path202"/>
      <path d="m 3943.81,3386.69 c -9.3,0 -19.49,2.44 -30.71,7.3 -3.07,1.34 -4.89,4.54 -4.45,7.86 l 15.69,120.44 c 0.52,4.11 4.26,7 8.39,6.47 4.12,-0.53 7.01,-4.3 6.48,-8.4 l -14.94,-114.7 c 15.54,-5.73 27.54,-5.24 37.45,1.43 3.43,2.32 8.09,1.41 10.41,-2.02 2.31,-3.43 1.41,-8.1 -2.03,-10.41 -7.87,-5.31 -16.59,-7.97 -26.29,-7.97" style="fill:#f3617c;fill-opacity:1;fill-rule:nonzero;stroke:none" id="path204"/>
      <path d="m 3928.93,3307.07 c -6.6,0 -12.81,0.41 -18.54,1.06 -34.28,3.95 -58.24,17.16 -59.25,17.72 -3.61,2.02 -4.91,6.59 -2.89,10.21 2.01,3.61 6.58,4.91 10.2,2.9 3.61,-2.01 89.39,-48.34 163.65,20.35 3.04,2.82 7.79,2.63 10.6,-0.41 2.81,-3.04 2.63,-7.79 -0.41,-10.6 -35.32,-32.67 -73.29,-41.23 -103.36,-41.23" style="fill:#f3617c;fill-opacity:1;fill-rule:nonzero;stroke:none" id="path206"/>
      <path d="m 3942.01,3263.09 c -17.45,0 -31.43,4.26 -32.41,4.56 -3.96,1.24 -6.15,5.44 -4.92,9.4 1.23,3.95 5.43,6.15 9.38,4.92 0.42,-0.12 34.75,-10.47 58.92,3.2 3.6,2.05 8.17,0.77 10.21,-2.84 2.04,-3.6 0.77,-8.18 -2.83,-10.22 -12.29,-6.95 -26.16,-9.02 -38.35,-9.02" style="fill:#f3617c;fill-opacity:1;fill-rule:nonzero;stroke:none" id="path208"/>
      <path d="m 3840.88,3547.27 c 0.37,-20.95 -7.35,-38.06 -17.24,-38.23 -9.89,-0.17 -18.2,16.66 -18.57,37.6 -0.36,20.94 7.36,38.06 17.24,38.23 9.9,0.17 18.21,-16.67 18.57,-37.6" style="fill:#392139;fill-opacity:1;fill-rule:nonzero;stroke:none" id="path210"/>
      <path d="m 4028.04,3547.27 c -0.36,-20.95 7.36,-38.06 17.24,-38.23 9.9,-0.17 18.21,16.66 18.58,37.6 0.36,20.94 -7.37,38.06 -17.25,38.23 -9.89,0.17 -18.2,-16.67 -18.57,-37.6" style="fill:#392139;fill-opacity:1;fill-rule:nonzero;stroke:none" id="path212"/>
      <path d="m 2168.44,1477.29 c 0,0 -41.71,-105.21 -18.28,-140.84 23.43,-35.65 68.52,35.21 68.52,35.21 0,0 -36.07,-128.83 14.17,-141.71 50.24,-12.88 103.9,97.77 103.9,97.77 0,0 -96.17,195.94 -168.31,149.57" style="fill:#392139;fill-opacity:1;fill-rule:nonzero;stroke:none" id="path214"/>
      <path d="m 2710.25,1477.29 c 0,0 41.71,-105.21 18.29,-140.84 -23.44,-35.65 -68.53,35.21 -68.53,35.21 0,0 36.07,-128.83 -14.17,-141.71 -50.23,-12.88 -103.9,97.77 -103.9,97.77 0,0 96.18,195.94 168.31,149.57" style="fill:#392139;fill-opacity:1;fill-rule:nonzero;stroke:none" id="path216"/>
      <path d="m 3123.82,732.309 h -1372 c 0,0 1.24,15.461 5.23,37.98 1.36,7.633 3.01,16.082 5.07,25.02 3.82,16.691 8.94,35.121 15.77,53.07 3.22,8.531 6.83,16.93 10.87,25.019 10.67,21.411 24.27,40.512 41.59,53.102 5.61,4.121 11.64,7.52 18.08,10.102 8.61,3.449 20.1,8.558 33.78,14.91 28.62,13.297 66.81,32.16 108.21,53.078 15.59,7.89 31.62,16.05 47.77,24.33 l 1.37,0.69 c 34.85,17.85 70.2,36.17 102.67,53.1 10.64,5.56 20.97,10.95 30.86,16.13 5.82,3.03 11.47,6 16.95,8.88 l 2.55,1.34 c 44.45,23.32 77.12,40.64 84.77,44.73 l 0.08,0.03 0.64,0.33 1.01,0.55 10.48,-2.38 c 13.12,-2.94 26.28,-5.45 39.5,-7.54 13.06,-2.11 26.17,-3.81 39.29,-5.1 72.42,-7.11 145.69,-2.14 216.81,14.94 l 0.33,0.08 c 0,0 32.62,-16.8 80.47,-41.2 3.68,-1.88 7.44,-3.81 11.31,-5.78 15.27,-7.78 31.86,-16.2 49.25,-25.01 15.75,-7.96 32.1,-16.24 48.77,-24.63 12.82,-6.44 25.79,-12.98 38.78,-19.48 6.01,-3.01 12.03,-6 18.01,-8.99 17.06,-8.53 33.98,-16.92 50.4,-25.02 42.45,-20.891 81.51,-39.758 110.58,-53.078 13.88,-6.352 25.5,-11.461 34.14,-14.91 6.43,-2.582 12.47,-5.981 18.08,-10.102 17.32,-12.59 30.92,-31.691 41.59,-53.102 4.04,-8.089 7.65,-16.488 10.86,-25.019 6.83,-17.949 11.96,-36.379 15.78,-53.07 2.03,-8.938 3.71,-17.387 5.07,-25.02 4,-22.519 5.23,-37.98 5.23,-37.98" style="fill:#346abd;fill-opacity:1;fill-rule:nonzero;stroke:none" id="path218"/>
      <path d="m 2726.53,1082.71 h -584.3 c 16.87,8.81 32.98,17.23 47.81,25.01 h 487.24 c 15.27,-7.78 31.86,-16.2 49.25,-25.01" style="fill:#3151a7;fill-opacity:1;fill-rule:nonzero;stroke:none" id="path220"/>
      <path d="m 2882.49,1004.59 h -892.07 c 15.59,7.89 31.62,16.05 47.77,24.33 l 1.37,0.69 h 792.53 c 17.06,-8.53 33.98,-16.92 50.4,-25.02" style="fill:#3151a7;fill-opacity:1;fill-rule:nonzero;stroke:none" id="path222"/>
      <path d="M 3045.29,926.5 H 1830.35 c 5.61,4.121 11.64,7.52 18.08,10.102 8.61,3.449 20.1,8.558 33.78,14.91 h 1110.86 c 13.88,-6.352 25.5,-11.461 34.14,-14.91 6.43,-2.582 12.47,-5.981 18.08,-10.102" style="fill:#3151a7;fill-opacity:1;fill-rule:nonzero;stroke:none" id="path224"/>
      <path d="M 3097.74,848.379 H 1777.89 c 3.22,8.531 6.83,16.93 10.87,25.019 h 1298.12 c 4.04,-8.089 7.65,-16.488 10.86,-25.019" style="fill:#3151a7;fill-opacity:1;fill-rule:nonzero;stroke:none" id="path226"/>
      <path d="M 3118.59,770.289 H 1757.05 c 1.36,7.633 3.01,16.082 5.07,25.02 h 1351.4 c 2.03,-8.938 3.71,-17.387 5.07,-25.02" style="fill:#3151a7;fill-opacity:1;fill-rule:nonzero;stroke:none" id="path228"/>
      <path d="m 2665.97,1113.5 c -15.73,-55.39 -83.71,-142.469 -228.15,-142.469 -149.44,0 -232.21,80.709 -264.73,127.809 5.82,3.03 11.47,6 16.95,8.88 l 2.55,1.34 c 44.45,23.32 77.12,40.64 84.77,44.73 l 0.08,0.03 0.64,0.33 1.01,0.55 10.48,-2.38 c 13.12,-2.94 26.28,-5.45 39.5,-7.54 13.06,-2.11 26.17,-3.81 39.29,-5.1 72.42,-7.11 145.69,-2.14 216.81,14.94 l 0.33,0.08 c 0,0 32.62,-16.8 80.47,-41.2" style="fill:#3151a7;fill-opacity:1;fill-rule:nonzero;stroke:none" id="path230"/>
      <path d="m 2592.48,1119.74 c 0,0 -26.9,-84.58 -150.55,-84.58 -144.2,0 -178.15,76.89 -178.15,76.89 12.53,33.21 21.15,63.97 26.95,91.46 h 0.04 c 10.69,50.36 12.19,89.92 11.53,114.18 l 253.35,10.03 c 2.35,-21.45 6.16,-46.7 10.46,-72.12 11.46,-67.48 26.37,-135.86 26.37,-135.86" style="fill:#f89c8f;fill-opacity:1;fill-rule:nonzero;stroke:none" id="path232"/>
      <path d="m 2566.11,1255.6 c -39.25,-27.3 -125.06,-67.93 -275.34,-52.09 10.69,50.36 12.19,89.92 11.53,114.18 l 253.35,10.03 c 2.35,-21.45 6.16,-46.7 10.46,-72.12" style="fill:#392139;fill-opacity:1;fill-rule:nonzero;stroke:none" id="path234"/>
      <path d="m 2205.6,1648.09 c 0,0 -78.41,106.71 -139.39,43.56 -60.99,-63.16 56.62,-283.14 163.34,-235.22 l -23.95,191.66" style="fill:#f89c8f;fill-opacity:1;fill-rule:nonzero;stroke:none" id="path236"/>
      <path d="m 2168.2,1521.97 c -2.66,0 -4.98,1.97 -5.36,4.67 -10.31,74.15 -69.24,119.66 -69.84,120.12 -2.38,1.8 -2.84,5.2 -1.04,7.59 1.81,2.38 5.21,2.84 7.6,1.03 2.56,-1.95 63.09,-48.71 74.01,-127.25 0.41,-2.96 -1.66,-5.7 -4.62,-6.11 l -0.75,-0.05" style="fill:#f3617c;fill-opacity:1;fill-rule:nonzero;stroke:none" id="path238"/>
      <path d="m 2151.78,1575.22 c -1.74,0 -3.45,0.84 -4.49,2.39 -7.88,11.64 -31.41,12.82 -39.78,12.3 -3.01,-0.21 -5.56,2.08 -5.75,5.07 -0.18,2.99 2.09,5.56 5.07,5.74 1.5,0.1 36.51,2.05 49.43,-17.04 1.68,-2.48 1.03,-5.85 -1.46,-7.52 -0.92,-0.63 -1.98,-0.94 -3.02,-0.94" style="fill:#f3617c;fill-opacity:1;fill-rule:nonzero;stroke:none" id="path240"/>
      <path d="m 2690.52,1648.09 c 0,0 78.41,106.71 139.39,43.56 60.99,-63.16 -56.63,-283.14 -163.35,-235.22 l 23.96,191.66" style="fill:#f89c8f;fill-opacity:1;fill-rule:nonzero;stroke:none" id="path242"/>
      <path d="m 2727.92,1521.97 -0.75,0.05 c -2.97,0.41 -5.04,3.15 -4.62,6.12 10.91,78.53 71.43,125.29 74.01,127.24 2.39,1.81 5.77,1.35 7.58,-1.03 1.82,-2.39 1.35,-5.79 -1.02,-7.59 -0.6,-0.46 -59.56,-46.13 -69.85,-120.12 -0.37,-2.7 -2.69,-4.67 -5.35,-4.67" style="fill:#f3617c;fill-opacity:1;fill-rule:nonzero;stroke:none" id="path244"/>
      <path d="m 2744.34,1575.22 c -1.05,0 -2.1,0.31 -3.04,0.94 -2.47,1.67 -3.13,5.04 -1.45,7.52 12.92,19.09 47.94,17.13 49.44,17.04 2.98,-0.18 5.24,-2.75 5.06,-5.73 -0.18,-2.99 -2.79,-5.28 -5.74,-5.08 -8.41,0.51 -31.94,-0.71 -39.78,-12.3 -1.06,-1.55 -2.76,-2.39 -4.49,-2.39" style="fill:#f3617c;fill-opacity:1;fill-rule:nonzero;stroke:none" id="path246"/>
      <path d="m 2510.54,1959.19 c -219.33,53.51 -371.02,-108.32 -350.75,-358.37 12.88,-158.82 93.89,-358.21 282.13,-362.65 196.18,-4.61 298.61,183.72 298.61,403.63 0,168.26 -56.54,261.79 -199.57,308.69 -9.91,3.25 -20.06,6.17 -30.42,8.7" style="fill:#f89c8f;fill-opacity:1;fill-rule:nonzero;stroke:none" id="path248"/>
      <path d="m 2129.47,1829.4 c 0,0 -43.36,-100.28 -27.72,-118.32 13.33,-15.36 33.82,-4.84 33.82,-4.84 0,0 -8.41,-109.57 38.05,-113.87 46.46,-4.29 40.67,201.17 40.67,201.17 0,0 76.88,-2.14 62.48,61.63 0,0 199.24,-37.89 352.97,2.57 0,0 -6.43,-61.45 45.51,-69.56 0,0 -30.05,-186.46 24.91,-200.15 54.97,-13.69 52.24,114.53 52.24,114.53 0,0 24.19,-0.27 33.66,9.06 22.57,22.23 -14.26,142.69 -74.73,221.7 -66.19,86.48 -396.77,250.77 -581.86,-103.92" style="fill:#392139;fill-opacity:1;fill-rule:nonzero;stroke:none" id="path250"/>
      <path d="m 2782.83,1852.75 c 0,0 -14.64,3.25 -41.04,7.55 -2.58,0.44 -5.26,0.85 -8.07,1.32 -26.92,4.2 -63.94,9.17 -108.72,13.09 -2.61,0.23 -5.23,0.46 -7.89,0.69 -31.99,2.63 -67.73,4.72 -106.41,5.62 -2.57,0.04 -5.15,0.1 -7.75,0.15 -33.31,0.62 -68.71,0.33 -105.71,-1.24 -2.58,-0.1 -5.15,-0.2 -7.75,-0.33 -34.45,-1.62 -70.21,-4.38 -106.9,-8.57 -2.63,-0.29 -5.26,-0.6 -7.88,-0.93 -35.84,-4.26 -72.51,-9.92 -109.63,-17.24 -2.68,-0.52 -5.36,-1.06 -8.07,-1.63 -14.01,-2.83 -28.08,-5.92 -42.2,-9.27 0,0 16.52,117.72 111.41,198.13 5.15,4.35 10.53,8.63 16.15,12.72 25.79,18.92 56.63,34.96 93.47,45.78 3.1,0.91 6.21,1.78 9.41,2.64 20.22,5.3 42.23,9.06 66.11,10.92 h 0.03 c 2.6,0.2 5.2,0.36 7.88,0.55 8.53,0.48 17.29,0.74 26.28,0.74 12.26,0 24.09,-0.44 35.5,-1.29 2.68,-0.21 5.34,-0.41 7.94,-0.67 24.12,-2.21 46.29,-6.28 66.67,-11.85 3.2,-0.85 6.32,-1.75 9.41,-2.71 h 0.03 c 37.35,-11.3 68.43,-27.64 94.27,-46.63 l 0.02,-0.03 c 5.59,-4.07 10.9,-8.27 15.98,-12.59 l 0.02,-0.03 c 90.98,-76.96 107.44,-184.89 107.44,-184.89" style="fill:#ef2f4b;fill-opacity:1;fill-rule:nonzero;stroke:none" id="path252"/>
      <path d="m 2242.37,2052.81 c -31.2,-53.15 -65.62,-125.29 -77.29,-199.95 -2.19,-13.82 -3.58,-27.72 -4.02,-41.61 l -7.73,0.23 c 0.44,13.27 1.7,26.57 3.68,39.75 10.33,69.26 40.04,136.4 69.21,188.86 5.15,4.35 10.53,8.63 16.15,12.72" style="fill:#bc2739;fill-opacity:1;fill-rule:nonzero;stroke:none" id="path254"/>
      <path d="m 2345.25,2101.23 c -19.68,-48.18 -51.09,-136.06 -62.66,-230.2 -2.42,-19.74 -3.97,-39.76 -4.35,-59.73 l -7.73,0.16 c 0.38,19.6 1.85,39.26 4.2,58.64 11.05,92.16 41.09,178.54 61.13,228.49 3.1,0.91 6.21,1.78 9.41,2.64" style="fill:#bc2739;fill-opacity:1;fill-rule:nonzero;stroke:none" id="path256"/>
      <path d="m 2419.27,2112.7 c -6.18,-43.86 -17.57,-134.29 -22.03,-232.77 -1.03,-22.59 -1.67,-45.59 -1.83,-68.58 l -7.73,0.06 c 0.16,22.85 0.8,45.73 1.81,68.19 4.4,97.8 15.63,187.79 21.87,232.55 h 0.03 c 2.6,0.2 5.2,0.36 7.88,0.55" style="fill:#bc2739;fill-opacity:1;fill-rule:nonzero;stroke:none" id="path258"/>
      <path d="m 2512.59,1811.41 -7.73,-0.06 c -0.16,23.4 -0.85,46.84 -1.91,69.82 -4.48,97.57 -15.71,187.1 -21.9,230.98 2.68,-0.21 5.34,-0.41 7.94,-0.67 6.23,-44.72 17.31,-133.69 21.71,-230.46 1.07,-22.93 1.73,-46.3 1.89,-69.61" style="fill:#bc2739;fill-opacity:1;fill-rule:nonzero;stroke:none" id="path260"/>
      <path d="m 2629.77,1811.46 -7.74,-0.16 c -0.41,21.46 -2.16,42.95 -4.92,64.1 -11.83,91.47 -42.04,176.51 -61.45,224.23 3.2,-0.85 6.32,-1.75 9.41,-2.71 h 0.03 c 19.68,-49.33 48.53,-132.81 59.9,-222.21 2.65,-20.87 4.36,-42.07 4.77,-63.25" style="fill:#bc2739;fill-opacity:1;fill-rule:nonzero;stroke:none" id="path262"/>
      <path d="m 2746.94,1811.48 -7.73,-0.23 c -0.54,16.83 -2.47,33.67 -5.49,50.37 -12.69,70.36 -44.75,137.86 -74.33,188.64 5.59,-4.07 10.9,-8.27 15.98,-12.59 l 0.02,-0.03 c 27.44,-49.78 55.11,-112.39 66.4,-177.34 2.83,-16.18 4.64,-32.51 5.15,-48.82" style="fill:#bc2739;fill-opacity:1;fill-rule:nonzero;stroke:none" id="path264"/>
      <path d="m 2098.35,1841.95 c 0,0 -18.31,-38.95 3.4,-96.18 0,0 218.78,130.86 691.57,8.49 0,0 29.61,33.49 0,94.04 0,0 -364.88,160.09 -694.97,-6.35" style="fill:#bc2739;fill-opacity:1;fill-rule:nonzero;stroke:none" id="path266"/>
      <path d="m 2457.58,1460.05 c -9.32,0 -19.54,2.44 -30.8,7.32 -3.16,1.37 -5.03,4.67 -4.58,8.09 l 15.68,120.45 c 0.55,4.23 4.45,7.21 8.66,6.67 4.24,-0.56 7.22,-4.44 6.67,-8.66 L 2438.3,1479.4 c 15.38,-5.64 27.26,-5.14 37.06,1.47 3.55,2.38 8.35,1.45 10.73,-2.09 2.39,-3.54 1.45,-8.34 -2.09,-10.73 -7.91,-5.34 -16.67,-8 -26.42,-8" style="fill:#f3617c;fill-opacity:1;fill-rule:nonzero;stroke:none" id="path268"/>
      <path d="m 2443.26,1380.63 c -44.29,0 -77.88,18.29 -78.46,18.61 -3.72,2.08 -5.05,6.79 -2.97,10.52 2.08,3.73 6.78,5.05 10.51,2.97 3.75,-2.07 89.32,-48.18 163.38,20.34 3.14,2.9 8.02,2.71 10.92,-0.43 2.9,-3.13 2.72,-8.02 -0.42,-10.92 -34.34,-31.78 -71.38,-41.09 -102.96,-41.09" style="fill:#f3617c;fill-opacity:1;fill-rule:nonzero;stroke:none" id="path270"/>
      <path d="m 2455.79,1336.45 c -17.49,0 -31.5,4.26 -32.48,4.57 -4.08,1.27 -6.35,5.6 -5.07,9.68 1.27,4.07 5.59,6.33 9.67,5.08 0.34,-0.11 34.62,-10.46 58.73,3.18 3.72,2.09 8.43,0.79 10.53,-2.92 2.1,-3.73 0.79,-8.44 -2.92,-10.54 -12.34,-6.97 -26.25,-9.05 -38.46,-9.05" style="fill:#f3617c;fill-opacity:1;fill-rule:nonzero;stroke:none" id="path272"/>
      <path d="m 2292.58,1679.88 c 16.64,8.95 40.93,19.98 64.55,23.44 12.69,1.85 20.67,14.61 16.35,26.68 l -0.88,2.44 c -3.12,8.73 -11.78,14.2 -20.99,13.22 -21.09,-2.23 -58.44,-9.62 -82.8,-33.9 -5.27,-5.26 -7.11,-13.07 -4.87,-20.18 3.78,-12.01 17.54,-17.65 28.64,-11.7" style="fill:#392139;fill-opacity:1;fill-rule:nonzero;stroke:none" id="path274"/>
      <path d="m 2612.46,1679.88 c -16.64,8.95 -40.94,19.98 -64.56,23.44 -12.69,1.85 -20.67,14.61 -16.35,26.68 l 0.88,2.44 c 3.13,8.73 11.79,14.2 21,13.22 21.08,-2.23 58.43,-9.62 82.79,-33.9 5.28,-5.26 7.11,-13.07 4.87,-20.18 -3.78,-12.01 -17.55,-17.65 -28.63,-11.7" style="fill:#392139;fill-opacity:1;fill-rule:nonzero;stroke:none" id="path276"/>
      <g id="g278">
        <g id="g280" clip-path="url(#clipPath284)">
          <path d="m 2192.85,1506.57 h 156.34 v 68.6484 h -156.34 z" style="fill:#f57f86;fill-opacity:1;fill-rule:nonzero;stroke:none" id="path286"/>
        </g>
      </g>
      <path d="m 2638.81,1506.57 c -43.18,0 -78.18,15.37 -78.18,34.33 0,18.96 35,34.32 78.18,34.32 43.17,0 78.17,-15.36 78.17,-34.32 0,-18.96 -35,-34.33 -78.17,-34.33" style="fill:#f57f86;fill-opacity:1;fill-rule:nonzero;stroke:none" id="path288"/>
      <path d="m 2354.66,1620.85 c 0.36,-20.94 -7.36,-38.06 -17.24,-38.23 -9.9,-0.17 -18.21,16.67 -18.57,37.6 -0.36,20.95 7.35,38.06 17.24,38.24 9.89,0.16 18.2,-16.67 18.57,-37.61" style="fill:#392139;fill-opacity:1;fill-rule:nonzero;stroke:none" id="path290"/>
      <path d="m 2541.82,1620.85 c -0.36,-20.94 7.35,-38.06 17.24,-38.23 9.89,-0.17 18.21,16.67 18.57,37.6 0.36,20.95 -7.36,38.06 -17.25,38.24 -9.89,0.16 -18.19,-16.67 -18.56,-37.61" style="fill:#392139;fill-opacity:1;fill-rule:nonzero;stroke:none" id="path292"/>
      <path d="m 4608.7,732.301 h -1372 c 0,0 13.8,171.148 96.62,204.301 33.48,13.378 110.18,51.546 189.76,92.298 29.55,15.12 59.47,30.6 87.72,45.3 2.98,1.55 5.95,3.1 8.88,4.63 23.14,12.07 45.02,23.49 64.37,33.67 42.62,22.37 73.13,38.57 78.93,41.65 l 0.99,0.53 10.48,-2.36 c 13.13,-2.95 26.3,-5.46 39.5,-7.54 13.07,-2.13 26.18,-3.83 39.3,-5.1 72.42,-7.13 145.7,-2.15 216.8,14.92 l 0.35,0.08 c 0,0 32.23,-16.6 79.57,-40.72 19.68,-10.06 42,-21.43 65.7,-33.43 3,-1.51 6,-3.03 9.03,-4.55 11.6,-5.85 23.47,-11.85 35.5,-17.9 12.8,-6.45 25.78,-13 38.77,-19.48 88.45,-44.268 177.03,-87.549 213.13,-101.998 82.8,-33.153 96.6,-204.301 96.6,-204.301" style="fill:#ef2f4b;fill-opacity:1;fill-rule:nonzero;stroke:none" id="path294"/>
      <path d="m 4224.7,1075.98 c -4.7,-13.72 -10.1,-27.76 -16.32,-41.75 -24.58,-55.269 -56.81,-99.359 -95.83,-131.031 -48.9,-39.687 -108.5,-59.82 -177.18,-59.82 -143.47,0 -232.02,84.07 -281.04,154.57 -18.33,26.351 -32.63,52.851 -43.53,76.251 2.98,1.55 5.95,3.1 8.88,4.63 10.72,-23.11 24.87,-49.33 43.02,-75.43 69.32,-99.548 161.08,-150.021 272.67,-150.021 120.56,0 209.33,62.23 263.86,184.891 6.3,14.18 11.75,28.38 16.44,42.26 3,-1.51 6,-3.03 9.03,-4.55" style="fill:#bc2739;fill-opacity:1;fill-rule:nonzero;stroke:none" id="path296"/>
      <path d="M 4149.97,1113.96 C 4132.7,1039.6 4067.25,926.5 3922.7,926.5 c -158.68,0 -218.3,128.4 -238.65,186 42.62,22.37 73.13,38.57 78.93,41.65 l 0.99,0.53 10.48,-2.36 c 13.13,-2.95 26.3,-5.46 39.5,-7.54 13.07,-2.13 26.18,-3.83 39.3,-5.1 72.42,-7.13 145.7,-2.15 216.8,14.92 l 0.35,0.08 c 0,0 32.23,-16.6 79.57,-40.72" style="fill:#feefe7;fill-opacity:1;fill-rule:nonzero;stroke:none" id="path298"/>
      <path d="m 4077.37,1119.74 c 0,0 -26.91,-84.58 -150.54,-84.58 -144.21,0 -178.16,76.89 -178.16,76.89 12.53,33.21 21.14,63.97 26.96,91.46 h 0.02 c 10.7,50.36 12.19,89.92 11.55,114.18 l 253.35,10.03 c 2.34,-21.45 6.15,-46.7 10.45,-72.12 11.46,-67.48 26.37,-135.86 26.37,-135.86" style="fill:#f89c8f;fill-opacity:1;fill-rule:nonzero;stroke:none" id="path300"/>
      <path d="m 4051,1255.6 c -39.25,-27.3 -125.06,-67.93 -275.35,-52.09 10.7,50.36 12.19,89.92 11.55,114.18 l 253.35,10.03 c 2.34,-21.45 6.15,-46.7 10.45,-72.12" style="fill:#392139;fill-opacity:1;fill-rule:nonzero;stroke:none" id="path302"/>
      <path d="m 3690.48,1648.09 c 0,0 -78.4,106.71 -139.39,43.56 -60.98,-63.16 56.62,-283.14 163.35,-235.22 l -23.96,191.66" style="fill:#f89c8f;fill-opacity:1;fill-rule:nonzero;stroke:none" id="path304"/>
      <path d="m 3653.09,1521.97 c -2.66,0 -4.98,1.97 -5.36,4.67 -10.31,74.15 -69.24,119.66 -69.84,120.12 -2.38,1.8 -2.85,5.2 -1.03,7.59 1.8,2.38 5.2,2.84 7.58,1.03 2.57,-1.95 63.1,-48.71 74.02,-127.25 0.41,-2.96 -1.65,-5.7 -4.62,-6.11 l -0.75,-0.05" style="fill:#f3617c;fill-opacity:1;fill-rule:nonzero;stroke:none" id="path306"/>
      <path d="m 3636.66,1575.22 c -1.73,0 -3.44,0.84 -4.48,2.39 -7.87,11.64 -31.41,12.82 -39.79,12.3 -3,-0.21 -5.55,2.08 -5.74,5.07 -0.19,2.99 2.09,5.56 5.07,5.74 1.49,0.1 36.51,2.05 49.42,-17.04 1.68,-2.48 1.04,-5.85 -1.44,-7.52 -0.93,-0.63 -1.99,-0.94 -3.04,-0.94" style="fill:#f3617c;fill-opacity:1;fill-rule:nonzero;stroke:none" id="path308"/>
      <path d="m 4168.13,1648.09 c 0,0 78.41,106.71 139.39,43.56 60.99,-63.16 -56.62,-283.14 -163.35,-235.22 l 23.96,191.66" style="fill:#f89c8f;fill-opacity:1;fill-rule:nonzero;stroke:none" id="path310"/>
      <path d="m 4205.53,1521.97 -0.75,0.05 c -2.96,0.41 -5.03,3.15 -4.62,6.12 10.91,78.53 71.44,125.29 74.01,127.24 2.39,1.81 5.78,1.35 7.59,-1.03 1.8,-2.39 1.35,-5.79 -1.04,-7.59 -0.59,-0.46 -59.55,-46.13 -69.83,-120.12 -0.38,-2.7 -2.71,-4.67 -5.36,-4.67" style="fill:#f3617c;fill-opacity:1;fill-rule:nonzero;stroke:none" id="path312"/>
      <path d="m 4221.94,1575.22 c -1.04,0 -2.1,0.31 -3.02,0.94 -2.48,1.67 -3.13,5.04 -1.45,7.52 12.91,19.09 47.94,17.13 49.42,17.04 2.99,-0.18 5.25,-2.75 5.07,-5.73 -0.18,-2.99 -2.79,-5.28 -5.73,-5.08 -8.42,0.51 -31.95,-0.71 -39.79,-12.3 -1.05,-1.55 -2.76,-2.39 -4.5,-2.39" style="fill:#f3617c;fill-opacity:1;fill-rule:nonzero;stroke:none" id="path314"/>
      <path d="m 3979.37,1979.02 c -223.46,0.11 -362.24,-115.69 -337.29,-381.49 14.89,-158.64 96.49,-354.92 284.73,-359.36 196.17,-4.61 274.9,209 302.92,371.07 25.63,148.33 -49.81,312.74 -192.85,359.64 -9.92,3.24 -44.96,10.13 -57.51,10.14" style="fill:#f89c8f;fill-opacity:1;fill-rule:nonzero;stroke:none" id="path316"/>
      <path d="m 3639.5,1646.04 c 0,0 -25.99,251.96 -26.76,307.81 -1.85,135.77 135.15,211.95 336.23,211.52 162.16,-0.35 182.14,-71.36 195.21,-128.83 0,0 119.89,-3.07 138.17,-86.67 18.29,-83.59 -57.8,-336.03 -57.8,-336.03 0,0 -25.52,58.11 -43.8,141.71 -18.29,83.59 -42.08,134.75 -94.32,135.8 -52.25,1.05 -117.56,-1.56 -188.1,-43.36 -70.54,-41.8 -141.06,-47.02 -190.7,-10.45 0,0 -13.26,-126.18 -68.13,-191.5" style="fill:#392139;fill-opacity:1;fill-rule:nonzero;stroke:none" id="path318"/>
      <path d="m 3755.91,1506.57 c -43.18,0 -78.17,15.37 -78.17,34.33 0,18.96 34.99,34.32 78.17,34.32 43.17,0 78.17,-15.36 78.17,-34.32 0,-18.96 -35,-34.33 -78.17,-34.33" style="fill:#f57f86;fill-opacity:1;fill-rule:nonzero;stroke:none" id="path320"/>
      <path d="m 4123.7,1506.57 c -43.17,0 -78.17,15.37 -78.17,34.33 0,18.96 35,34.32 78.17,34.32 43.18,0 78.18,-15.36 78.18,-34.32 0,-18.96 -35,-34.33 -78.18,-34.33" style="fill:#f57f86;fill-opacity:1;fill-rule:nonzero;stroke:none" id="path322"/>
      <path d="m 4231.25,1646.04 c 0,0 -1.7,-122.66 -38.23,-276.96 -58.6,-247.34 -259.6,-214.38 -259.6,-214.38 0,0 -197.1,-32.96 -255.7,214.38 -36.53,154.3 -38.23,276.96 -38.23,276.96 l 32.1,53.62 c 0,0 22.5,-213.1 104.06,-250.01 0,0 36.25,55.14 157.77,3.6 121.5,51.54 161.67,-3.6 161.67,-3.6 81.56,36.91 104.08,250.01 104.08,250.01 l 32.08,-53.62" style="fill:#392139;fill-opacity:1;fill-rule:nonzero;stroke:none" id="path324"/>
      <path d="m 3942.47,1474.22 c -9.33,0 -19.55,2.44 -30.8,7.32 -3.15,1.37 -5.03,4.67 -4.59,8.09 l 15.68,120.45 c 0.56,4.23 4.46,7.21 8.68,6.67 4.22,-0.56 7.21,-4.44 6.66,-8.66 l -14.92,-114.52 c 15.39,-5.64 27.26,-5.14 37.07,1.47 3.54,2.39 8.34,1.45 10.73,-2.09 2.39,-3.54 1.45,-8.34 -2.09,-10.73 -7.91,-5.34 -16.67,-8 -26.42,-8" style="fill:#f3617c;fill-opacity:1;fill-rule:nonzero;stroke:none" id="path326"/>
      <path d="m 3928.14,1380.63 c -44.27,0 -77.88,18.29 -78.44,18.61 -3.73,2.08 -5.07,6.79 -2.98,10.52 2.08,3.73 6.79,5.05 10.52,2.97 3.74,-2.07 89.31,-48.18 163.38,20.34 3.12,2.9 8.01,2.71 10.91,-0.43 2.9,-3.13 2.71,-8.02 -0.43,-10.92 -34.34,-31.78 -71.36,-41.09 -102.96,-41.09" style="fill:#693a68;fill-opacity:1;fill-rule:nonzero;stroke:none" id="path328"/>
      <path d="m 3940.68,1336.45 c -17.49,0 -31.5,4.26 -32.48,4.57 -4.08,1.27 -6.34,5.6 -5.07,9.68 1.26,4.07 5.59,6.33 9.66,5.08 0.34,-0.11 34.63,-10.46 58.74,3.18 3.71,2.09 8.43,0.79 10.53,-2.92 2.1,-3.73 0.79,-8.44 -2.92,-10.54 -12.33,-6.97 -26.25,-9.05 -38.46,-9.05" style="fill:#693a68;fill-opacity:1;fill-rule:nonzero;stroke:none" id="path330"/>
      <path d="m 3777.47,1679.88 c 16.64,8.95 40.93,19.98 64.55,23.44 12.7,1.85 20.68,14.61 16.35,26.68 l -0.88,2.44 c -3.12,8.73 -11.79,14.2 -21,13.22 -21.08,-2.23 -58.42,-9.62 -82.79,-33.9 -5.27,-5.26 -7.11,-13.07 -4.87,-20.18 3.78,-12.01 17.55,-17.65 28.64,-11.7" style="fill:#392139;fill-opacity:1;fill-rule:nonzero;stroke:none" id="path332"/>
      <path d="m 4097.34,1679.88 c -16.64,8.95 -40.92,19.98 -64.56,23.44 -12.68,1.85 -20.66,14.61 -16.33,26.68 l 0.86,2.44 c 3.13,8.73 11.79,14.2 21.01,13.22 21.07,-2.23 58.43,-9.62 82.79,-33.9 5.28,-5.26 7.11,-13.07 4.88,-20.18 -3.79,-12.01 -17.55,-17.65 -28.65,-11.7" style="fill:#392139;fill-opacity:1;fill-rule:nonzero;stroke:none" id="path334"/>
      <path d="m 3839.55,1620.85 c 0.36,-20.94 -7.36,-38.06 -17.25,-38.23 -9.89,-0.17 -18.2,16.67 -18.56,37.6 -0.37,20.95 7.35,38.06 17.24,38.24 9.89,0.16 18.2,-16.67 18.57,-37.61" style="fill:#392139;fill-opacity:1;fill-rule:nonzero;stroke:none" id="path336"/>
      <path d="m 4026.71,1620.85 c -0.37,-20.94 7.35,-38.06 17.24,-38.23 9.89,-0.17 18.2,16.67 18.57,37.6 0.36,20.95 -7.36,38.06 -17.25,38.24 -9.89,0.16 -18.2,-16.67 -18.56,-37.61" style="fill:#392139;fill-opacity:1;fill-rule:nonzero;stroke:none" id="path338"/>
      <path d="M 1661.69,732.289 H 289.691 c 0,0 1.161,14.453 4.844,35.793 1.856,10.656 4.328,23.047 7.598,36.219 4.742,19.008 11.156,39.66 19.765,59 4.766,10.738 10.204,21.097 16.438,30.59 12.598,19.23 28.34,34.828 47.973,42.679 17.132,6.86 45.629,20.231 80.046,37.102 4.766,2.348 9.665,4.75 14.637,7.219 l 0.102,0.05 c 9.457,4.688 19.25,9.59 29.32,14.641 11.52,5.768 23.371,11.768 35.402,17.878 57.274,29.08 118.825,61.08 168.809,87.26 7.879,4.12 15.457,8.12 22.695,11.93 h 0.028 c 4.765,2.5 9.351,4.92 13.808,7.24 l 0.051,0.02 c 39.598,20.87 65.75,34.76 65.75,34.76 l 10.488,-2.35 c 97.543,-21.84 198.775,-21.04 295.925,2.35 0,0 27.05,-13.94 68.05,-34.86 5.9,-3.01 12.08,-6.16 18.5,-9.43 2.73,-1.39 5.49,-2.78 8.29,-4.2 l 0.03,-0.03 c 28.39,-14.47 61.06,-31.04 94.94,-48.09 30.01,-15.13 60.96,-30.62 90.69,-45.33 12.58,-6.24 24.91,-12.31 36.9,-18.16 54.15,-26.531 100.58,-48.488 124.31,-58 19.48,-7.8 35.14,-23.23 47.71,-42.269 6.34,-9.61 11.91,-20.153 16.75,-31.11 8.63,-19.39 15.02,-40.082 19.76,-59.121 3.22,-12.91 5.65,-25.07 7.47,-35.578 3.74,-21.57 4.92,-36.203 4.92,-36.203" style="fill:#392139;fill-opacity:1;fill-rule:nonzero;stroke:none" id="path340"/>
      <path d="m 779.984,1095.41 c 0,-13.7 -11.101,-24.8 -24.808,-24.8 -13.707,0 -24.809,11.1 -24.809,24.8 0,6.7 2.653,12.78 6.953,17.24 h 0.028 c 4.765,2.5 9.351,4.92 13.808,7.24 l 0.051,0.02 c 1.289,0.21 2.633,0.31 3.969,0.31 13.707,0 24.808,-11.1 24.808,-24.81" style="fill:#693a68;fill-opacity:1;fill-rule:nonzero;stroke:none" id="path342"/>
      <path d="m 890.145,1095.41 c 0,-13.7 -11.102,-24.8 -24.801,-24.8 -13.703,0 -24.809,11.1 -24.809,24.8 0,13.7 11.106,24.8 24.809,24.8 13.699,0 24.801,-11.1 24.801,-24.8" style="fill:#693a68;fill-opacity:1;fill-rule:nonzero;stroke:none" id="path344"/>
      <path d="m 1000.32,1095.41 c 0,-13.7 -11.109,-24.8 -24.808,-24.8 -13.699,0 -24.805,11.1 -24.805,24.8 0,13.7 11.106,24.8 24.805,24.8 13.699,0 24.808,-11.1 24.808,-24.8" style="fill:#693a68;fill-opacity:1;fill-rule:nonzero;stroke:none" id="path346"/>
      <path d="m 1110.48,1095.41 c 0,-13.7 -11.1,-24.8 -24.8,-24.8 -13.7,0 -24.81,11.1 -24.81,24.8 0,13.7 11.11,24.8 24.81,24.8 13.7,0 24.8,-11.1 24.8,-24.8" style="fill:#693a68;fill-opacity:1;fill-rule:nonzero;stroke:none" id="path348"/>
      <path d="m 1220.66,1095.41 c 0,-13.7 -11.1,-24.8 -24.81,-24.8 -13.71,0 -24.81,11.1 -24.81,24.8 0,12.19 8.78,22.34 20.38,24.4 5.9,-3.01 12.08,-6.16 18.5,-9.43 2.73,-1.39 5.49,-2.78 8.29,-4.2 l 0.03,-0.03 c 1.55,-3.24 2.42,-6.9 2.42,-10.74" style="fill:#693a68;fill-opacity:1;fill-rule:nonzero;stroke:none" id="path350"/>
      <path d="m 559.648,991.219 c 0,-13.707 -11.128,-24.809 -24.808,-24.809 -13.707,0 -24.813,11.102 -24.813,24.809 0,1.492 0.129,2.941 0.387,4.363 11.52,5.768 23.371,11.768 35.402,17.878 8.192,-4.08 13.832,-12.5 13.832,-22.241" style="fill:#693a68;fill-opacity:1;fill-rule:nonzero;stroke:none" id="path352"/>
      <path d="m 669.809,991.211 c 0,-13.699 -11.11,-24.801 -24.805,-24.801 -13.699,0 -24.805,11.102 -24.805,24.801 0,13.699 11.106,24.809 24.805,24.809 13.695,0 24.805,-11.11 24.805,-24.809" style="fill:#693a68;fill-opacity:1;fill-rule:nonzero;stroke:none" id="path354"/>
      <path d="m 779.977,991.211 c 0,-13.699 -11.106,-24.801 -24.805,-24.801 -13.695,0 -24.805,11.102 -24.805,24.801 0,13.699 11.11,24.809 24.805,24.809 13.699,0 24.805,-11.11 24.805,-24.809" style="fill:#693a68;fill-opacity:1;fill-rule:nonzero;stroke:none" id="path356"/>
      <path d="m 890.145,991.211 c 0,-13.699 -11.102,-24.801 -24.801,-24.801 -13.703,0 -24.809,11.102 -24.809,24.801 0,13.699 11.106,24.809 24.809,24.809 13.699,0 24.801,-11.11 24.801,-24.809" style="fill:#693a68;fill-opacity:1;fill-rule:nonzero;stroke:none" id="path358"/>
      <path d="m 1000.32,991.211 c 0,-13.699 -11.109,-24.801 -24.808,-24.801 -13.699,0 -24.805,11.102 -24.805,24.801 0,13.699 11.106,24.809 24.805,24.809 13.699,0 24.808,-11.11 24.808,-24.809" style="fill:#693a68;fill-opacity:1;fill-rule:nonzero;stroke:none" id="path360"/>
      <path d="m 1110.48,991.211 c 0,-13.699 -11.1,-24.801 -24.8,-24.801 -13.7,0 -24.81,11.102 -24.81,24.801 0,13.699 11.11,24.809 24.81,24.809 13.7,0 24.8,-11.11 24.8,-24.809" style="fill:#693a68;fill-opacity:1;fill-rule:nonzero;stroke:none" id="path362"/>
      <path d="m 1220.65,991.211 c 0,-13.699 -11.1,-24.801 -24.8,-24.801 -13.7,0 -24.81,11.102 -24.81,24.801 0,13.699 11.11,24.809 24.81,24.809 13.7,0 24.8,-11.11 24.8,-24.809" style="fill:#693a68;fill-opacity:1;fill-rule:nonzero;stroke:none" id="path364"/>
      <path d="m 1330.83,991.211 c 0,-13.699 -11.11,-24.801 -24.81,-24.801 -13.7,0 -24.8,11.102 -24.8,24.801 0,13.699 11.1,24.809 24.8,24.809 13.7,0 24.81,-11.11 24.81,-24.809" style="fill:#693a68;fill-opacity:1;fill-rule:nonzero;stroke:none" id="path366"/>
      <path d="m 1441,991.219 c 0,-13.707 -11.11,-24.809 -24.81,-24.809 -13.71,0 -24.81,11.102 -24.81,24.809 0,9.201 5.02,17.241 12.49,21.511 12.58,-6.24 24.91,-12.31 36.9,-18.16 0.15,-1.101 0.23,-2.218 0.23,-3.351" style="fill:#693a68;fill-opacity:1;fill-rule:nonzero;stroke:none" id="path368"/>
      <path d="m 339.285,887 c 0,-11.129 -7.312,-20.531 -17.387,-23.699 4.766,10.738 10.204,21.097 16.438,30.59 0.617,-2.2 0.949,-4.493 0.949,-6.891" style="fill:#693a68;fill-opacity:1;fill-rule:nonzero;stroke:none" id="path370"/>
      <path d="m 449.469,887 c 0,-13.691 -11.106,-24.801 -24.805,-24.801 -13.695,0 -24.805,11.11 -24.805,24.801 0,13.699 11.11,24.809 24.805,24.809 13.699,0 24.805,-11.11 24.805,-24.809" style="fill:#693a68;fill-opacity:1;fill-rule:nonzero;stroke:none" id="path372"/>
      <path d="m 559.641,887 c 0,-13.691 -11.106,-24.801 -24.805,-24.801 -13.703,0 -24.809,11.11 -24.809,24.801 0,13.699 11.106,24.809 24.809,24.809 13.699,0 24.805,-11.11 24.805,-24.809" style="fill:#693a68;fill-opacity:1;fill-rule:nonzero;stroke:none" id="path374"/>
      <path d="m 669.809,887 c 0,-13.691 -11.11,-24.801 -24.805,-24.801 -13.699,0 -24.805,11.11 -24.805,24.801 0,13.699 11.106,24.809 24.805,24.809 13.695,0 24.805,-11.11 24.805,-24.809" style="fill:#693a68;fill-opacity:1;fill-rule:nonzero;stroke:none" id="path376"/>
      <path d="m 779.977,887 c 0,-13.691 -11.106,-24.801 -24.805,-24.801 -13.695,0 -24.805,11.11 -24.805,24.801 0,13.699 11.11,24.809 24.805,24.809 13.699,0 24.805,-11.11 24.805,-24.809" style="fill:#693a68;fill-opacity:1;fill-rule:nonzero;stroke:none" id="path378"/>
      <path d="m 890.145,887 c 0,-13.691 -11.102,-24.801 -24.801,-24.801 -13.703,0 -24.809,11.11 -24.809,24.801 0,13.699 11.106,24.809 24.809,24.809 13.699,0 24.801,-11.11 24.801,-24.809" style="fill:#693a68;fill-opacity:1;fill-rule:nonzero;stroke:none" id="path380"/>
      <path d="m 1000.32,887 c 0,-13.691 -11.109,-24.801 -24.808,-24.801 -13.699,0 -24.805,11.11 -24.805,24.801 0,13.699 11.106,24.809 24.805,24.809 13.699,0 24.808,-11.11 24.808,-24.809" style="fill:#693a68;fill-opacity:1;fill-rule:nonzero;stroke:none" id="path382"/>
      <path d="m 1110.48,887 c 0,-13.691 -11.1,-24.801 -24.8,-24.801 -13.7,0 -24.81,11.11 -24.81,24.801 0,13.699 11.11,24.809 24.81,24.809 13.7,0 24.8,-11.11 24.8,-24.809" style="fill:#693a68;fill-opacity:1;fill-rule:nonzero;stroke:none" id="path384"/>
      <path d="m 1220.65,887 c 0,-13.691 -11.1,-24.801 -24.8,-24.801 -13.7,0 -24.81,11.11 -24.81,24.801 0,13.699 11.11,24.809 24.81,24.809 13.7,0 24.8,-11.11 24.8,-24.809" style="fill:#693a68;fill-opacity:1;fill-rule:nonzero;stroke:none" id="path386"/>
      <path d="m 1330.83,887 c 0,-13.691 -11.11,-24.801 -24.81,-24.801 -13.7,0 -24.8,11.11 -24.8,24.801 0,13.699 11.1,24.809 24.8,24.809 13.7,0 24.81,-11.11 24.81,-24.809" style="fill:#693a68;fill-opacity:1;fill-rule:nonzero;stroke:none" id="path388"/>
      <path d="m 1440.99,887 c 0,-13.691 -11.1,-24.801 -24.8,-24.801 -13.7,0 -24.81,11.11 -24.81,24.801 0,13.699 11.11,24.809 24.81,24.809 13.7,0 24.8,-11.11 24.8,-24.809" style="fill:#693a68;fill-opacity:1;fill-rule:nonzero;stroke:none" id="path390"/>
      <path d="m 1551.16,887 c 0,-13.691 -11.1,-24.801 -24.8,-24.801 -13.7,0 -24.81,11.11 -24.81,24.801 0,13.699 11.11,24.809 24.81,24.809 13.7,0 24.8,-11.11 24.8,-24.809" style="fill:#693a68;fill-opacity:1;fill-rule:nonzero;stroke:none" id="path392"/>
      <path d="m 1629.54,863.191 c -10.31,3.02 -17.83,12.528 -17.83,23.809 0,2.551 0.39,5 1.08,7.301 6.34,-9.61 11.91,-20.153 16.75,-31.11" style="fill:#693a68;fill-opacity:1;fill-rule:nonzero;stroke:none" id="path394"/>
      <path d="m 339.285,782.809 c 0,-13.707 -11.101,-24.809 -24.781,-24.809 -8.195,0 -15.434,3.969 -19.969,10.082 1.856,10.656 4.328,23.047 7.598,36.219 3.633,2.09 7.863,3.301 12.371,3.301 13.68,0 24.781,-11.114 24.781,-24.793" style="fill:#693a68;fill-opacity:1;fill-rule:nonzero;stroke:none" id="path396"/>
      <path d="m 449.469,782.801 c 0,-13.699 -11.106,-24.801 -24.805,-24.801 -13.695,0 -24.805,11.102 -24.805,24.801 0,13.699 11.11,24.808 24.805,24.808 13.699,0 24.805,-11.109 24.805,-24.808" style="fill:#693a68;fill-opacity:1;fill-rule:nonzero;stroke:none" id="path398"/>
      <path d="m 559.641,782.801 c 0,-13.699 -11.106,-24.801 -24.805,-24.801 -13.703,0 -24.809,11.102 -24.809,24.801 0,13.699 11.106,24.808 24.809,24.808 13.699,0 24.805,-11.109 24.805,-24.808" style="fill:#693a68;fill-opacity:1;fill-rule:nonzero;stroke:none" id="path400"/>
      <path d="m 669.809,782.801 c 0,-13.699 -11.11,-24.801 -24.805,-24.801 -13.699,0 -24.805,11.102 -24.805,24.801 0,13.699 11.106,24.808 24.805,24.808 13.695,0 24.805,-11.109 24.805,-24.808" style="fill:#693a68;fill-opacity:1;fill-rule:nonzero;stroke:none" id="path402"/>
      <path d="m 779.977,782.801 c 0,-13.699 -11.106,-24.801 -24.805,-24.801 -13.695,0 -24.805,11.102 -24.805,24.801 0,13.699 11.11,24.808 24.805,24.808 13.699,0 24.805,-11.109 24.805,-24.808" style="fill:#693a68;fill-opacity:1;fill-rule:nonzero;stroke:none" id="path404"/>
      <path d="m 890.145,782.801 c 0,-13.699 -11.102,-24.801 -24.801,-24.801 -13.703,0 -24.809,11.102 -24.809,24.801 0,13.699 11.106,24.808 24.809,24.808 13.699,0 24.801,-11.109 24.801,-24.808" style="fill:#693a68;fill-opacity:1;fill-rule:nonzero;stroke:none" id="path406"/>
      <path d="m 1000.32,782.801 c 0,-13.699 -11.109,-24.801 -24.808,-24.801 -13.699,0 -24.805,11.102 -24.805,24.801 0,13.699 11.106,24.808 24.805,24.808 13.699,0 24.808,-11.109 24.808,-24.808" style="fill:#693a68;fill-opacity:1;fill-rule:nonzero;stroke:none" id="path408"/>
      <path d="m 1110.48,782.801 c 0,-13.699 -11.1,-24.801 -24.8,-24.801 -13.7,0 -24.81,11.102 -24.81,24.801 0,13.699 11.11,24.808 24.81,24.808 13.7,0 24.8,-11.109 24.8,-24.808" style="fill:#693a68;fill-opacity:1;fill-rule:nonzero;stroke:none" id="path410"/>
      <path d="m 1220.65,782.801 c 0,-13.699 -11.1,-24.801 -24.8,-24.801 -13.7,0 -24.81,11.102 -24.81,24.801 0,13.699 11.11,24.808 24.81,24.808 13.7,0 24.8,-11.109 24.8,-24.808" style="fill:#693a68;fill-opacity:1;fill-rule:nonzero;stroke:none" id="path412"/>
      <path d="m 1330.83,782.801 c 0,-13.699 -11.11,-24.801 -24.81,-24.801 -13.7,0 -24.8,11.102 -24.8,24.801 0,13.699 11.1,24.808 24.8,24.808 13.7,0 24.81,-11.109 24.81,-24.808" style="fill:#693a68;fill-opacity:1;fill-rule:nonzero;stroke:none" id="path414"/>
      <path d="m 1440.99,782.801 c 0,-13.699 -11.1,-24.801 -24.8,-24.801 -13.7,0 -24.81,11.102 -24.81,24.801 0,13.699 11.11,24.808 24.81,24.808 13.7,0 24.8,-11.109 24.8,-24.808" style="fill:#693a68;fill-opacity:1;fill-rule:nonzero;stroke:none" id="path416"/>
      <path d="m 1551.16,782.801 c 0,-13.699 -11.1,-24.801 -24.8,-24.801 -13.7,0 -24.81,11.102 -24.81,24.801 0,13.699 11.11,24.808 24.81,24.808 13.7,0 24.8,-11.109 24.8,-24.808" style="fill:#693a68;fill-opacity:1;fill-rule:nonzero;stroke:none" id="path418"/>
      <path d="M 1656.77,768.492 C 1652.29,762.148 1644.9,758 1636.52,758 c -13.7,0 -24.81,11.102 -24.81,24.809 0,13.679 11.11,24.793 24.81,24.793 4.67,0 9.05,-1.293 12.78,-3.532 3.22,-12.91 5.65,-25.07 7.47,-35.578" style="fill:#693a68;fill-opacity:1;fill-rule:nonzero;stroke:none" id="path420"/>
      <path d="m 1188.12,1121.51 c -24.74,-56.71 -49.52,-113.41 -74.36,-170.088 -32,-73.102 -64.12,-146.172 -96.43,-219.133 h -55.42 c -42.258,72.793 -85.515,144.981 -128.125,217.551 -17.238,29.351 -34.371,58.77 -51.273,88.29 -14.403,25.18 -28.34,50.61 -41.481,76.45 45.27,23.81 75.926,40.09 75.926,40.09 l 10.488,-2.35 c 97.543,-21.84 198.775,-21.04 295.925,2.35 0,0 25.61,-13.2 64.75,-33.16" style="fill:#f89c8f;fill-opacity:1;fill-rule:nonzero;stroke:none" id="path422"/>
      <path d="m 1113.76,951.422 c -32,-73.102 -64.12,-146.172 -96.43,-219.133 h -55.42 c -42.258,72.793 -85.515,144.981 -128.125,217.551 64.535,-17.981 165.07,-32.078 279.975,1.582" style="fill:#feefe7;fill-opacity:1;fill-rule:nonzero;stroke:none" id="path424"/>
      <path d="m 1130.36,1119.74 c 0,0 -26.91,-84.58 -150.551,-84.58 -144.204,0 -178.149,76.89 -178.149,76.89 12.528,33.21 21.145,63.97 26.949,91.46 h 0.039 c 10.684,50.36 12.18,89.92 11.532,114.18 l 253.35,10.03 c 2.34,-21.45 6.15,-46.7 10.46,-72.12 11.45,-67.48 26.37,-135.86 26.37,-135.86" style="fill:#f89c8f;fill-opacity:1;fill-rule:nonzero;stroke:none" id="path426"/>
      <path d="m 981.527,996.039 c -75.644,0 -125.117,38.771 -153.3,71.291 -30.407,35.1 -42.844,69.72 -43.364,71.18 -0.918,2.6 0.446,5.45 3.047,6.37 2.602,0.92 5.457,-0.44 6.383,-3.03 0.121,-0.35 12.453,-34.56 41.723,-68.24 38.972,-44.83 87.929,-67.57 145.511,-67.57 137.233,0 170.183,133.92 170.503,135.27 0.63,2.69 3.33,4.36 6.01,3.73 2.69,-0.63 4.36,-3.32 3.73,-6.01 -0.34,-1.46 -8.69,-36.2 -35.01,-71.41 -24.4,-32.66 -69.41,-71.581 -145.233,-71.581" style="fill:#feefe7;fill-opacity:1;fill-rule:nonzero;stroke:none" id="path428"/>
      <path d="m 1103.99,1255.6 c -39.25,-27.3 -125.064,-67.93 -275.342,-52.09 10.684,50.36 12.18,89.92 11.532,114.18 l 253.35,10.03 c 2.34,-21.45 6.15,-46.7 10.46,-72.12" style="fill:#392139;fill-opacity:1;fill-rule:nonzero;stroke:none" id="path430"/>
      <path d="m 743.473,1648.09 c 0,0 -78.41,106.71 -139.395,43.56 -60.98,-63.16 56.629,-283.14 163.348,-235.22 l -23.953,191.66" style="fill:#f89c8f;fill-opacity:1;fill-rule:nonzero;stroke:none" id="path432"/>
      <path d="m 699.215,1512.22 c 0,-12.05 -9.774,-21.82 -21.82,-21.82 -12.051,0 -21.821,9.77 -21.821,21.82 0,12.05 9.77,21.81 21.821,21.81 12.046,0 21.82,-9.76 21.82,-21.81" style="fill:#feefe7;fill-opacity:1;fill-rule:nonzero;stroke:none" id="path434"/>
      <path d="m 710.902,1521.97 c -2.656,0 -4.972,1.97 -5.355,4.67 -10.309,74.15 -69.242,119.66 -69.84,120.12 -2.379,1.8 -2.848,5.2 -1.035,7.59 1.808,2.38 5.199,2.84 7.59,1.03 2.566,-1.95 63.093,-48.71 74.011,-127.25 0.415,-2.96 -1.656,-5.7 -4.613,-6.11 l -0.758,-0.05" style="fill:#f3617c;fill-opacity:1;fill-rule:nonzero;stroke:none" id="path436"/>
      <path d="m 694.48,1575.22 c -1.73,0 -3.445,0.84 -4.492,2.39 -7.863,11.64 -31.402,12.82 -39.773,12.3 -3.008,-0.21 -5.559,2.08 -5.746,5.07 -0.188,2.99 2.086,5.56 5.066,5.74 1.496,0.1 36.516,2.05 49.43,-17.04 1.68,-2.48 1.023,-5.85 -1.453,-7.52 -0.93,-0.63 -1.985,-0.94 -3.032,-0.94" style="fill:#f3617c;fill-opacity:1;fill-rule:nonzero;stroke:none" id="path438"/>
      <path d="m 1221.12,1648.09 c 0,0 78.41,106.71 139.39,43.56 60.98,-63.16 -56.63,-283.14 -163.35,-235.22 l 23.96,191.66" style="fill:#f89c8f;fill-opacity:1;fill-rule:nonzero;stroke:none" id="path440"/>
      <path d="m 1303.03,1512.22 c 0,-12.05 -9.76,-21.82 -21.81,-21.82 -12.05,0 -21.83,9.77 -21.83,21.82 0,12.05 9.78,21.81 21.83,21.81 12.05,0 21.81,-9.76 21.81,-21.81" style="fill:#feefe7;fill-opacity:1;fill-rule:nonzero;stroke:none" id="path442"/>
      <path d="m 1252.66,1521.97 -0.75,0.05 c -2.96,0.41 -5.03,3.15 -4.62,6.11 10.92,78.54 71.45,125.3 74.01,127.25 2.39,1.81 5.78,1.35 7.59,-1.03 1.81,-2.39 1.35,-5.79 -1.03,-7.59 -0.59,-0.46 -59.55,-46.13 -69.84,-120.12 -0.37,-2.7 -2.7,-4.67 -5.36,-4.67" style="fill:#f3617c;fill-opacity:1;fill-rule:nonzero;stroke:none" id="path444"/>
      <path d="m 1269.08,1575.22 c -1.05,0 -2.1,0.31 -3.03,0.94 -2.48,1.67 -3.13,5.04 -1.45,7.52 12.91,19.09 47.94,17.13 49.43,17.04 2.98,-0.18 5.25,-2.75 5.06,-5.73 -0.17,-2.99 -2.78,-5.28 -5.73,-5.08 -8.42,0.51 -31.94,-0.71 -39.79,-12.3 -1.05,-1.55 -2.75,-2.39 -4.49,-2.39" style="fill:#f3617c;fill-opacity:1;fill-rule:nonzero;stroke:none" id="path446"/>
      <path d="m 1017.56,1968.02 c -231.665,6.76 -340.165,-117.19 -322.497,-373.11 10.976,-158.97 96.496,-352.3 284.734,-356.74 196.173,-4.62 285.463,217.95 289.723,382.37 4.48,172.89 -36.57,288.53 -179.61,335.43 -9.91,3.25 -61.69,11.74 -72.35,12.05" style="fill:#f89c8f;fill-opacity:1;fill-rule:nonzero;stroke:none" id="path448"/>
      <path d="m 1164.52,2051.14 c -1.31,-3.25 -2.76,-6.52 -4.31,-9.79 -14.37,-30.32 -38.77,-61.89 -75.51,-93.68 H 903.84 c 0,0 -64.902,35.84 -98.758,93.96 -1.777,3.07 -3.504,6.24 -5.102,9.43 -23.574,47.07 -25.199,107.18 40.504,173.91 130.028,132.1 396.076,2.89 324.036,-173.83" style="fill:#ef2f4b;fill-opacity:1;fill-rule:nonzero;stroke:none" id="path450"/>
      <path d="m 1160.21,2041.35 c -14.37,-30.32 -38.77,-61.89 -75.51,-93.68 H 903.84 c 0,0 -64.902,35.84 -98.758,93.96 21.152,12.85 96.992,38.8 172.301,20.74 0,0 98.767,24.9 182.827,-21.02" style="fill:#bc2739;fill-opacity:1;fill-rule:nonzero;stroke:none" id="path452"/>
      <path d="m 735.227,1719.43 c 0,0 246.3,63.74 246.3,192.28 0,0 56.643,-177.51 247.303,-192.28 l 41.01,-30.88 c 0,0 21.91,17.68 38.66,22.46 0,0 49.34,390.64 -327.598,338.39 0,0 -117.05,26.23 -213.476,-40.5 -139.578,-96.62 -83.871,-308.7 -83.871,-308.7 l 51.672,19.23" style="fill:#ef2f4b;fill-opacity:1;fill-rule:nonzero;stroke:none" id="path454"/>
      <path d="m 813.422,1545.22 c 0,-3.73 -3.024,-6.74 -6.746,-6.74 -3.727,0 -6.75,3.01 -6.75,6.74 0,3.73 3.023,6.75 6.75,6.75 3.722,0 6.746,-3.02 6.746,-6.75" style="fill:#f3617c;fill-opacity:1;fill-rule:nonzero;stroke:none" id="path456"/>
      <path d="m 846.371,1528.94 c 0,-3.73 -3.019,-6.75 -6.746,-6.75 -3.73,0 -6.75,3.02 -6.75,6.75 0,3.72 3.02,6.74 6.75,6.74 3.727,0 6.746,-3.02 6.746,-6.74" style="fill:#f3617c;fill-opacity:1;fill-rule:nonzero;stroke:none" id="path458"/>
      <path d="m 813.422,1505.47 c 0,-3.72 -3.024,-6.75 -6.746,-6.75 -3.727,0 -6.75,3.03 -6.75,6.75 0,3.73 3.023,6.75 6.75,6.75 3.722,0 6.746,-3.02 6.746,-6.75" style="fill:#f3617c;fill-opacity:1;fill-rule:nonzero;stroke:none" id="path460"/>
      <path d="m 865.219,1498.72 c 0,-3.73 -3.024,-6.75 -6.746,-6.75 -3.727,0 -6.75,3.02 -6.75,6.75 0,3.73 3.023,6.75 6.75,6.75 3.722,0 6.746,-3.02 6.746,-6.75" style="fill:#f3617c;fill-opacity:1;fill-rule:nonzero;stroke:none" id="path462"/>
      <path d="m 899.742,1505.47 c 0,-3.72 -3.019,-6.75 -6.75,-6.75 -3.722,0 -6.746,3.03 -6.746,6.75 0,3.73 3.024,6.75 6.746,6.75 3.731,0 6.75,-3.02 6.75,-6.75" style="fill:#f3617c;fill-opacity:1;fill-rule:nonzero;stroke:none" id="path464"/>
      <path d="m 884.047,1538.48 c 0,-3.73 -3.024,-6.75 -6.746,-6.75 -3.731,0 -6.754,3.02 -6.754,6.75 0,3.72 3.023,6.74 6.754,6.74 3.722,0 6.746,-3.02 6.746,-6.74" style="fill:#f3617c;fill-opacity:1;fill-rule:nonzero;stroke:none" id="path466"/>
      <path d="m 1156.9,1545.22 c 0,-3.73 3.02,-6.74 6.75,-6.74 3.73,0 6.75,3.01 6.75,6.74 0,3.73 -3.02,6.75 -6.75,6.75 -3.73,0 -6.75,-3.02 -6.75,-6.75" style="fill:#f3617c;fill-opacity:1;fill-rule:nonzero;stroke:none" id="path468"/>
      <path d="m 1123.96,1528.94 c 0,-3.73 3.01,-6.75 6.74,-6.75 3.73,0 6.75,3.02 6.75,6.75 0,3.72 -3.02,6.74 -6.75,6.74 -3.73,0 -6.74,-3.02 -6.74,-6.74" style="fill:#f3617c;fill-opacity:1;fill-rule:nonzero;stroke:none" id="path470"/>
      <path d="m 1156.9,1505.47 c 0,-3.72 3.02,-6.75 6.75,-6.75 3.73,0 6.75,3.03 6.75,6.75 0,3.73 -3.02,6.75 -6.75,6.75 -3.73,0 -6.75,-3.02 -6.75,-6.75" style="fill:#f3617c;fill-opacity:1;fill-rule:nonzero;stroke:none" id="path472"/>
      <path d="m 1105.1,1498.72 c 0,-3.73 3.03,-6.75 6.75,-6.75 3.73,0 6.75,3.02 6.75,6.75 0,3.73 -3.02,6.75 -6.75,6.75 -3.72,0 -6.75,-3.02 -6.75,-6.75" style="fill:#f3617c;fill-opacity:1;fill-rule:nonzero;stroke:none" id="path474"/>
      <path d="m 1070.58,1505.47 c 0,-3.72 3.02,-6.75 6.75,-6.75 3.73,0 6.75,3.03 6.75,6.75 0,3.73 -3.02,6.75 -6.75,6.75 -3.73,0 -6.75,-3.02 -6.75,-6.75" style="fill:#f3617c;fill-opacity:1;fill-rule:nonzero;stroke:none" id="path476"/>
      <path d="m 1086.28,1538.48 c 0,-3.73 3.02,-6.75 6.75,-6.75 3.72,0 6.75,3.02 6.75,6.75 0,3.72 -3.03,6.74 -6.75,6.74 -3.73,0 -6.75,-3.02 -6.75,-6.74" style="fill:#f3617c;fill-opacity:1;fill-rule:nonzero;stroke:none" id="path478"/>
      <path d="m 704.309,1549.39 c 0,0 46.375,97.9 30.918,170.04 l -60.887,38.7 c 0,0 9.465,-148.22 29.969,-208.74" style="fill:#ef2f4b;fill-opacity:1;fill-rule:nonzero;stroke:none" id="path480"/>
      <path d="m 1259.75,1549.39 c 0,0 -46.38,97.9 -30.92,170.04 l 50.68,14.77 c 0,0 7.72,-123.83 -19.76,-184.81" style="fill:#ef2f4b;fill-opacity:1;fill-rule:nonzero;stroke:none" id="path482"/>
      <path d="m 789.848,1666.19 c 0,0 12.547,31.04 55.054,57.54 53.711,33.5 92.418,-24.12 92.418,-24.12 0,0 -42.14,14.68 -74.504,4.36 -31.656,-10.07 -72.968,-37.78 -72.968,-37.78" style="fill:#ef2f4b;fill-opacity:1;fill-rule:nonzero;stroke:none" id="path484"/>
      <path d="m 1185.64,1666.19 c 0,0 -12.54,31.04 -55.05,57.54 -53.71,33.5 -92.42,-24.12 -92.42,-24.12 0,0 42.14,14.68 74.5,4.36 31.66,-10.07 72.97,-37.78 72.97,-37.78" style="fill:#ef2f4b;fill-opacity:1;fill-rule:nonzero;stroke:none" id="path486"/>
      <path d="m 995.453,1460.27 c -9.293,0 -19.48,2.44 -30.703,7.31 -3.066,1.33 -4.883,4.53 -4.453,7.85 l 15.683,120.45 c 0.54,4.1 4.313,7.01 8.411,6.46 4.105,-0.53 7,-4.29 6.468,-8.4 l -14.937,-114.69 c 15.543,-5.73 27.538,-5.25 37.438,1.42 3.44,2.33 8.1,1.41 10.41,-2.02 2.32,-3.44 1.42,-8.09 -2.02,-10.41 -7.87,-5.31 -16.59,-7.97 -26.297,-7.97" style="fill:#f3617c;fill-opacity:1;fill-rule:nonzero;stroke:none" id="path488"/>
      <path d="m 980.582,1380.65 c -6.598,0 -12.812,0.41 -18.535,1.07 -34.281,3.95 -58.246,17.16 -59.254,17.72 -3.617,2.02 -4.91,6.59 -2.891,10.21 2.016,3.6 6.582,4.91 10.196,2.89 3.613,-2 89.394,-48.33 163.652,20.36 3.04,2.81 7.79,2.63 10.6,-0.41 2.81,-3.05 2.63,-7.79 -0.41,-10.61 -35.32,-32.66 -73.29,-41.23 -103.358,-41.23" style="fill:#f3617c;fill-opacity:1;fill-rule:nonzero;stroke:none" id="path490"/>
      <path d="m 993.668,1336.67 c -17.453,0 -31.441,4.26 -32.414,4.57 -3.953,1.23 -6.16,5.44 -4.926,9.38 1.235,3.96 5.442,6.17 9.391,4.94 0.508,-0.16 34.761,-10.45 58.911,3.2 3.6,2.03 8.18,0.76 10.22,-2.84 2.03,-3.61 0.77,-8.19 -2.84,-10.22 -12.3,-6.95 -26.17,-9.03 -38.342,-9.03" style="fill:#f3617c;fill-opacity:1;fill-rule:nonzero;stroke:none" id="path492"/>
      <path d="m 892.535,1620.85 c 0.36,-20.94 -7.359,-38.06 -17.246,-38.23 -9.891,-0.17 -18.203,16.67 -18.566,37.6 -0.368,20.95 7.355,38.06 17.242,38.24 9.89,0.16 18.203,-16.67 18.57,-37.61" style="fill:#392139;fill-opacity:1;fill-rule:nonzero;stroke:none" id="path494"/>
      <path d="m 1079.69,1620.85 c -0.36,-20.94 7.36,-38.06 17.24,-38.23 9.9,-0.17 18.21,16.67 18.57,37.6 0.36,20.95 -7.36,38.06 -17.24,38.24 -9.89,0.16 -18.2,-16.67 -18.57,-37.61" style="fill:#392139;fill-opacity:1;fill-rule:nonzero;stroke:none" id="path496"/>
      <path d="m 855.398,1695.2 c -58.23,0 -105.601,-47.39 -105.601,-105.61 0,-58.23 47.371,-105.62 105.601,-105.62 58.235,0 105.61,47.39 105.61,105.62 0,58.22 -47.375,105.61 -105.61,105.61 z m 0,-221.23 c -63.742,0 -115.601,51.87 -115.601,115.62 0,63.74 51.859,115.61 115.601,115.61 63.747,0 115.61,-51.87 115.61,-115.61 0,-63.75 -51.863,-115.62 -115.61,-115.62" style="fill:#ffffff;fill-opacity:1;fill-rule:nonzero;stroke:none" id="path498"/>
      <path d="m 1115.51,1695.2 c -58.22,0 -105.6,-47.39 -105.6,-105.61 0,-58.23 47.38,-105.62 105.6,-105.62 58.24,0 105.61,47.39 105.61,105.62 0,58.22 -47.37,105.61 -105.61,105.61 z m 0,-221.23 c -63.74,0 -115.604,51.87 -115.604,115.62 0,63.74 51.864,115.61 115.604,115.61 63.75,0 115.61,-51.87 115.61,-115.61 0,-63.75 -51.86,-115.62 -115.61,-115.62" style="fill:#ffffff;fill-opacity:1;fill-rule:nonzero;stroke:none" id="path500"/>
      <path d="m 757.875,1636.8 c -1.684,0 -3.324,0.85 -4.27,2.38 -0.32,0.52 -32.328,52 -81.039,70.47 -2.582,0.97 -3.878,3.87 -2.902,6.44 0.981,2.59 3.859,3.89 6.449,2.9 51.961,-19.69 84.653,-72.36 86.02,-74.59 1.441,-2.35 0.703,-5.43 -1.653,-6.87 l -2.605,-0.73" style="fill:#ffffff;fill-opacity:1;fill-rule:nonzero;stroke:none" id="path502"/>
      <path d="m 1221.9,1636.8 c -0.94,0 -1.89,0.26 -2.73,0.81 -2.31,1.5 -2.96,4.6 -1.46,6.91 1.52,2.33 37.71,57.25 89.61,76.93 2.58,0.97 5.46,-0.33 6.44,-2.91 0.99,-2.58 -0.32,-5.47 -2.9,-6.45 -48.79,-18.5 -84.41,-72.48 -84.77,-73.03 -0.96,-1.46 -2.56,-2.26 -4.19,-2.26" style="fill:#ffffff;fill-opacity:1;fill-rule:nonzero;stroke:none" id="path504"/>
      <path d="m 1004.9,1600.3 c -2.53,0 -4.7,1.92 -4.962,4.49 -0.172,1.49 -2.079,14.79 -15.422,14.79 -13.164,0 -14.528,-13.12 -14.637,-14.62 -0.207,-2.74 -2.578,-4.85 -5.336,-4.63 -2.746,0.2 -4.82,2.55 -4.645,5.29 0.536,8.29 6.368,23.96 24.618,23.96 18.114,0 24.514,-15.54 25.364,-23.76 0.29,-2.74 -1.71,-5.2 -4.46,-5.49 l -0.52,-0.03" style="fill:#ffffff;fill-opacity:1;fill-rule:nonzero;stroke:none" id="path506"/>
    </g>
  </g>
</svg>