<?xml version="1.0" encoding="utf-8"?>
<svg viewBox="526.621 29.728 527.303 486.958" xmlns="http://www.w3.org/2000/svg">
  <g id="g8" transform="matrix(1.333333, 0, 0, -1.333333, 0, 1066.666748)">
    <g id="g10" transform="scale(0.1)">
      <path d="M 0,0 H 8000 V 8000 H 0 V 0" style="fill-rule: nonzero; stroke: none; fill: none;" id="path12"/>
      <path d="m 2462.48,5599.61 v 0 0 z" style="fill: rgb(255, 255, 255); fill-rule: evenodd; stroke: none;" id="path32"/>
      <path style="fill: rgb(48, 68, 91); fill-rule: evenodd; stroke: none;" id="path58" d="m 7476.77,5875.35 c 0,861.89 -699.39,1561.27 -1561.27,1561.27 -861.87,0 -1561.27,-699.38 -1561.27,-1561.27 0,-861.89 699.4,-1561.29 1561.27,-1561.29 861.88,0 1561.27,699.4 1561.27,1561.29 v 0"/>
      <path style="fill: rgb(239, 177, 104); fill-rule: evenodd; stroke: none;" id="path60" d="m 6189.41,5535.7 h -545.98 c 83.99,-250.16 5.48,-365.22 5.48,-365.22 0,0 118.69,-40.16 266.59,-40.16 147.89,0 266.6,40.16 266.6,40.16 0,0 -78.53,115.06 7.31,365.22 v 0"/>
      <path style="fill: rgb(80, 168, 173); fill-rule: evenodd; stroke: none;" id="path62" d="m 5517.43,5150.42 c -12.77,-5.48 -25.58,-10.98 -38.36,-16.45 m 38.36,16.45 v 0 c -12.77,-5.48 -25.58,-10.98 -38.36,-16.45 v 0 c -5.46,-3.65 -12.76,-7.3 -18.27,-9.13 v 0 c -5.47,-3.64 -12.77,-5.47 -18.25,-9.11 v 0 c -5.47,-3.65 -10.92,-5.52 -18.26,-9.16 v 0 c -5.48,-1.82 -10.96,-5.48 -16.42,-7.3 v 0 c -5.47,-3.65 -10.95,-5.47 -16.47,-9.12 v 0 c -5.47,-1.82 -10.95,-5.47 -16.4,-7.3 v 0 c -5.47,-3.64 -10.95,-5.47 -16.41,-7.3 v 0 c -5.53,-3.68 -9.17,-5.5 -14.64,-9.14 v 0 c -5.48,-1.83 -10.96,-5.48 -14.59,-7.31 v 0 c -5.5,-1.82 -10.99,-5.46 -14.63,-7.29 v 0 c -5.47,-1.83 -10.97,-5.48 -14.61,-7.31 v 0 c -5.47,-1.84 -9.11,-5.49 -14.62,-7.32 v 0 c -3.64,-1.82 -9.13,-5.48 -12.77,-7.3 v 0 c -3.65,-1.82 -9.11,-5.47 -12.78,-7.29 v 0 c -5.48,-1.83 -9.13,-3.64 -12.8,-7.3 -3.63,-1.83 -9.11,-3.64 -12.76,-5.48 -3.64,-1.82 -7.3,-5.5 -10.96,-7.33 v 0 c -5.51,-1.82 -9.13,-3.64 -12.8,-5.47 v 0 l -10.93,-7.3 c -3.66,-1.82 -7.31,-3.64 -10.97,-5.47 v 0 c -3.66,-1.82 -7.32,-5.48 -10.95,-7.3 -3.66,-1.82 -5.46,-3.67 -9.13,-5.51 l -10.95,-5.46 v 0 c -3.64,-1.82 -5.5,-3.65 -9.15,-5.48 -3.64,-1.81 -5.48,-3.65 -9.12,-5.47 v 0 c -3.63,-1.83 -5.47,-3.64 -9.11,-5.48 l -9.15,-5.46 -7.3,-5.47 -9.13,-5.51 c -1.83,-1.83 -5.47,-3.66 -7.3,-5.47 l -7.3,-5.48 c -3.64,0 -5.5,-1.82 -7.33,-3.64 l -7.3,-5.48 -7.29,-3.65 v 0 l -5.46,-5.51 -7.31,-3.64 -5.49,-3.64 -5.48,-5.49 -5.49,-3.64 v 0 l -5.46,-3.65 -5.46,-3.65 -5.49,-3.66 -3.64,-3.64 -5.51,-3.69 v 0 l -3.64,-3.64 -3.65,-3.64 -5.5,-3.65 -3.63,-1.82 -3.67,-3.66 -3.63,-1.82 -1.83,-3.65 -3.67,-1.83 -3.67,-3.64 -1.8,-1.83 c -31.05,-27.39 -58.44,-80.36 -80.35,-147.92 272.09,-235.56 628.17,-378.01 1017.11,-378.01 388.95,0 745.02,142.45 1018.95,378.01 -23.75,67.56 -49.32,120.53 -80.36,147.92 -54.78,47.47 -177.14,144.25 -567.9,323.19 v 1.82 l -73.04,32.88 c -12.8,5.47 -25.56,10.94 -36.52,16.46 l -261.13,-513.16 -257.5,513.16 67.58,14.59 -74.87,-16.43 v 0 c -27.39,-12.79 -52.95,-23.74 -78.51,-36.54 l -3.62,-1.82 v 0 c -18.3,-7.31 -34.71,-14.6 -51.15,-23.72 v 0"/>
      <path style="fill: rgb(255, 255, 255); fill-rule: evenodd; stroke: none;" id="path64" d="m 6196.72,5203.35 -20.09,10.99 -261.13,-513.16 -257.5,513.16 -7.29,-1.84 v 0 l -16.41,-7.32 281.2,-560.57 281.22,558.74"/>
      <path style="fill: rgb(239, 177, 104); fill-rule: evenodd; stroke: none;" id="path66" d="m 6176.63,5214.34 -73.06,10.93 -377.99,3.66 -67.58,-14.59 257.5,-513.16 261.13,513.16"/>
      <path style="fill: rgb(251, 204, 135); fill-rule: evenodd; stroke: none;" id="path68" d="m 5362.21,6094.46 c -138.78,25.56 -20.09,-385.29 78.51,-323.2 l 54.8,-158.87 c 47.46,-142.43 169.81,-272.08 262.93,-374.34 36.53,-40.17 259.32,-40.17 295.84,-1.82 102.25,107.72 224.56,230.08 270.26,377.98 l 49.27,157.05 c 100.43,-62.09 217.33,348.76 80.37,323.2 9.12,319.56 -215.48,630 -545.98,631.82 -330.52,-1.82 -556.96,-312.26 -546,-631.82 v 0"/>
      <path style="fill: rgb(31, 22, 19); fill-rule: evenodd; stroke: none;" id="path70" d="m 5462.64,5767.61 c 0,0 -164.33,367.05 -102.24,682.95 0,0 36.52,312.24 372.49,368.86 0,0 341.47,94.93 460.16,-93.14 0,0 304.96,-16.45 299.5,-284.85 0,0 -11,-430.95 -164.38,-673.82 0,0 65.74,337.82 -36.5,416.34 0,0 49.28,191.74 -73.04,200.85 0,0 -166.15,-127.82 -352.44,-158.86 0,0 126,63.91 177.15,168 0,0 -264.79,-193.57 -491.23,-233.75 0,0 80.36,76.72 120.53,200.87 0,0 -120.53,-166.17 -197.22,-220.93 l -12.78,-372.52"/>
      <path d="m 6317.24,5199.71 v 0 0 z" style="fill: rgb(255, 255, 255); fill-rule: evenodd; stroke: none;" id="path72"/>
      <path style="fill: rgb(255, 255, 255); fill-rule: evenodd; stroke: none;" id="path74" d="m 6233.22,5208.82 v 0 0"/>
    </g>
  </g>
</svg>