<?xml version="1.0" encoding="utf-8"?>
<svg viewBox="15.484 24.17 532.633 518.676" xmlns="http://www.w3.org/2000/svg">
  <g id="g8" transform="matrix(1.333333, 0, 0, -1.333333, 0, 1066.666748)">
    <g id="g10" transform="scale(0.1)">
      <path d="M 0,0 H 8000 V 8000 H 0 V 0" style="fill-rule: nonzero; stroke: none; fill: none;" id="path12"/>
      <path d="m 3645.73,5875.35 c 0,861.89 -699.36,1561.27 -1561.25,1561.27 -863.74,0 -1561.265,-699.38 -1561.265,-1561.27 0,-861.89 697.525,-1561.29 1561.265,-1561.29 861.89,0 1561.25,699.4 1561.25,1561.29 v 0" style="fill: rgb(244, 108, 93); fill-rule: evenodd; stroke: none;" id="path22"/>
      <path d="m 1839.77,5347.63 c -538.7,-235.55 -699.35,-361.56 -763.27,-418.19 -34.7,-29.21 -63.91,-89.45 -89.492,-166.17 281.242,-277.55 670.172,-449.21 1097.472,-449.21 427.29,0 814.39,171.66 1095.62,449.21 -25.56,76.72 -54.79,136.96 -89.47,166.17 -63.94,56.63 -219.12,178.95 -757.81,416.34 l -493.05,1.85" style="fill: rgb(252, 215, 200); fill-rule: evenodd; stroke: none;" id="path24"/>
      <path d="m 1839.77,5347.63 c -538.7,-235.55 -699.35,-361.56 -763.27,-418.19 -34.7,-29.21 -63.91,-89.45 -89.492,-166.17 281.242,-277.55 670.172,-449.21 1097.472,-449.21 427.29,0 814.39,171.66 1095.62,449.21 -25.56,76.72 -54.79,136.96 -89.47,166.17 -63.94,56.63 -219.12,178.95 -757.81,416.34 l -493.05,1.85" style="fill: rgb(46, 45, 45); fill-rule: evenodd; stroke: none;" id="path26"/>
      <path d="m 2374.81,5674.48 h -580.68 c 89.5,-343.3 7.3,-498.52 7.3,-498.52 0,0 126,-127.8 283.05,-127.8 155.21,0 281.22,127.8 281.22,127.8 0,0 -82.2,155.22 9.11,498.52 v 0" style="fill: rgb(239, 177, 104); fill-rule: evenodd; stroke: none;" id="path28"/>
      <path d="m 1576.84,6183.95 c -126,23.74 -18.27,-356.07 74.86,-299.48 l 49.3,-146.08 c 45.67,-133.3 158.87,-251.97 244.67,-346.93 32.88,-38.35 239.22,-36.53 273.91,-1.84 94.97,100.44 208.19,213.64 250.19,348.77 l 45.65,146.08 c 93.12,-56.59 202.69,323.22 74.85,299.48 9.16,295.81 -200.86,582.49 -505.79,584.33 -306.8,-1.84 -516.79,-288.52 -507.64,-584.33 v 0" style="fill: rgb(251, 204, 135); fill-rule: evenodd; stroke: none;" id="path30"/>
      <path d="m 2462.48,5599.61 v 0 0 z" style="fill: rgb(255, 255, 255); fill-rule: evenodd; stroke: none;" id="path32"/>
      <path d="m 2383.93,5608.75 v 0 0" style="fill: rgb(255, 255, 255); fill-rule: evenodd; stroke: none;" id="path34"/>
      <path d="m 2084.48,5091.98 c 0,0 -363.38,-85.81 -363.38,-109.56 0,-16.45 83.98,-456.53 120.51,-650.08 78.54,-12.79 160.69,-18.28 242.87,-18.28 94.94,0 186.25,7.31 277.56,23.77 l 49.29,642.77 -326.85,111.38" style="fill: rgb(232, 232, 232); fill-rule: evenodd; stroke: none;" id="path36"/>
      <path d="m 1821.53,5340.31 v -118.68 l 105.9,-900.26 c -85.82,9.17 -168,23.74 -248.33,45.68 l -153.4,312.25 204.52,136.95 -250.16,116.85 230.05,357.92 111.42,49.29" style="fill: rgb(27, 24, 24); fill-rule: evenodd; stroke: none;" id="path38"/>
      <path d="m 2345.59,5340.31 v -118.68 l -105.9,-900.26 c 83.99,7.33 166.16,23.74 246.51,43.85 l 155.23,314.08 -206.35,136.95 251.98,116.85 -206.34,346.97 -135.13,60.24" style="fill: rgb(27, 24, 24); fill-rule: evenodd; stroke: none;" id="path40"/>
      <path d="m 1971.25,4971.43 63.91,-98.57 c 32.88,0 65.74,0 96.79,0 l 63.91,98.57 -111.38,120.55 -113.23,-120.55" style="fill: rgb(79, 169, 226); fill-rule: evenodd; stroke: none;" id="path42"/>
      <path d="m 2035.16,4872.86 -80.33,-553.31 c 42,-3.65 85.82,-5.49 129.65,-5.49 41.99,0 85.82,1.84 127.81,5.49 l -80.34,553.31 h -96.79" style="fill: rgb(79, 169, 226); fill-rule: evenodd; stroke: none;" id="path44"/>
      <path d="m 1836.11,5402.4 -36.5,-71.22 63.9,-463.82 220.97,224.62 -248.37,310.42" style="fill: rgb(255, 255, 255); fill-rule: evenodd; stroke: none;" id="path46"/>
      <path d="m 2332.82,5402.4 31.04,-71.22 -60.27,-467.47 -219.11,228.27 248.34,310.42" style="fill: rgb(255, 255, 255); fill-rule: evenodd; stroke: none;" id="path48"/>
      <path d="m 2033.34,4869.17 v 0 l 1.82,3.69 z m 100.44,0 v 0 l -1.83,3.69 1.83,-3.69" style="fill: rgb(140, 166, 172); fill-rule: evenodd; stroke: none;" id="path50"/>
      <path d="m 2133.78,4869.17 h -100.44 l 1.82,3.69 h 96.79 l 1.83,-3.69" style="fill: rgb(68, 150, 210); fill-rule: evenodd; stroke: none;" id="path52"/>
      <path d="m 1653.54,5878.99 c -43.83,151.58 -127.84,434.61 -87.67,514.95 0,0 -91.29,122.35 38.34,239.2 0,0 18.27,191.74 219.14,87.67 0,0 80.33,224.58 544.16,65.73 l -71.21,-12.79 c 356.07,-195.37 372.51,-204.51 292.16,-604.4 -16.43,-76.72 -49.3,-160.7 -69.4,-272.08 0,0 32.87,235.53 -43.81,321.37 0,0 62.08,155.23 -54.79,217.29 0,0 -73.04,54.79 -136.96,7.33 0,0 -217.3,-54.8 -345.11,5.47 0,0 -115.04,54.76 -171.66,-16.45 0,0 -78.5,-67.56 -29.22,-224.59 0,0 -96.78,-18.27 -83.97,-328.7 v 0" style="fill: rgb(31, 22, 19); fill-rule: evenodd; stroke: none;" id="path54"/>
      <path d="m 2097.26,5725.61 c -7.3,0 -12.78,-10.97 -12.78,-10.97 0,0 -5.5,10.97 -12.8,10.97 -31.03,0 -157.05,-12.79 -191.71,-58.43 0,0 175.3,3.65 186.23,5.47 9.14,3.65 18.28,21.93 18.28,21.93 0,0 7.31,-18.28 18.25,-21.93 9.12,-1.82 186.28,-5.47 186.28,-5.47 -36.55,45.64 -162.54,58.43 -191.75,58.43 v 0" style="fill: rgb(32, 29, 29); fill-rule: evenodd; stroke: none;" id="path56"/>
      <path d="m 6317.24,5199.71 v 0 0 z" style="fill: rgb(255, 255, 255); fill-rule: evenodd; stroke: none;" id="path72"/>
    </g>
  </g>
</svg>